<?xml version="1.0" encoding="UTF-8" standalone="no"?>
<!-- Created with Inkscape (http://www.inkscape.org/) -->

<svg
   width="297mm"
   height="210mm"
   viewBox="0 0 297 210"
   version="1.1"
   id="svg1"
   inkscape:version="1.3 (0e150ed6c4, 2023-07-21)"
   sodipodi:docname="SRD_LAND.svg"
   xmlns:inkscape="http://www.inkscape.org/namespaces/inkscape"
   xmlns:sodipodi="http://sodipodi.sourceforge.net/DTD/sodipodi-0.dtd"
   xmlns="http://www.w3.org/2000/svg"
   xmlns:svg="http://www.w3.org/2000/svg">
  <sodipodi:namedview
     id="namedview1"
     pagecolor="#ffffff"
     bordercolor="#666666"
     borderopacity="1.0"
     inkscape:showpageshadow="2"
     inkscape:pageopacity="0.0"
     inkscape:pagecheckerboard="0"
     inkscape:deskcolor="#d1d1d1"
     inkscape:document-units="mm"
     inkscape:zoom="1.0747123"
     inkscape:cx="543.86648"
     inkscape:cy="367.07498"
     inkscape:window-width="1858"
     inkscape:window-height="1057"
     inkscape:window-x="-8"
     inkscape:window-y="-8"
     inkscape:window-maximized="1"
     inkscape:current-layer="layer1" />
  <defs
     id="defs1" />
  <g
     inkscape:label="图层 1"
     inkscape:groupmode="layer"
     id="layer1">
    <path
       id="rect851-7-5"
       style="fill:none;fill-opacity:1;stroke:#000000;stroke-width:0.517;stroke-linecap:round;stroke-linejoin:round;stroke-miterlimit:3.89655;stroke-dasharray:1.551, 1.551;stroke-dashoffset:0;paint-order:markers fill stroke"
       d="M 66.940835,14.207882 H 232.61766 c 31.31516,0 56.52555,35.003522 56.52555,78.483262 v 13.875796 c 0,43.47975 -25.21039,78.48328 -56.52555,78.48328 H 66.940835 c -31.315157,0 -56.525574,-35.00353 -56.525574,-78.48328 V 92.691144 c 0,-43.47974 25.210417,-78.483262 56.525574,-78.483262 z"
       sodipodi:insensitive="true" />
    <path
       style="fill:none;stroke:#000000;stroke-width:0.624804;stroke-linecap:butt;stroke-linejoin:miter;stroke-miterlimit:5.5;stroke-dasharray:1.87441, 0.624804;stroke-dashoffset:0;stroke-opacity:1"
       d="m -34.628211,36.858937 5.85929,-7.74403 8.78373,3.32784 -0.45412,9.81914 -9.05526,2.73098 z"
       id="path15" />
    <path
       style="fill:#000000;fill-opacity:1;stroke:#000000;stroke-width:0.431642;stroke-linecap:butt;stroke-linejoin:miter;stroke-dasharray:none;stroke-dashoffset:0;stroke-opacity:1"
       d="m -17.433821,30.334827 -10.86007,-4.16031"
       id="path16" />
    <path
       style="fill:#000000;fill-opacity:1;stroke:#000000;stroke-width:0.431642;stroke-linecap:butt;stroke-linejoin:miter;stroke-dasharray:none;stroke-dashoffset:0;stroke-opacity:1"
       d="m -30.988671,26.240167 -6.79525,9.43794"
       id="path17" />
    <path
       style="fill:#000000;fill-opacity:1;stroke:#000000;stroke-width:0.431642;stroke-linecap:butt;stroke-linejoin:miter;stroke-dasharray:none;stroke-dashoffset:0;stroke-opacity:1"
       d="m -16.729151,31.305247 -0.46813,11.62027"
       id="path18" />
    <path
       style="fill:#000000;fill-opacity:1;stroke:#000000;stroke-width:0.431642;stroke-linecap:butt;stroke-linejoin:miter;stroke-dasharray:none;stroke-dashoffset:0;stroke-opacity:1"
       d="m -18.124011,44.838617 -11.157,3.28194"
       id="path19" />
    <path
       style="fill:#000000;fill-opacity:1;stroke:#000000;stroke-width:0.431642;stroke-linecap:butt;stroke-linejoin:miter;stroke-dasharray:none;stroke-dashoffset:0;stroke-opacity:1"
       d="m -31.360411,47.605827 -6.39652,-9.71257"
       id="path20" />
    <path
       style="fill:#000000;fill-opacity:1;stroke:#000000;stroke-width:0.539554;stroke-linecap:butt;stroke-linejoin:miter;stroke-dasharray:none;stroke-dashoffset:0;stroke-opacity:1"
       d="m -29.768041,27.546447 -2.8154,3.67965"
       id="path21" />
    <text
       xml:space="preserve"
       style="font-size:9.09991px;fill:#000000;stroke:#000000;stroke-width:0.297;stroke-dasharray:none;stroke-dashoffset:0"
       x="-39.185806"
       y="31.060114"
       id="text21"
       transform="matrix(0.96882084,-0.29620545,0.28860041,0.94394644,0,0)"><tspan
         sodipodi:role="line"
         id="tspan21"
         style="font-style:normal;font-variant:normal;font-weight:normal;font-stretch:normal;font-family:'Yu Gothic UI';-inkscape-font-specification:'Yu Gothic UI';fill:#000000;stroke:#000000;stroke-width:0.297;stroke-dasharray:none"
         x="-39.185806"
         y="31.060114">C</tspan></text>
    <path
       style="fill:#000000;fill-opacity:1;stroke:#000000;stroke-width:0.539554;stroke-linecap:butt;stroke-linejoin:miter;stroke-dasharray:none;stroke-dashoffset:0;stroke-opacity:1"
       d="m -18.494031,42.911087 0.21477,-4.62818"
       id="path22" />
    <path
       style="fill:#000000;fill-opacity:1;stroke:#000000;stroke-width:0.539554;stroke-linecap:butt;stroke-linejoin:miter;stroke-dasharray:none;stroke-dashoffset:0;stroke-opacity:1"
       d="m -30.444591,46.462027 -2.4967,-3.90289"
       id="path23" />
    <path
       id="path9"
       style="fill:none;stroke:#000000;stroke-width:0.5;stroke-linecap:round;stroke-linejoin:round;stroke-miterlimit:4;stroke-dasharray:none;stroke-dashoffset:0;stroke-opacity:1;paint-order:markers fill stroke"
       inkscape:transform-center-x="-0.59015032"
       inkscape:transform-center-y="0.55858056"
       d="m -70.851811,19.655547 -1.85745,10.11738 -1.85745,10.11738 4.12772,-0.0444 4.12773,-0.0444 -2.27028,-10.07294 z" />
    <path
       id="path10"
       style="fill:none;stroke:#000000;stroke-width:0.5;stroke-linecap:round;stroke-linejoin:round;stroke-miterlimit:4;stroke-dasharray:none;stroke-dashoffset:0;stroke-opacity:1;paint-order:markers fill stroke"
       inkscape:transform-center-x="-0.59015032"
       inkscape:transform-center-y="-0.55857927"
       d="m -70.851811,60.547151 -1.85745,-10.117394 -1.85745,-10.11737 4.12772,0.0444 4.12773,0.0444 -2.27028,10.07294 z" />
    <path
       id="path11"
       style="fill:none;stroke:#000000;stroke-width:0.5;stroke-linecap:round;stroke-linejoin:round;stroke-miterlimit:4;stroke-dasharray:none;stroke-dashoffset:0;stroke-opacity:1;paint-order:markers fill stroke"
       inkscape:transform-center-x="-0.59014923"
       inkscape:transform-center-y="0.55857992"
       d="m -90.884793,40.514177 10.11737,1.85744 10.117392,1.85745 -0.0444,-4.12771 -0.0444,-4.12773 -10.072952,2.27027 z" />
    <path
       id="path12"
       style="fill:none;stroke:#000000;stroke-width:0.5;stroke-linecap:round;stroke-linejoin:round;stroke-miterlimit:4;stroke-dasharray:none;stroke-dashoffset:0;stroke-opacity:1;paint-order:markers fill stroke"
       inkscape:transform-center-x="-0.59014941"
       inkscape:transform-center-y="-0.55858424"
       d="m -49.993191,40.514177 -10.11738,1.85744 -10.11738,1.85745 0.0444,-4.12771 0.0444,-4.12773 10.07294,2.27027 z" />
    <path
       id="path13"
       style="fill:none;stroke:#000000;stroke-width:0.5;stroke-linecap:round;stroke-linejoin:round;stroke-miterlimit:4;stroke-dasharray:0.999997, 0.999997;stroke-dashoffset:0;stroke-opacity:1;paint-order:markers fill stroke"
       inkscape:transform-center-x="-0.59014437"
       inkscape:transform-center-y="0.55858228"
       d="m -56.273541,25.352077 -8.46748,5.84065 -8.46749,5.84066 2.95016,2.88731 2.95017,2.88733 5.51732,-8.72798 z" />
    <path
       id="path14"
       style="fill:none;stroke:#000000;stroke-width:0.5;stroke-linecap:round;stroke-linejoin:round;stroke-miterlimit:4;stroke-dasharray:0.999997, 0.999997;stroke-dashoffset:0;stroke-opacity:1;paint-order:markers fill stroke"
       inkscape:transform-center-x="-0.59014389"
       inkscape:transform-center-y="-0.55858298"
       d="m -85.188273,54.266797 5.84066,-8.46747 5.840652,-8.46749 2.88732,2.95016 2.88732,2.95016 -8.72797,5.51732 z" />
    <path
       id="path25"
       style="fill:none;stroke:#000000;stroke-width:0.5;stroke-linecap:round;stroke-linejoin:round;stroke-miterlimit:4;stroke-dasharray:1, 1;stroke-dashoffset:0;stroke-opacity:1;paint-order:markers fill stroke"
       inkscape:transform-center-x="-0.59014857"
       inkscape:transform-center-y="0.55858301"
       d="m -85.188263,25.352077 5.84065,8.46748 5.840652,8.46749 2.88732,-2.95016 2.88733,-2.95017 -8.72798,-5.51732 z" />
    <path
       id="path26"
       style="fill:none;stroke:#000000;stroke-width:0.5;stroke-linecap:round;stroke-linejoin:round;stroke-miterlimit:4;stroke-dasharray:0.999997, 0.999997;stroke-dashoffset:0;stroke-opacity:1;paint-order:markers fill stroke"
       inkscape:transform-center-x="-0.59014905"
       inkscape:transform-center-y="-0.55858425"
       d="m -56.273531,54.266797 -8.46749,-5.84065 -8.46748,-5.84065 2.95016,-2.88732 2.95016,-2.88732 5.51732,8.72797 z" />
    <path
       style="fill:#ffffff;stroke:#000000;stroke-width:0.5;stroke-linecap:butt;stroke-linejoin:miter;stroke-miterlimit:5.5;stroke-dasharray:none;stroke-opacity:1"
       d="m -82.208433,40.777597 11.645172,-11.67785 11.67787,11.67785 -11.67787,11.67782 z"
       id="path27" />
    <circle
       cy="40.777584"
       cx="-70.54657"
       id="circle27"
       style="fill:#ffffff;fill-opacity:1;stroke:#000000;stroke-width:0.5;stroke-miterlimit:5.5;stroke-dasharray:none;stroke-dashoffset:0;stroke-opacity:1"
       r="6.6536884" />
    <text
       id="text28"
       y="40.218502"
       x="-71.323639"
       style="font-size:2.93231px;line-height:1.25;font-family:sans-serif;fill:#000000;stroke:#000000;stroke-width:0.0377821;stroke-dasharray:none;stroke-opacity:1"
       xml:space="preserve"><tspan
         style="font-size:2.93231px;fill:#000000;stroke:#000000;stroke-width:0.0377821;stroke-dasharray:none;stroke-opacity:1"
         y="40.218502"
         x="-71.323639"
         id="tspan28"
         sodipodi:role="line">V</tspan></text>
    <path
       style="fill:none;stroke:#000000;stroke-width:0.368;stroke-linecap:butt;stroke-linejoin:miter;stroke-miterlimit:5.5;stroke-dasharray:none;stroke-opacity:1"
       d="m -70.338941,46.761947 -3.2561,-5.59611 6.47446,-0.006 z"
       id="path28" />
    <path
       style="fill:none;stroke:#000000;stroke-width:0.423;stroke-linecap:butt;stroke-linejoin:miter;stroke-miterlimit:5.5;stroke-dasharray:1.269, 0.423;stroke-dashoffset:0;stroke-opacity:1"
       d="m -73.575631,40.877677 3.18864,-5.63483 3.27163,5.58705 z"
       id="path29" />
    <text
       id="text29"
       y="44.001202"
       x="-71.310776"
       style="font-size:3.07442px;line-height:1.25;font-family:sans-serif;fill:#000000;stroke:#000000;stroke-width:0.0396132;stroke-dasharray:none;stroke-opacity:1"
       xml:space="preserve"><tspan
         style="font-size:3.07442px;fill:#000000;stroke:#000000;stroke-width:0.0396132;stroke-dasharray:none;stroke-opacity:1"
         y="44.001202"
         x="-71.310776"
         id="tspan29"
         sodipodi:role="line">A</tspan></text>
    <path
       id="Taiwan"
       fill="none"
       stroke="#000000"
       stroke-width="1"
       d="m 152.02568,49.693099 c 0.12257,-0.468237 0.14111,-0.936473 0.44257,-1.340443 0.56499,-0.771213 0.97936,-1.661783 0.96992,-2.6258 0.24491,-0.40397 0.49911,-0.79876 0.42377,-1.285357 0.0941,-0.4866 0.62153,-0.789579 -0.1411,-1.04665 -0.43316,-0.238714 -0.80983,0.413154 -1.28066,0.449877 -0.67803,0.716127 -1.18653,1.597516 -1.78921,2.387092 -0.43318,0.752852 -0.18819,1.73523 0.31065,2.396272 0.32033,0.376426 0.61208,0.817117 0.85693,1.202728 0.0658,-0.04591 0.14109,-0.0918 0.20719,-0.137709 z"
       style="stroke-width:0.329464;stroke-dasharray:none"
       sodipodi:insensitive="true" />
    <path
       id="Thailand"
       fill="none"
       stroke="#000000"
       stroke-width="1"
       d="m 112.63525,81.726032 c -0.54618,-0.211161 -0.49906,-0.863026 -0.97936,-1.101737 -0.59323,0.146912 -1.15823,-0.137708 -1.70441,-0.312175 -0.48023,-0.514139 -0.70627,-1.257812 -0.678,-1.946396 -0.16017,-0.330518 -0.0661,-1.230271 -0.50851,-1.156823 -0.51794,-0.101003 -0.3013,-0.771213 -0.31063,-1.15682 -0.0941,-0.670221 -0.75335,-0.174436 -1.17713,-0.20199 -0.60268,-0.110182 -0.47082,-0.872202 -0.54619,-1.331259 0.0661,-1.496523 0.8852,-2.827787 1.50671,-4.15905 0.45202,-0.495779 -0.11325,-1.129278 0.20721,-1.63424 0.3767,-0.41315 0.14112,-0.918111 0.14112,-1.312898 0.45201,-0.624316 1.25243,-0.339699 1.89279,-0.302966 0.4049,0.24789 -0.0266,0.908928 0.01,1.322078 -0.0376,0.376427 0.76274,0.449876 1.11118,0.440698 0.60266,-0.38561 1.25242,0.05505 1.6291,0.532503 0.27327,0.275443 0.94166,0.615136 1.15825,0.431515 -0.1411,-0.661044 -0.77217,-1.101739 -0.81926,-1.790321 -0.20722,-0.890567 0.53677,-1.524069 1.00762,-2.175925 0.43316,-0.633498 1.23359,-0.605956 1.92099,-0.642678 0.91344,0.137708 1.91163,-0.211163 2.74972,0.275447 0.37667,-0.321349 0.95108,-0.550869 0.87578,-1.1201 0.17886,-1.037465 -0.54618,-1.882129 -1.1583,-2.634981 -0.56498,-0.550867 -0.73451,-1.30372 -0.6874,-2.056571 0.14108,-1.074188 -1.30896,-1.413893 -1.39369,-2.423816 -0.40491,-0.247891 -0.9134,-0.302967 -1.38424,-0.330521 -0.45204,0.146913 -0.31067,0.945656 -0.8287,1.037467 -0.48967,0.385607 -0.97936,-0.146913 -1.46903,-0.266239 -0.60268,-0.41315 -0.98877,0.293793 -1.38426,0.642677 -0.37666,0.266272 -0.61212,0.954838 -1.15825,0.596773 -0.36727,-0.725307 0.19784,-1.49652 0.36723,-2.212648 0.33901,-0.605955 0.12244,-1.257812 -0.01,-1.882129 -0.20721,-0.4866 -0.87578,0.211161 -1.30894,0.03675 -0.48965,-0.358064 -0.0267,-1.019106 -0.14109,-1.524065 -0.11324,-0.376428 -0.791,-0.679404 -1.12058,-0.403972 -0.74394,-0.01822 -1.51612,0.330522 -1.84571,1.000742 -0.50853,0.266271 -1.15828,0.431516 -1.76091,0.358066 -0.50853,-0.211163 -0.8287,0.504962 -0.81926,0.918111 -0.01,0.504963 -0.12257,0.991563 -0.11324,1.47816 -0.59325,0.11936 -0.8946,0.257065 -0.25423,0.762033 0.45197,0.293793 0.18817,0.945656 0.47083,1.266998 0.54617,0.413151 1.16765,0.807936 1.44075,1.441435 0.14111,0.40397 0.791,0.844662 0.50853,1.230269 -0.57443,0.183606 -0.69686,0.65186 -0.46144,1.175183 0.31064,0.587594 -0.46142,0.74367 -0.8475,0.973197 0.27326,0.541689 0.48965,1.110917 0.73451,1.670967 0.61207,0.523322 1.38426,1.06501 1.33717,1.955576 -0.0469,0.495782 -0.13173,1.009926 0.17885,1.4598 0.17885,0.605953 0.65915,1.166001 0.74391,1.762775 -0.45202,0.899751 -1.12058,1.698507 -1.60086,2.589075 -0.31066,0.376427 -0.42377,0.798757 -0.44256,1.184368 -0.31065,1.110912 -0.95112,2.203465 -0.82871,3.378651 0.1411,0.679403 0.79102,-0.220337 1.09236,0.440694 0.51792,0.183608 0.73449,0.661043 0.93227,1.120099 0.0469,0.6794 0.76274,0.257063 0.91343,0.780393 0.13173,0.42233 -0.0752,0.982381 0.43316,1.248631 0.31064,0.312174 1.11119,-0.367245 0.74392,0.385608 0.15082,0.11936 1.1206,-0.431513 1.03586,0.266272 0.29196,0.165259 0.93228,0.367243 0.73451,0.881384 -0.3955,0.642679 0.33899,0.651859 0.5179,0.08262 0.57447,-0.348886 0.25426,0.863024 0.97936,0.403968 0.0469,-0.459056 0.59323,-0.716128 0.73451,-1.175183 -0.10354,-0.08262 -0.25426,-0.174435 -0.36724,-0.275445 z"
       style="stroke-width:0.329464;stroke-dasharray:none"
       sodipodi:insensitive="true" />
    <path
       id="Vietnam"
       fill="none"
       stroke="#000000"
       stroke-width="1"
       d="m 112.77655,48.573004 c 0,0 0.0377,0.05506 0.0377,0.05506 0.34841,0.881385 1.4219,1.248631 1.65736,2.175923 0.18819,0.651858 0.53672,1.285358 1.23359,1.505705 0.62149,0.394787 0.90399,-0.743673 1.51608,-0.514143 0.36727,0.358063 0.61209,0.881389 1.02646,1.230269 0.65914,0.403971 0.12244,1.404712 -0.58385,1.276175 -0.53676,-0.211162 -1.0547,0.330519 -0.8381,0.844667 0.64033,0.385605 1.31835,0.734485 1.90217,1.202723 1.2901,1.257813 2.4484,2.653346 3.43713,4.140685 0.32967,0.596776 1.20533,0.642683 1.44078,1.276176 -0.0377,0.40397 -0.31065,0.899751 0.29193,1.14764 0.7628,0.789578 0.12259,1.918855 0.0377,2.836968 -0.13176,0.587592 0.47083,1.046649 0.41433,1.588333 -0.26359,0.716129 0.3013,1.680146 -0.46141,2.166746 -0.82869,0.358062 -1.70443,0.67022 -2.49546,1.129279 -0.44258,0.156087 -0.96051,0.624316 -0.51791,1.065006 0.37669,0.0918 0.84751,0.817123 0.23524,0.780399 -0.81926,-0.39479 -1.6197,0.0918 -2.30713,0.51414 -0.28262,0.0918 -1.38425,0.468238 -0.64976,0.642679 0.45202,0.07346 1.20537,0.514145 0.84751,1.000742 -0.45203,0.771216 -0.25427,1.735235 -0.41435,2.579894 0.59327,0.174435 1.01704,-0.358058 1.32781,-0.771211 0.35781,-0.697767 1.46897,-0.431514 1.70441,-1.239452 0.28263,-0.14688 0.9605,-0.14688 1.02645,-0.725309 0.28261,-0.449874 -0.047,-0.954835 0.10356,-1.404714 0.1508,-0.504958 0.67801,0.431514 1.12058,0.367248 0.94171,-0.07345 1.29954,-1.166004 2.19411,-1.386349 0.64979,-0.04591 1.16769,-0.468238 1.46904,-1.019104 0.2449,-0.385609 -0.0267,-0.890572 0.14111,-1.312901 -0.15084,-0.560046 0.10355,-1.074194 0.46141,-1.505704 -0.33902,-1.487341 -0.44262,-3.057313 -1.09236,-4.452842 -0.54617,-0.403971 -0.92284,-0.964017 -1.03582,-1.62506 -0.047,-0.523326 -0.46142,-0.890567 -1.00761,-0.807936 -0.80985,-0.651862 -1.45019,-1.487343 -2.35423,-2.03821 -0.51789,-0.330523 -0.68741,-0.89975 -0.66856,-1.478164 -0.62153,-0.532505 -1.14887,-1.147638 -1.74211,-1.707687 0.36724,-0.688584 0.44257,-1.496524 0.90402,-2.120839 0.45198,-0.266239 0.99816,-0.41315 1.22416,-0.927294 0.41434,-0.330518 0.39552,-0.789575 0.55561,-1.156822 0.43317,-0.08262 1.12059,0.266271 1.35602,-0.174435 -0.32968,-0.58759 0.54617,-0.642675 0.86632,-0.964017 -0.41433,-0.293792 -0.99815,-0.128532 -1.46898,-0.3397 -0.6027,-0.284618 -1.40315,-0.651862 -1.39371,-1.423075 0.24492,-0.358064 0.7251,-0.908931 0.1695,-1.230272 -0.79102,0.05506 -1.75154,0.110181 -2.36359,-0.468236 -0.32032,-0.541686 -0.84755,-0.01822 -1.20534,0.220336 -0.72513,0.79876 -1.87399,0.642678 -2.85332,0.697765 -0.60267,-0.156087 -0.9511,0.752851 -1.49727,0.358063 -0.48024,-0.514145 -1.20534,-0.302965 -1.7515,0 z"
       style="stroke-width:0.329464;stroke-dasharray:none"
       sodipodi:insensitive="true" />
    <path
       id="Australia"
       fill="none"
       stroke="#000000"
       stroke-width="1"
       d="m 207.42458,182.73668 c 0.40493,-0.48657 1.22418,-0.24788 1.52552,-0.80792 0.02,-0.78956 0.56504,-1.42305 0.82868,-2.13922 -0.01,-0.48661 0.0377,-1.10171 -0.22587,-1.48733 -0.33902,-0.46823 -0.98879,-0.0825 -1.29012,0.23876 -0.85691,-0.17435 -1.61026,0.35807 -2.45779,0.29377 -0.83807,-0.24787 -1.69503,-0.50496 -2.56134,-0.67938 -0.36727,-0.0644 -1.22419,-0.58759 -1.04529,0.13756 0.0753,1.11094 0.96052,1.92807 1.7421,2.66254 0.48027,0.60595 -0.21653,0.41312 -0.56499,0.24787 -0.36727,0.18381 0.43319,0.74368 0.57443,1.04666 0.47083,0.93647 1.6103,1.06501 2.45779,1.51487 0.51794,-0.0825 0.60267,-0.7712 1.01702,-1.02828 z m -10.61271,-65.4063 c 0,0.56006 -0.16015,1.09257 -0.36726,1.61587 -0.11324,0.38562 -0.8004,0.8263 -0.42377,1.19354 0.6592,0.35809 0.0566,0.67944 -0.26359,0.97323 -0.13173,0.53252 -0.18817,1.14765 -0.19786,1.68933 0.38612,0.44068 0.20721,0.88137 -0.02,1.3496 -0.36724,0.56006 0.35784,0.93649 0.40492,1.47817 -0.54619,0.66104 -0.7251,1.50571 -0.80983,2.33201 -0.23557,0.89975 -0.64033,1.79951 -1.2242,2.5248 -0.59324,0.18348 -1.22418,0.62431 -1.84568,0.33972 -0.57443,-0.3489 -1.45018,-0.5325 -1.58202,-1.26701 -0.28262,-0.60596 -1.15826,-0.36725 -1.68559,-0.60596 -0.78161,-0.47739 -1.3372,-1.26696 -2.26007,-1.55159 -0.42374,-0.37642 -1.04523,0.21112 -1.31833,-0.3856 -0.63095,-0.86305 -1.71383,-1.1752 -2.44836,-1.9097 -0.22587,-0.6059 0.55562,-0.83547 0.7816,-1.29453 0.24491,-0.35807 0.55558,-0.93648 0.0753,-1.23027 -0.15082,-0.53252 0.32966,-0.84466 0.78158,-0.99158 0.67803,0.12845 0.63092,-0.39476 0.80045,-0.81709 -0.0377,-0.44988 1.0076,-0.89059 0.19785,-1.03744 -0.32966,-0.37647 -0.80986,-0.65189 -0.75333,0.11016 -0.14109,0.6886 -0.69687,0.13757 -0.96051,-0.17435 -0.37666,-0.31232 -0.94168,-0.39482 -1.26187,0.0368 -0.45202,0.36725 -0.8569,-0.18348 -1.04525,-0.5325 -0.51793,0.01 -1.0076,0.20202 -1.5255,-0.0196 -0.87576,-0.10097 -1.66679,-0.45909 -2.29773,-1.06502 -0.63091,0.38559 -0.89461,-0.69775 -1.51606,-0.4407 -0.72511,0.15614 -0.14113,0.58758 0.2826,0.42233 0.61207,0.18346 0.76275,0.87221 0.81925,1.36798 -0.71568,0.47744 -1.66676,0.23879 -2.49545,0.42237 -0.40492,-0.20204 -0.99817,-0.56007 -1.30896,-0.026 0.01,0.39477 0.0377,0.78957 -0.65916,0.6886 -0.452,0.0458 -0.67799,0.67021 -0.76274,1.04662 0.23522,0.45906 -0.35787,0.77124 -0.7251,0.94567 -0.42374,0.24788 -0.13172,0.84465 -0.70625,1.02828 -0.61209,0.30289 -0.0267,0.79875 0.37668,0.95485 0.60266,0.41315 -0.1882,0.75284 -0.19788,1.23024 -0.47085,-0.11031 -0.73451,-0.58759 -1.20535,-0.67021 -0.4426,-0.046 -1.01701,-0.23878 -1.40311,-0.01 -0.25426,0.20201 -0.51792,1.13848 -0.84751,0.70695 0.0661,-0.44989 0.14108,-1.01911 -0.21654,-1.34964 -0.48027,-0.26611 -0.55558,-0.90891 -1.08292,-1.09253 -0.50852,0.20199 -0.93226,-0.90895 -1.15828,-0.41315 -0.25422,0.25698 -0.51793,1.32207 -0.76274,0.59677 -0.38608,-0.51415 -0.83811,0.13759 -0.96051,0.53247 -0.0847,0.67943 -0.66861,0.44989 -1.15827,0.51418 -0.72509,0.01 -0.46143,0.58758 -0.67801,1.03745 -0.23556,0.33971 0.2449,1.20273 -0.43316,0.76203 -0.37669,-0.42232 -0.96994,-0.0643 -1.05468,0.3948 0.0847,0.36726 -0.37669,1.06501 0.2072,1.10172 0.48964,0.27555 1.02644,0.50497 0.15083,0.40398 -0.62153,0.16524 -1.13003,-0.30288 -1.74211,-0.22935 -0.57445,-0.22026 -0.49912,0.80792 -0.0754,0.89053 0.62149,-0.0825 0.48964,1.01913 0.01,0.78042 -0.6215,-0.56003 -0.33898,0.38558 -0.59323,0.74365 -0.64979,-0.55086 -0.59327,-1.65259 -1.42194,-2.03818 -0.24494,0.54168 -0.65923,0.95481 -1.08296,1.36799 -0.65918,0.46823 0.02,1.24861 0.02,1.86374 -0.32032,0.47742 -0.99817,0.6335 -1.37484,1.09255 -0.29196,0.80796 -0.81926,1.50574 -1.52551,2.01985 -0.8852,0.42234 -1.83627,0.94568 -2.84387,0.88139 -0.42376,-0.0368 -1.12058,-0.46822 -1.37483,0.0368 -0.24492,0.84469 -1.33724,0.31231 -1.8834,0.75289 -0.4049,0.56003 -1.12058,0.57842 -1.76093,0.54168 -0.90399,-0.046 -1.83629,0.14671 -2.48605,0.79874 -0.76274,0.78959 -1.80797,1.166 -2.74023,1.71684 -0.59327,0.15618 -0.25428,1.12014 -0.82871,1.2303 -0.59327,0 -0.25425,-0.84466 -0.62152,-1.17517 -0.0661,0.50495 -0.58379,0.83547 -0.59325,1.33125 0.17883,0.55085 0.37669,1.16602 0.26358,1.75357 -0.0661,0.67027 -0.80983,1.10176 -0.78158,1.76281 -0.0847,1.34041 1.1112,2.19428 1.70444,3.26847 0.15083,0.57843 -0.43314,0.54168 -0.21654,1.05583 -0.67799,0.0917 -0.60267,-0.78038 -1.02642,-1.11089 -0.27294,-0.52336 -0.92286,-0.73449 -0.42377,-0.0261 0.48971,0.25699 0.54618,0.78957 0.69684,1.2578 -0.0941,0.45906 -0.80041,-0.23876 -0.98876,-0.51412 -0.0942,-0.75285 -0.68741,-0.48661 -0.21654,0.10098 0.51791,0.58761 1.13002,1.12008 1.5067,1.82707 0.38608,0.44066 0.33901,0.99156 0.21655,1.52402 0.94167,1.0834 2.01516,2.31367 1.9681,3.81021 -0.12245,1.17517 0.49909,2.2218 1.12058,3.16748 0.88519,1.23944 0.81928,2.90123 0.28261,4.25086 -0.17885,0.52329 -0.75332,0.65186 -1.23358,0.44986 -0.0377,0.44069 -0.0266,1.11093 0.27293,1.42305 1.15828,0.0458 1.72327,1.31293 2.86272,1.45065 0.94167,0.11939 1.93987,0.26643 2.88154,0.0549 0.75334,-0.0825 1.29007,-0.61512 1.695,-1.19355 0.51793,-0.14706 1.2901,0.33969 1.58201,-0.32142 0.2636,-0.59679 0.91344,-0.79874 1.53495,-0.69776 1.13002,-0.026 2.27887,-0.3856 3.41829,-0.26613 0.48024,0.23881 0.85692,0.51413 1.37485,0.21115 0.75334,-0.25698 1.61026,0.13757 2.29768,-0.26646 0.6592,-0.48655 0.96993,-1.39547 1.73271,-1.79029 0.92286,-0.13755 1.72326,-0.63348 2.5708,-1.0099 0.96048,-0.45909 2.02462,-0.27556 3.05103,-0.37647 0.92282,-0.0917 1.84567,-0.33968 2.71203,-0.67019 1.42191,-0.78041 3.07926,-0.51415 4.64245,-0.64267 0.56503,0.10099 1.12061,-0.40398 1.65735,-0.14704 0.78162,0.19291 1.24303,1.04664 2.10938,0.98237 0.46142,-0.33968 0.94169,-0.0196 1.34659,0.23879 0.48967,0.39476 1.1112,-0.0368 1.62913,0.10099 0.36722,0.29373 0.90397,0.61512 0.96047,1.12008 -0.52732,0.20201 -0.22589,0.96405 0.27328,0.85385 0.63093,-0.27554 0.78161,0.3856 0.95109,0.81713 0.75339,0.67023 1.14887,1.58834 1.36544,2.54315 0.17885,0.73452 0.69684,0.44988 0.8946,-0.12842 0.2826,-0.78043 0.98876,-1.24866 1.68561,-1.67096 0.54617,-0.0825 1.03581,-0.37646 1.14886,-0.94568 0.17884,-0.51413 0.66858,-0.70694 1.06407,-1.02827 0.15082,-0.60598 0.1882,-0.83547 0.565,-0.13758 0.46141,0.39478 0.19787,0.90893 -0.30129,1.00991 0.10379,0.65188 -0.42378,1.09254 -0.67801,1.63423 -0.44257,0.44988 0.32032,1.32209 -0.42377,1.56996 -0.6874,-0.26609 -0.70623,0.33054 -0.92282,0.78041 0.48967,-0.055 0.88517,-0.2479 1.39366,-0.202 0.44262,-0.41317 0.32966,-1.19352 0.74395,-1.66179 0.28262,-0.79874 0.58385,0.13756 0.96053,0.39481 0.49906,0.38558 0.2449,1.08337 0.0377,1.5608 -0.48028,0.28463 -0.64038,0.863 0.12258,0.66098 0.5838,0.0261 0.99813,-0.48655 1.55372,-0.46822 0.51792,-0.0368 0.13176,0.84469 0.59328,1.07422 0.678,0.52331 0.77216,1.40469 0.62151,2.1851 0.13172,0.4407 0.32032,0.964 0.80982,1.15681 0.70629,0.65188 1.48787,1.26702 2.46722,1.46897 0.42375,0.13757 0.77218,-0.3856 1.29008,-0.0734 1.00761,0.1929 1.89279,0.68855 2.83446,1.04662 0.69683,-0.16525 1.31834,-0.56924 1.98693,-0.8263 0.49911,-0.11938 1.26188,-0.19292 0.41436,-0.52333 -0.47083,-0.27555 0.64034,-0.59677 0.96049,-0.49582 0.46142,0.31234 1.30893,0.57844 1.18651,1.25786 0.28261,0.30287 0.93227,0.36727 1.31839,0.65188 0.59324,0.33049 0.92282,0.44984 0.32967,-0.15617 0.10355,-0.18347 1.01696,0.0825 1.18647,-0.36724 0.64038,-0.23877 1.24304,-0.65188 1.8363,-1.00074 0.83807,-0.66105 1.93983,-0.43152 2.91923,-0.56924 0.78155,0.0368 1.4784,-0.47741 1.68555,-1.21188 0.0266,-1.00994 0.0753,-2.06578 0.40494,-3.04816 0.0266,-0.81712 1.09236,-0.81712 1.32778,-1.48735 0.23521,-0.44988 -0.0471,-1.00073 0.43314,-1.34963 0.54617,-0.50495 0.57445,-1.23944 0.73452,-1.90966 0.26362,-0.42231 0.54619,-1.00991 1.04525,-1.17516 0.62151,-0.0261 0.92288,-0.53252 1.2336,-0.97321 0.15083,-0.89976 1.03586,-1.47814 1.12063,-2.39629 0.16948,-0.61513 -0.26362,-1.23944 0.0942,-1.81786 0.452,-1.00074 0.48023,-2.12084 0.91342,-3.12158 0.1695,-0.79874 -0.0847,-1.68931 -0.5556,-2.36872 -0.22587,-0.43152 -0.73449,-0.81712 -0.30128,-1.28535 0.13171,-0.6427 0.0752,-1.3588 -0.0202,-2.01985 -0.23523,-0.49578 -0.12255,-1.39553 -0.81923,-1.50572 -0.68743,-0.0458 -0.31067,-1.00074 -0.80984,-1.2119 -0.73451,-0.046 -0.59328,-0.98239 -1.11118,-1.31291 -0.76278,-0.0917 -1.33722,-0.60593 -1.88341,-1.08337 -0.23555,-0.5784 0.0201,-1.34961 -0.29194,-1.92801 -0.42376,-0.23879 -0.94166,-0.30286 -1.3466,-0.60597 -0.565,-0.41313 0.35785,1.15682 -0.41432,0.55086 -0.85692,-0.22024 -0.72508,-1.24862 -1.05467,-1.89131 -0.28264,-0.5233 -0.23558,-1.3496 -0.90402,-1.56995 -0.45201,-0.16525 -0.96053,-0.61513 -0.5085,-1.065 0.49907,-0.5876 -0.45203,-0.5142 -0.83811,-0.53253 -0.75335,-0.11017 -1.47843,-0.56004 -1.79861,-1.24863 -0.84753,0 -1.48783,-0.58757 -2.21295,-0.93647 -0.44258,-0.48662 -0.43315,-1.23946 -0.90399,-1.72607 0.36726,-0.92727 0.1695,-1.98314 -0.50853,-2.71759 -0.17882,-0.45905 -0.80042,-0.71615 -0.72507,-1.21193 0.1695,-0.70695 -0.33901,-1.29451 -0.29198,-2.00146 0.12258,-0.56923 -0.20718,-0.85386 -0.70624,-1.03746 -0.42376,-0.27554 -0.87576,-0.41317 -0.98877,-0.96403 -0.42375,0.11939 -0.78157,0.76203 -1.21475,0.3029 -0.38609,-0.56008 -0.63095,-1.26702 -0.70626,-1.95559 -0.0753,-0.69776 0.0847,-1.76279 -0.80984,-1.98312 -0.6027,-0.17438 0.565,-0.89975 0.0377,-1.17519 -0.6686,0.12842 -0.6686,-0.62433 -0.70627,-1.08337 0.047,-0.56926 -0.37668,-0.96402 -0.8852,-1.15684 -0.16014,0.16528 -0.31064,0.32142 -0.44255,0.50496 z"
       style="stroke-width:0.329464;stroke-dasharray:none"
       sodipodi:insensitive="true" />
    <path
       id="Bhutan"
       fill="none"
       stroke="#000000"
       stroke-width="1"
       d="m 85.147664,39.217438 c 0.113252,0.624319 0.838108,0.587594 1.346625,0.679407 0.630906,0.21116 1.355992,0.3397 1.902179,-0.13771 1.026417,0.302966 2.109371,0.220336 3.164066,0.128532 0.404894,-0.08262 0.565007,-1.000741 -0.02007,-1.055827 -0.678005,-0.110182 -0.339003,-0.780398 -0.715683,-1.166003 -0.45202,-0.523325 -1.280673,-0.229541 -1.911599,-0.330521 -0.574454,0.137708 -0.866377,-0.541687 -1.384274,-0.459056 -0.998176,0.431511 -1.600884,1.432254 -2.297697,2.23101 -0.0098,0.03675 -0.113251,0.06428 -0.08464,0.110182 z"
       style="stroke-width:0.329464;stroke-dasharray:none"
       sodipodi:insensitive="true" />
    <path
       id="Brunei"
       fill="none"
       stroke="#000000"
       stroke-width="1"
       d="m 138.10765,85.471929 c 0.13176,0.468235 0.41434,0.532503 0.75332,0.927291 0.40497,-0.348882 0.96055,-0.422332 1.45023,-0.605952 -0.02,-0.201987 -0.14109,-0.697767 -0.25427,-1.046649 -0.41431,-0.146913 -0.37666,-0.697764 -0.77219,-0.02766 -0.18819,0.560053 -0.70622,0.550867 -1.16766,0.752853 z"
       style="stroke-width:0.329464;stroke-dasharray:none"
       sodipodi:insensitive="true" />
    <path
       id="Cambodia"
       fill="none"
       stroke="#000000"
       stroke-width="1"
       d="m 118.02166,65.227558 c -0.70623,0.100979 -1.42192,-0.04591 -2.1282,0.05508 -0.83809,-0.0918 -1.37483,0.596772 -1.78917,1.202727 -0.64036,0.587592 -0.69684,1.514885 -0.32967,2.258557 0.19787,0.36724 0.80043,0.853842 0.47083,1.257814 0.20722,0.477415 0.45202,0.945654 0.63093,1.441434 0.0376,0.440694 0.094,1.230269 0.68742,0.725305 0.36728,-0.468236 1.00762,0.220339 0.65921,0.569233 -0.51798,0.532504 0.41429,0.51414 0.73449,0.348879 0.51789,-0.257062 0.79102,0.826304 1.1677,0.165261 0.80983,-0.156086 1.4125,-0.872206 2.2506,-0.899746 0.38609,-0.04591 1.14884,0.459056 1.02643,-0.247892 -0.35788,-0.238717 -0.97936,-0.66104 -0.55559,-1.101732 0.73449,-0.560054 1.65735,-0.89057 2.50485,-1.266998 0.66857,-0.07345 1.11118,-0.716128 0.94168,-1.340443 -0.15081,-0.495782 0.21657,-1.028284 -0.0267,-1.478159 -0.43312,-0.64268 -0.37666,-1.413895 -0.13172,-2.111662 -0.46143,0.183641 -0.9605,0.550871 -1.44078,0.523326 -0.32964,-0.440695 -0.93226,-0.550867 -1.33719,-0.156086 -0.60268,0.229544 0.69687,0.936475 -0.16016,1.046649 -0.58381,-0.41315 -1.34657,-0.348882 -1.94924,-0.716128 -0.34844,-0.220336 -0.80989,-0.238716 -1.22418,-0.275443 z"
       style="stroke-width:0.329464;stroke-dasharray:none"
       sodipodi:insensitive="true" />
    <path
       id="India"
       fill="none"
       stroke="#000000"
       stroke-width="1"
       d="m 93.782894,49.729823 c 0.499061,-0.16526 0.555579,-0.697762 0.499061,-1.129278 -0.150805,-0.486598 -0.235562,-1.065008 0.461448,-1.110911 0.357827,-0.495782 0.0098,-1.138465 0.04696,-1.707692 0.02661,-0.670223 0.762776,0.03675 1.167663,0.03675 0.58384,0.229511 0.696879,-0.495783 0.932266,-0.844665 0.188181,-0.560048 0.791038,-1.074192 0.640338,-1.689326 -0.404887,-0.532506 0.386087,-0.918115 0.621538,-1.340444 0.489645,-0.367247 0.09406,-0.982378 0.33899,-1.413892 0.470858,-0.514143 1.233605,-0.73449 1.779782,-1.193547 0.48964,-0.541685 1.20533,-0.275442 1.79858,-0.11936 0.78162,0.238715 0.11325,-0.560047 0.339,-0.927293 0.37668,-0.32135 0.80044,-0.679402 0.68744,-1.221089 -0.50852,-0.02766 -0.98876,-0.192815 -1.47844,-0.266271 -0.51793,0.02766 -1.07352,-0.156087 -0.48968,-0.615132 0.47082,-0.486601 -0.31064,-0.908933 -0.61205,-1.239455 -0.35786,-0.605953 -0.819287,0 -1.243054,0.192814 -0.470833,0.459058 -1.092324,0.229512 -1.629095,0.02766 -0.536752,-0.422329 -1.120628,0.18361 -1.600856,0.440697 -0.508481,0.477417 -1.252422,0.468236 -1.789172,0.890568 -0.76278,0.596772 -1.37484,1.588332 -2.476614,1.560788 -0.593275,-0.183609 -1.045275,0.440696 -0.39552,0.743672 0.649793,0 0.621507,0.67022 0.348441,1.074192 -1.111212,0.10098 -2.260038,0.220338 -3.333545,-0.110182 -0.489687,0.422333 -1.158255,0.394791 -1.742113,0.174436 -0.442621,-0.146913 -1.111188,-0.02766 -1.365437,-0.431512 -0.113251,-0.431514 -0.272916,-0.890568 -0.235227,-1.386351 0.225888,-0.587589 -0.423752,-0.771214 -0.856937,-0.514141 -0.386072,0.128532 -0.489669,0.780394 -0.536744,1.202727 -0.244922,0.514142 0.508488,0.89975 0.282619,1.349625 -0.06611,0.651857 -0.71569,0.339702 -1.177113,0.523322 -0.423743,-0.0918 -0.998147,0.201988 -1.20534,-0.394785 -0.452007,0.394785 -0.904042,0.174433 -1.365427,-0.06428 -0.508508,-0.339702 -0.969921,0.275445 -1.337191,-0.146879 0.150837,-0.771217 -0.69684,0.02766 -1.00761,-0.192815 -0.451978,-0.165261 -0.772153,-0.550868 -1.271265,-0.560048 0.339015,-0.624315 -0.338986,-0.651859 -0.753323,-0.734491 -0.433206,-0.541687 -0.847494,0.440695 -1.290105,-0.100979 -0.546188,-0.257065 -0.687416,0.477418 -1.186528,0.01822 -0.659161,0.137706 -0.668596,-0.670223 -1.252406,-0.440694 -0.442611,0.0092 -0.866363,-0.771216 -1.271266,-0.385609 -0.489686,-0.330521 -1.195924,-0.440691 -1.412522,-1.037465 -0.395516,-0.192813 -0.932289,-0.220335 -1.26184,-0.605955 -0.395516,0.04591 -1.073536,-0.03675 -1.139453,-0.541683 0.244911,-0.431515 0.527329,-0.798761 0.565019,-1.239455 0.04698,-0.504961 0.470838,-0.642679 0.856919,-0.982379 0.743937,-0.34888 0.301278,-0.633496 -0.225889,-0.927292 -0.489686,0.02766 -1.017024,-0.183611 -0.951099,-0.615138 -0.423743,-0.293791 -0.922864,-0.449875 -1.327737,-0.468234 -0.329687,-0.266239 -0.630945,-0.899753 -1.082962,-0.826303 -0.508498,0.569232 -0.743912,-0.229509 -0.480233,-0.495779 -0.320329,-0.385609 0.0098,-0.88139 -0.59328,-1.156822 -0.32965,-0.486599 -0.188169,-0.89057 0.452016,-0.863026 0.05644,0.238717 0.499081,0.853846 0.932228,0.403972 0.480311,-0.28462 0.969941,-0.523328 0.433206,-1.046648 0.301296,-0.679404 -0.536764,-0.312173 -0.706266,-0.780397 -0.404902,-0.03675 -1.09235,-0.06428 -0.979346,-0.633497 -0.291945,-0.541686 0.254264,-0.927294 0.310643,-1.193549 -0.301294,-0.440691 -0.762757,-0.59677 -1.290096,-0.59677 -0.197837,-0.495782 -0.470862,-0.973199 -0.621509,-1.47816 0.188192,-0.734492 -0.678,-0.165259 -1.017024,-0.0092 -0.442555,0.183608 -0.885161,0.422331 -0.866314,0.954833 -0.04699,0.688587 -0.612122,-0.08262 -1.045268,0.119359 -0.470825,0.293792 -0.762771,0.284619 -1.271275,0.468238 -0.781592,0.01822 -1.572595,-0.284621 -2.354223,-0.385609 -0.536714,-0.192814 -1.073488,-0.100979 -1.591418,0.110182 -0.583841,0.569233 -0.0941,0.605954 0.0941,1.000743 -0.649755,0.468237 1.007599,0.146911 0.348409,0.651858 -0.838094,0.238716 0.188525,0.578412 -0.0941,1.009926 -0.677997,0.486598 0.649755,0.486598 0.433171,1.028284 0.244891,0.302966 0.875761,0.0092 0.819259,0.716126 0.423771,0.06428 1.007588,-0.0092 1.346587,0.394792 -0.02662,0.633496 -0.932251,0.560046 -1.374832,0.817117 -0.753347,0.101003 -0.03767,0.716128 -0.235578,1.120097 -0.02662,0.789578 -0.800425,1.175183 -1.280649,1.726049 -0.612123,0.266271 0.310632,0.771218 -0.47085,0.908932 -0.75336,-0.0092 -0.922865,0.807938 -1.177105,1.349624 -0.216562,0.725312 -0.960534,0.991565 -1.619686,1.230275 -0.310644,0.348879 -0.461427,0.881385 -0.866352,1.184362 -0.207223,0.431513 -0.442593,0.762031 -1.017022,0.762031 -0.546138,-0.128533 -1.026411,0.229544 -1.525493,0.257065 -0.442604,-0.06423 -0.386115,-1.019101 -1.026458,-0.532502 -0.517916,0.238717 -0.470837,0.83548 -0.941663,1.110914 -0.452016,0.293791 -0.715678,0.725307 -0.809835,1.239455 0.03767,0.578405 0.800425,0.49578 1.243017,0.587589 0.527327,0 -0.0098,0.863025 0.02012,1.23027 0.11325,0.449874 0.725091,0.661039 1.177118,0.459056 0.160132,0.725307 0.583829,1.358808 0.885161,2.019846 -0.207211,0.376425 0.150819,0.624315 -0.395489,0.927294 -0.574444,0.376427 -0.546186,-0.495779 -1.073537,-0.220335 -0.565009,0.02766 -0.668565,0.661042 -1.280688,0.348884 -0.58384,-0.302967 -1.308931,-0.0918 -1.949273,-0.183608 -0.320301,0.0918 0.02012,0.96402 -0.800415,0.642682 -0.197885,0.275444 -1.073512,0.394786 -0.602676,0.771211 0.791028,1.05583 2.099961,1.597515 3.408866,1.652601 0.433207,0.211162 1.205363,-0.348881 1.346613,0.07345 -0.282633,0.339702 -0.574431,0.706948 -1.026446,0.844664 -0.687399,0.339704 -1.431335,0.02766 -2.147027,0.110182 0.433207,0.706945 1.130016,1.193549 1.732691,1.753594 0.734537,0.706947 1.516105,1.597513 2.646143,1.569969 0.838072,-0.312173 1.855093,-0.440693 2.467179,-1.156818 0.395502,-0.358067 0.254254,-0.863026 -0.07521,-1.156823 0.06614,-0.495781 0.508493,-0.798758 1.017022,-0.688583 0.35781,0.08262 -0.02662,0.890568 0.188181,1.248632 -0.0098,0.596774 0.291958,1.129281 0.856903,1.404709 0.02012,0.615139 -0.706267,1.009926 -0.725078,1.63424 0.244916,2.506448 0.781568,4.994535 1.459591,7.43671 0.404925,1.505705 1.271277,2.818603 2.034022,4.16823 0.602663,1.092552 0.885172,2.295277 1.261864,3.470461 0.178832,0.789576 0.555585,1.487342 1.054667,2.13002 0.904019,1.551609 1.676176,3.213394 2.062254,4.966989 0.263615,0.449874 0.291982,1.000742 0.762783,1.322083 0.423745,0.293791 0.677999,0.945652 1.233583,0.982376 0.499082,-0.385606 1.412537,-0.504961 1.412537,-1.276172 -0.02662,-0.596777 0.574418,-0.853847 1.082922,-0.95484 0.404922,-0.03674 1.421919,-0.29379 0.612105,-0.59677 -0.17885,-0.376427 0.404894,-0.826303 0.423742,-1.276178 0.0661,-0.670221 0.83808,-0.367247 1.299502,-0.431511 0.141112,-0.762032 -0.169483,-1.569974 -0.160146,-2.350366 0.131717,-1.276177 1.026452,-2.359551 1.252436,-3.608185 0.21653,-0.532501 -0.772163,-0.817118 -0.367261,-1.322079 0.291949,-1.092551 -0.470838,-2.322825 0.141112,-3.369471 0.197865,-0.615134 1.054687,-0.954839 1.582045,-0.514143 0.499054,-0.275445 0.395487,-0.954837 0.847484,-1.276177 0.659171,0.220335 1.440768,-0.03675 1.817435,-0.605955 0.0098,-0.605952 0.329658,-1.129275 0.932278,-1.331262 0.828683,-0.35806 1.610251,-0.835482 2.099949,-1.597514 0.903986,-0.229543 1.412503,-1.028287 1.986937,-1.680143 0.64033,-0.560052 1.073516,-1.441438 2.024588,-1.551609 0.630944,-0.07346 1.233584,-0.293795 1.695017,-0.752854 0.489696,-0.238717 0.499102,-0.716127 0.894589,-1.074191 0.433206,-0.358063 -0.263588,-0.835482 -0.03766,-1.276175 0.706256,-0.596776 1.88338,-0.532507 2.429548,-1.340443 0.386082,-0.578412 0.357827,0.807936 0.828644,0.541682 0.09415,-0.477415 0.687417,-0.945652 0.668615,-0.16526 0.169493,0.550867 0.809833,0.238717 0.781588,-0.238716 -0.272946,-0.964019 -0.461432,-1.955581 -0.706247,-2.937957 0.09406,-0.504963 -0.7157,-0.817122 -0.376676,-1.276177 0.282611,-0.312173 0.668596,-0.927296 0.0098,-1.065012 -0.310664,-0.174432 -1.233624,-0.339698 -0.969959,-0.743669 0.367279,-0.541689 0.960524,-0.826303 1.600865,-0.918113 -0.02009,-0.431511 -0.734522,-0.624317 -1.026422,-0.954837 -0.36727,-0.229509 -1.092356,-0.486598 -0.470876,-0.918113 0.32033,-0.440693 0.77223,-0.569228 1.280719,-0.330521 0.62149,-0.04591 0.913411,0.771218 1.534949,0.560051 0.630916,-0.156088 0.630916,0.523321 0.659151,0.954836 -0.131755,0.605956 0.442606,0.688584 0.922846,0.697765 0.960509,-0.0092 1.921008,-0.07346 2.881535,0.06428 0.395483,0.12853 1.261861,-0.165262 1.243022,0.449869 0.10356,0.541687 -0.169506,1.009928 -0.659185,1.276179 -0.39551,0.486598 -1.261832,0.358064 -1.553756,0.936472 -0.05644,0.449876 -0.141127,0.99156 0.310634,1.285359 0.357869,0.49578 0.82869,0.65186 0.922858,-0.08262 0.122445,-0.477418 0.282596,-1.019102 0.913402,-0.918112 0.08462,1.101735 0.602685,2.13002 0.687461,3.231754 0.235222,0.100979 0.555579,0.110182 0.790984,0.284619 z"
       style="stroke-width:0.329464;stroke-dasharray:none"
       sodipodi:insensitive="true" />
    <path
       id="Bangladesh"
       fill="none"
       stroke="#000000"
       stroke-width="1"
       d="m 93.170789,50.923369 c -0.122445,-1.14764 -0.244908,-2.286098 -0.602704,-3.387832 -0.207184,-0.385607 -0.10356,-1.129279 -0.386082,-1.312903 -0.677995,-0.07345 -0.659156,0.688587 -0.866322,1.120098 -0.16016,0.73449 -0.668586,0.02766 -0.969938,-0.257065 -0.338993,-0.302968 -0.254226,-0.872206 -0.131726,-1.266993 0.423769,-0.459058 1.195924,-0.403971 1.610265,-0.918113 0.546176,-0.257064 0.612086,-0.863027 0.527328,-1.38635 -0.329637,-0.358062 -0.998159,-0.146911 -1.469007,-0.266272 -1.016999,-0.192812 -2.062275,0.07346 -3.079273,-0.100979 -0.640359,0.03675 -0.404922,-0.706947 -0.527329,-1.101734 0.07532,-0.679405 -0.678019,-0.422334 -1.064101,-0.504963 -0.461413,-0.459053 -1.073536,-0.569229 -1.695027,-0.688584 -0.357865,0.119358 -0.904043,0.541686 -0.89458,0.945658 0.574405,0.339699 1.167659,0.762031 1.704432,1.202723 0.08464,0.440695 -0.894608,0.220337 -1.120611,0.633497 -0.367232,0.293793 -0.83807,0.743672 -0.131746,0.954837 0.348449,0.211163 1.186509,0.238717 0.988779,0.80794 -0.310615,0.385608 -0.687435,0.881388 -0.141083,1.257813 0.310644,0.964019 0.480243,2.001488 0.734501,2.993046 -0.02009,0.413152 0.499074,1.046646 0.734493,0.403971 0.291958,-0.64268 0.461432,0.762031 0.922854,-0.03674 0.0098,-0.771213 0.357836,-0.569232 0.621531,-0.0092 0.395484,0.642677 0.423742,-0.615136 0.941651,-0.431514 0.517919,-0.266238 0.03766,-0.918109 -0.131735,-1.285354 -0.141091,-0.670223 0.414349,-0.716128 0.583874,-0.101004 0.225867,0.468241 0.743896,0.39479 1.129969,0.119359 0.50849,-0.247891 0.677996,0.615137 0.87576,0.954838 0.44259,0.771212 0.32032,1.716868 0.847529,2.460542 0.207212,-0.394792 0.640346,-0.550867 0.988731,-0.798759 z"
       style="stroke-width:0.329464;stroke-dasharray:none"
       sodipodi:insensitive="true" />
    <path
       id="Indonesia"
       fill="none"
       stroke="#000000"
       stroke-width="1"
       d="m 194.19398,100.26269 c -1.72323,-0.477407 -3.39,-1.110904 -5.0097,-1.854568 -0.62149,-0.17436 -1.2901,-0.844637 -1.92102,-0.35807 -0.41433,0.26643 -1.13003,0.403977 -0.95109,1.019104 -0.47082,0.3397 -1.16769,0.35808 -1.7421,0.422327 -0.48968,0.633477 -0.80042,1.413877 -1.41251,1.946397 -0.56501,0.61513 -1.79864,0.29375 -1.8551,-0.56925 -0.0847,-0.6151 -0.41437,-1.028237 -0.53677,-0.1929 -0.58387,-0.30287 -0.59326,-1.037457 -0.75335,-1.588354 -0.35782,-0.403937 -0.16016,-0.881374 0.0377,-1.312871 0.0847,-0.39479 -0.2449,-0.964032 -0.54617,-1.184363 -1.20533,-0.0261 -2.15645,-0.918111 -3.34294,-0.954841 -0.63092,0.385594 -1.23359,0.945668 -2.0152,1.000741 -0.25426,0.08258 -0.2072,1.000733 -0.37667,1.074193 0.6121,0.10116 1.62912,-0.0644 1.71387,0.771204 0.01,0.624327 0.64975,0.982367 1.2336,0.908937 0.76275,-0.01 1.53494,0.0644 2.27883,-0.0644 0.57444,-0.523337 0.6686,0.247887 0.48028,0.679414 -0.37667,0.18348 -1.0641,0.28465 -1.36547,-0.101167 -0.45199,-0.0917 -0.70624,0.642687 -1.14883,0.661037 -0.3861,-0.13762 -1.07351,-0.50496 -1.32776,-0.11941 0.01,0.44988 0.78162,0.36726 1.08295,0.71615 0.339,0.19292 0.8946,0.62432 0.69683,1.00074 -0.58387,0.17437 -0.0565,0.95484 0.22589,1.07419 0.57442,-0.21113 1.10176,-0.58762 1.1677,-1.23028 -0.01,-0.29376 0.32965,-1.26701 0.63089,-0.7345 -0.37664,0.76206 0.42376,1.56081 1.21478,1.58837 0.43314,-0.17438 1.07348,-0.11946 0.7816,0.49578 0.51793,0.26608 1.07351,0.52329 1.66677,0.56001 1.29949,0.33052 2.60842,0.70694 3.87027,1.14764 0.94168,0.38561 1.29954,1.34962 1.83628,2.12084 0.16952,0.61515 0.59325,1.07419 1.14883,1.37717 0.80985,0.49577 -0.21655,0.38562 -0.40488,0.4866 0.17884,0.46823 0.59324,0.88138 0.98875,1.21189 0.25424,0.44989 -0.48024,0.7804 -0.44258,1.26702 0.74392,0.0735 1.47844,-0.32142 2.22234,-0.15615 0.44259,0.60596 0.97935,1.13846 1.54435,1.64342 0.48028,0.64269 0.55563,0.3214 0.4897,-0.32143 -0.0661,-1.24861 0.22587,-2.55231 -0.22591,-3.74586 -0.32032,-0.48661 -0.0753,-0.93648 0.21654,-1.3772 -0.0565,-2.43297 -0.10356,-4.87514 -0.16016,-7.30814 z m -21.21597,1.48737 c -0.32029,-0.76205 -1.17709,-0.93649 -1.92102,-1.0742 -0.51792,-0.23878 -0.86635,0.33052 -1.36544,0.28464 -0.47083,-0.39479 -1.09235,-0.26642 -1.66677,-0.33972 -0.6309,-0.20202 -0.80043,0.36726 -0.3484,0.73451 0.23523,0.70694 0.70624,0.22967 1.09232,-0.0261 0.51793,-0.33053 0.71566,0.44985 1.2901,0.44985 0.73452,0.51417 0.21656,-0.56922 0.83809,-0.43151 0.78161,0.21114 1.30893,1.06502 2.18468,1.12929 0.0942,-0.23879 -0.0469,-0.4866 -0.10355,-0.72531 z m -7.54283,0.27554 c -0.0565,-0.38561 -0.55559,-0.69775 -0.89459,-0.86301 -0.45202,0.0917 -1.18653,-0.1285 -1.37487,0.38561 0.19784,0.50495 0.73453,0.88137 1.28068,0.9181 0.27291,-0.15615 0.88517,-0.12844 0.98878,-0.4407 z m 23.37243,9.96151 c 0.2826,-0.41314 0.7816,-0.64266 0.9888,-1.09254 0.46141,-0.4407 0.0266,-0.78038 -0.42378,-0.99157 -0.83811,0.0459 -1.243,0.88139 -1.61966,1.48736 -0.61212,0.60593 0.37666,0.48661 0.80036,0.62431 0.0847,-0.01 0.16951,-0.0195 0.25428,-0.0261 z m -32.19597,-0.68856 c -0.55558,-0.41315 -0.47082,-0.0917 -0.43316,0.19292 -0.57443,0.16525 -0.62152,0.55089 -1.05467,0.66104 -0.41436,-0.14705 -0.93227,-0.14705 -1.36544,-0.0195 -0.3861,0.55085 -0.8381,-0.0826 -1.27128,-0.18349 -0.70624,-0.37641 -1.53495,-0.33969 -2.21297,0.0644 -0.27327,0.44988 0.17886,0.96402 0.7157,0.75285 0.64033,-0.11945 1.21477,0.36724 1.83629,0.21113 0.35783,-0.46823 0.89459,0.0644 1.31833,-0.12857 0.38609,-0.33052 0.90402,-0.17438 1.33718,-0.49579 0.6686,-0.0735 0.62152,-0.54167 1.20537,-0.70694 -0.0266,-0.1009 0.0377,-0.2661 -0.0754,-0.34887 z m -10.49029,1.00073 c -0.29194,0.5692 -0.76275,-0.0826 -1.02645,-0.22024 -0.48964,-0.0368 -0.97934,-0.22023 -1.38425,0.12845 -0.19783,0.20201 -0.39551,0.86299 0.10356,1.00989 0.46143,0.0549 0.90399,-0.01 1.34659,-0.1103 0.44258,-0.25701 1.02646,-0.12844 1.32776,-0.4774 0.51794,-0.60597 0.16018,0.48658 0.8852,0.0549 0.28261,-0.3123 0.74391,-0.13757 0.99818,-0.12858 -0.0942,-0.33968 -0.16951,-0.7253 -0.58387,-0.89058 -0.47084,0.31231 -0.44259,0.56007 -0.58381,-0.11943 -0.52737,0.0195 -0.72508,-0.0917 -1.11121,-0.32141 -0.64033,0.01 -0.47082,0.79874 0.10355,0.76201 0.36726,0.0917 0.3013,0.38562 -0.0754,0.3123 z m -5.78193,0.026 c 0.32033,-0.39477 1.12064,-0.4774 0.25427,-0.76203 -0.50851,-0.47743 -1.1112,0.0735 -1.67618,-0.01 0.19787,0.51413 0.91342,0.53252 1.28069,0.91813 0.047,-0.046 0.0941,-0.1009 0.14109,-0.14705 z M 115.90287,93.972331 c -0.55559,-0.661038 -1.48785,-0.413151 -2.19407,-0.752839 -0.81929,-0.339728 -0.60271,-1.57918 -1.54437,-1.771964 -0.68743,0.04585 -0.98877,-0.651867 -1.28069,-1.138475 -0.77216,-0.523302 -0.24491,0.348901 -0.60265,0.43153 -0.5556,-0.247888 -0.92287,-0.844681 -1.30895,-1.303733 -0.6592,0.0098 -0.55559,-0.385605 -0.68741,-0.890564 -0.96055,-0.541688 -2.01522,-1.028285 -2.87213,-1.753595 -0.51792,-0.293793 -0.68744,-0.642678 -0.57443,-1.175182 -0.62151,-0.257065 -0.91343,-0.872208 -1.34659,-1.340444 -0.32031,-0.532507 -0.91345,-0.156086 -1.37487,-0.0918 -0.75331,0.05505 -1.65735,-0.01822 -2.184677,-0.624317 -0.30129,-0.330519 -1.17711,-0.605956 -1.33718,-0.03674 0.14109,1.221093 1.06408,2.194289 1.958697,2.993046 0.32032,0.449876 0.67801,0.752852 1.24299,0.486601 0.53679,0.725304 1.51612,1.211908 1.67618,2.14838 -0.0376,0.523326 0.16016,0.954825 0.73454,1.009936 0.64975,0.302866 1.45017,0.62431 1.75152,1.3037 -0.0752,0.587585 0.35781,1.147647 0.51788,1.726061 0.19787,0.477409 0.2356,1.065021 0.85695,1.156823 1.29013,0.826305 1.90218,2.295263 2.69321,3.543917 0.21655,0.43151 0.29196,0.881377 0.32032,1.358764 0.64034,0.881424 1.30894,1.854604 2.3071,2.405494 0.66861,0.20202 0.61212,0.99152 1.10176,1.37715 1.34661,0.90894 2.61789,1.93721 3.70079,3.13995 0.27292,0.15614 0.72513,1.08337 0.90403,0.54169 -0.46144,-0.50496 -0.28262,-0.9824 0.32968,-0.44988 0.50849,0.52333 0.59324,0.0368 0.82866,-0.39482 0.47083,0.0368 0.56502,0.8722 1.04526,0.72532 0.3013,-0.79873 0.2259,-1.69852 0.18818,-2.53396 -0.339,-0.74369 -0.0469,-1.50573 0.15083,-2.23103 0.31063,-0.55088 0.0941,-0.95482 -0.40495,-1.27617 -0.13173,-0.41316 -0.3955,-0.798757 -0.90398,-0.817127 -0.48969,-0.495777 -0.97936,0.523327 -1.29008,0.0735 0.16014,-0.403957 0.76274,-1.055834 -0.0847,-0.890564 -0.63094,-0.29377 -0.38609,-1.046634 -0.56503,-1.57915 -0.0753,-0.716114 -0.92283,-0.312296 -1.33719,-0.615148 -0.32964,-0.183467 -1.13942,-0.596748 -0.70625,-0.982343 0.28262,-0.367243 0.6215,-0.743675 0.81924,-1.147648 -0.02,-0.229678 -0.38608,-0.422323 -0.52731,-0.624305 z m 50.57754,0.624324 c 0,0 0,0.06436 0,0.06436 -0.11324,0.504983 0.25426,0.863027 0.55559,1.221108 0.23558,0.220227 1.02646,1.120089 0.90405,0.449867 -0.52739,-0.523327 -0.91346,-1.156812 -0.95113,-1.891316 -0.15081,-0.532504 0.4332,-0.780396 0.85696,-0.532504 0.45199,0.128504 1.10177,0.440702 0.74392,-0.229679 -0.27294,-0.275538 -1.26188,-0.202012 -0.74392,-0.716144 0.43315,-0.302871 0.92282,-0.477401 0.64975,-1.064987 0.047,-0.596789 -0.76277,0.0735 -1.02643,0.220238 -0.0265,0.367249 -0.46141,1.083368 -0.80983,0.853856 -0.17886,-0.605966 0.50849,-1.046669 0.56498,-1.625081 -0.16017,-0.578413 -0.51791,-0.798746 -0.74394,-0.110281 -0.24491,0.514131 -0.64033,1.19352 -0.22588,1.716854 -0.3861,0.560061 0.18817,1.074189 0.22588,1.643431 z m -43.96696,5.471915 c -0.88515,-0.247877 -1.34658,-1.129261 -1.53491,-1.955558 -0.20722,-0.743657 -0.43316,0.973184 -0.7345,0.17437 -0.28262,-0.587577 -0.82869,0.459047 -0.59327,0.706944 0.56499,-0.137617 1.1771,0.24789 1.31834,0.789577 -0.0469,0.780387 0.82868,0.982377 1.40313,1.248617 -0.23526,-0.37643 -0.16017,-0.79874 0.14109,-0.96402 z m -0.78156,8.80471 c 0.74391,0.0644 0.565,0.46822 0.1508,0.84464 0.83813,0.40397 1.92104,-0.1009 2.66496,0.55088 0.60269,0.32143 1.45959,0.46823 2.05286,0.0368 1.03584,-0.13757 2.07169,0.28465 3.06045,0.55086 0.76275,0.5325 1.6762,0.75286 2.59903,0.77123 0.90405,0.0261 1.80803,0.26611 2.70261,0.19291 0.8946,-0.59676 1.83626,0.12843 2.73086,0.34891 0.41434,0.01 1.29953,0.58758 0.65919,-0.0826 -0.52737,-0.35809 0.0661,-0.86305 0.10356,-1.26702 -0.32967,-0.34886 -0.98875,-0.38559 -1.42193,-0.11944 -0.69685,0.026 -1.48786,-0.1009 -2.00579,-0.56003 -0.35782,-0.37646 0.047,-0.90892 -0.55558,-1.13847 -0.62151,-0.32141 -1.40308,-0.28465 -2.09993,-0.34886 -0.60269,0.0644 -0.73454,-0.43154 -1.08293,-0.76207 -0.565,-0.13758 -0.78159,0.42233 -0.87577,0.85386 -0.80985,0.43151 -1.77034,-0.0735 -2.62727,0.11945 -0.36726,-0.35808 -1.1865,0.1103 -1.30893,-0.43154 -0.15083,-0.36726 -0.4991,-1.08336 -0.98879,-0.79874 -0.49905,0.22967 -0.83807,-0.14705 -1.243,-0.28467 -0.19786,-0.26609 -1.07351,-0.64266 -1.07351,-0.27553 -0.29195,0.70698 -0.75336,0.0826 -1.06408,-0.0261 -0.42375,0.20203 -1.06412,-0.46826 -1.1583,0.1009 -0.14108,0.59677 -0.37664,0.4866 -0.48024,1.02827 0.02,0.60599 -1.17711,-0.1103 -0.96052,0.39482 0.74394,0.0549 1.4973,0.11029 2.22239,0.30287 z m 36.90434,6.64713 c 0.66861,-0.0917 1.15828,-0.56006 1.64794,-0.98239 1.06409,-1.12009 2.71205,-1.19356 4.05865,-1.80868 0.35783,-0.15617 1.20534,-0.36724 1.01704,-0.81712 -0.4426,-0.11946 -0.95111,0.14703 -1.4314,0.1103 -0.90398,0.33052 -1.89273,0.11945 -2.78733,0.43152 -0.44263,1.11091 -1.83629,1.13845 -2.6838,1.79951 -0.61209,0.2661 -0.21654,1.00988 -0.64035,1.42305 0.30129,0.01 0.55558,-0.0196 0.81925,-0.15616 z m -6.94014,-0.28466 c -0.0565,-0.52332 -0.77218,-0.70694 -1.15826,-1.01912 -0.34846,-0.44986 -0.79103,-0.28464 -1.29012,-0.24788 -0.35782,-0.0917 -1.44078,0.16526 -0.76275,0.52332 0.9982,0.1194 1.7421,0.85384 2.61785,1.23947 0.29197,0 0.52734,-0.22024 0.59328,-0.49579 z m -7.17558,-29.15004 c -0.78162,-0.02766 -1.55379,-0.05507 -2.32596,-0.165259 -0.60266,-0.137705 -0.94169,0.459057 -1.07351,0.936474 -0.22588,0.541685 0.36724,1.413894 -0.38606,1.661783 -0.62155,0.06428 -0.6592,0.67022 -0.52737,1.147652 -0.3955,0.578411 -0.56499,1.349605 -1.11119,1.808655 -0.57443,0.284652 -1.34661,0.211133 -1.81745,0.743674 -0.80041,0.09173 -1.45958,-0.523304 -2.22234,-0.642661 -0.87575,-0.026 -1.10177,0.982387 -1.82684,1.266973 -0.59326,0.468261 -1.2148,-0.376421 -1.80803,-0.06441 -0.49912,0.385597 -0.89461,0.192914 -1.3937,-0.03676 -0.48968,-0.53251 -1.20532,-0.927278 -1.36542,-1.670951 -0.21655,-0.670249 -0.83811,-0.229672 -0.83811,0.312302 -0.36722,0.523336 -0.81925,1.156822 -0.65915,1.827038 -0.0377,0.52334 0.0847,0.807962 0.46142,1.166024 0.48025,0.376423 -0.29197,0.964008 0.26359,1.276151 0.90399,0.302872 -0.0566,0.495782 0.11325,0.807952 0.64975,0.256996 1.22414,0.688595 1.42191,1.377158 0.0564,0.863024 0.3484,1.716888 0.33901,2.589075 -0.12245,0.7804 0.60265,0.10086 1.01702,0.22936 0.38607,0.33051 0.77215,0.40396 1.32773,0.11027 0.53677,0.0368 0.8758,-0.927277 0.94172,-0.0261 0.27328,0.3489 -0.0377,1.05584 0.27328,1.23945 0.4237,-0.055 0.69681,-0.70696 1.21474,-0.41316 0.62153,0.18349 0.66858,-0.61513 0.91346,-0.93645 0.46141,0.14706 0.63092,0.67022 1.15822,0.69776 0.35782,0.23879 0.64033,0.9732 1.05471,0.32143 0.30129,-0.54168 0.88516,-0.0735 1.06408,0.3214 0.31999,0.42234 0.1505,0.95484 0.44257,1.34964 0.81928,-0.57841 1.97753,-0.67941 2.56141,-1.54245 0.12257,-0.57841 0.60264,-0.95483 0.89457,-1.43223 0.19787,-0.440687 -0.86636,-0.936484 0.0752,-0.844677 0.32031,-0.119407 -0.28262,-0.881364 -0.40495,-1.037454 0.6686,-0.376417 0.94167,-1.110914 1.54437,-1.551595 0.25426,-0.651867 0.92282,-0.156148 1.18653,-0.44069 0.29195,-0.670226 -0.25424,-1.32209 -0.0661,-1.992315 0.15079,-0.615134 0.3203,-1.432259 0.98873,-1.661768 0.63093,0.09174 1.34662,0.403976 1.97752,0.06441 -0.33902,-0.504955 -0.7345,-0.973182 -1.28069,-1.266971 -0.42376,-0.238783 -1.19591,-0.688598 -0.81924,-1.230281 0.46142,-0.514127 -0.23558,-0.94566 -0.46142,-1.38635 -0.0661,-0.477418 -0.91343,-0.679403 -0.73452,-1.046648 -0.17884,-0.514145 -0.23557,-0.66104 0.48023,-0.642681 0.78164,0.101017 0.35788,-0.486595 0.29199,-0.872206 -0.28263,-0.137707 -0.59326,-0.229511 -0.88518,-0.348882 z m 5.18862,9.153564 c -0.28261,0.367253 0.30131,1.221105 -0.37667,1.147649 -0.35782,0.348898 -0.55558,0.991562 -0.46142,1.514899 0.18819,0.642667 -0.11326,1.230244 -0.48023,1.735221 -0.32969,0.367247 -0.81927,0.752837 -0.53679,1.294527 0.24491,0.36725 -0.14108,1.27617 0.49908,1.08336 0.43319,-0.22935 1.07351,-0.15615 1.01703,0.45906 0.14112,0.66104 0.0847,1.34046 0.02,2.01068 0.11326,0.50494 -0.46142,0.9181 -0.27293,1.37716 0.047,0.61513 0.66858,0.60596 1.08295,0.32141 0.48023,-0.16527 1.12057,-0.14704 0.57441,-0.74366 0.0266,-0.48663 0.65916,-0.8814 0.26358,-1.37718 -0.50851,-0.7345 0.22589,-1.55162 0.02,-2.3412 0.0267,-0.47739 -0.49911,-0.97317 0.16016,-1.20271 0.339,-0.24789 1.03587,-0.3856 1.28069,-0.0549 0.27327,0.4774 -0.11324,0.93646 -0.29198,1.3496 0.13173,0.51416 0.80983,0.71616 1.14886,1.1201 0.60265,0.26643 -0.0377,0.8355 0.0846,1.31291 0.0201,0.37642 0.93226,0.6243 1.05469,0.257 0.047,-0.68858 0.80985,-0.88138 1.3937,-0.76202 0.59325,-0.13757 -0.2072,-0.75286 -0.47084,-0.96401 -0.57443,-0.41316 -0.37668,-1.11093 -0.17887,-1.67098 -0.35785,-0.4774 -0.64974,-1.00073 -1.07348,-1.432237 -0.2636,-0.376457 -0.81927,-0.587617 -1.01701,-0.954864 -0.0266,-0.514127 0.94166,0.339727 1.02642,-0.385577 0.65916,-0.22024 1.31834,-0.514137 1.66676,-1.138445 0.27294,-0.505 0.92286,-0.495791 1.32774,-0.165267 0.25427,-0.174367 0.19787,-1.028283 -0.4143,-1.009937 -0.41435,0.147039 -0.71568,0.504955 -1.23361,0.495773 -0.50849,0.02611 -0.9417,0.541683 -1.44075,0.192912 -0.53677,-0.422326 -0.76278,0.275542 -1.02644,0.624321 -0.20724,0.523336 -0.77218,0.376416 -1.22419,0.339686 -0.47087,-0.15614 -0.31063,-0.872205 -0.86634,-0.98238 -0.84752,-0.385598 -0.8381,-1.505686 -0.34842,-2.16673 0.27327,-0.771234 1.19592,-0.899763 1.92102,-0.771234 0.84749,0.02606 1.70441,0.01952 2.55194,0.0098 0.60269,0 1.28067,-0.100853 1.81743,0.137619 0.68743,0.661036 1.65735,0.137601 2.46721,0.04586 0.60271,-0.57841 1.16768,-1.230279 1.54437,-1.964744 0.2636,-0.431532 -0.0469,-1.166031 -0.42377,-0.495782 -0.48027,0.302868 -0.63093,0.624314 -0.64979,1.055811 -0.85689,0.789576 -2.10932,0.376424 -3.14519,0.468227 -0.52733,0.367248 -1.07351,-0.100856 -1.61966,-0.220238 -0.59328,0.01952 -1.28068,0.17437 -1.71385,-0.330521 -0.38608,-0.266109 -1.22418,-0.495782 -1.43137,0.08262 -0.19787,0.394804 -0.51791,1.009942 -0.91341,0.413153 -0.73452,0.247889 -0.89461,1.019124 -1.14888,1.643429 -0.0565,0.202019 -0.10355,0.431504 -0.16016,0.642665 z"
       style="stroke-width:0.329464;stroke-dasharray:none"
       sodipodi:insensitive="true" />
    <path
       id="Laos"
       fill="none"
       stroke="#000000"
       stroke-width="1"
       d="m 119.66018,65.704975 c 0.55558,0.11936 1.11116,0.293792 1.61029,0.504959 0.7345,-0.192812 -0.57445,-0.826299 0.11325,-1.055826 0.39549,-0.376427 0.96995,-0.247891 1.29009,0.16526 0.44261,0.08262 0.94166,-0.321347 1.38428,-0.468237 0.23523,-0.495779 0.32033,-1.230271 -0.01,-1.744412 -0.27328,-0.312172 -0.86635,-0.642682 -0.42374,-1.101735 0.0661,-0.752851 -1.0076,-0.81712 -1.34663,-1.367989 -0.56499,-0.76203 -1.08287,-1.56079 -1.72323,-2.267735 -0.94172,-1.211907 -2.02461,-2.359549 -3.43713,-3.038953 -0.58386,-0.16526 -0.33901,-1.028285 0.21656,-1.055827 0.56499,0.229509 1.34656,-0.211163 1.19593,-0.844664 -0.32968,-0.550868 -0.9417,-0.982381 -1.23362,-1.588333 -0.66859,-0.3397 -0.97933,0.936473 -1.64795,0.459055 -0.80982,-0.266272 -1.05467,-1.083372 -1.29953,-1.7995 -0.39549,-0.725309 -1.25239,-1.120098 -1.57258,-1.918854 -0.45202,0.165262 -1.12059,0.449877 -0.84751,1.037469 0.0753,0.495776 0.70627,1.092551 0.17885,1.533244 -0.40491,0.211163 -1.04523,0.0459 -1.32777,-0.339702 -0.60266,0.330523 -0.97932,0.927295 -1.41251,1.432254 -0.36725,0.275446 -1.05467,0.670224 -0.19787,0.725312 0.791,0.312174 0.13173,1.202724 0.35784,1.790316 0.42375,0.40397 0.94168,-0.137708 1.43134,-0.0918 0.11326,0.468234 0.26361,0.964017 0.24492,1.450619 -0.14109,0.899746 -0.82869,1.762772 -0.61212,2.680887 0.32969,0.569229 0.80987,0.02766 1.08296,-0.321348 0.43317,-0.293793 0.76276,-1.101733 1.38426,-0.826299 0.5085,0.10098 1.00758,0.670223 1.51612,0.367242 0.56502,-0.0918 0.48025,-0.743667 0.8381,-1.08337 0.49907,0.01821 1.0264,0.08262 1.46903,0.33052 0.0565,0.651859 0.64974,1.009922 1.04523,1.468978 0.61211,0.56005 0.19786,1.432258 0.46142,2.120839 0.5085,1.166002 1.92103,2.010666 1.72329,3.415379 0.12245,0.605951 -0.45201,0.918112 -0.86637,1.23027 0.12258,0.07346 0.2826,0.137707 0.41436,0.201989 z"
       style="stroke-width:0.329464;stroke-dasharray:none"
       sodipodi:insensitive="true" />
    <path
       id="Malaysia"
       fill="none"
       stroke="#000000"
       stroke-width="1"
       d="m 112.72002,82.442158 c -0.46143,0.257065 -0.22589,0.973196 -0.97936,0.798758 0.12258,-0.65186 -0.58385,-0.679402 -0.74391,-0.10098 -0.60269,0.3397 -0.13173,-0.55087 -0.2636,-0.844667 -0.28261,-0.367243 -0.79101,-0.449873 -0.90402,-0.83548 -0.44257,-0.06428 -1.11117,0.128532 -0.82865,0.688584 0.30129,0.798759 0.19784,1.735232 0.64973,2.478901 0.51792,0.541688 0.0267,1.28536 0.37668,1.891311 0.48024,0.578413 1.31835,1.037469 1.3466,1.88213 -0.047,0.716127 0.70624,0.963997 1.17712,1.349626 1.10172,0.587582 2.23176,1.175169 3.2017,1.964741 0.50848,-0.128501 1.10176,-0.100856 1.64795,0.0098 -0.35788,-0.688564 -0.58388,-1.450616 -1.04531,-2.084103 -0.62146,-0.394802 -0.90398,-1.138444 -0.70622,-1.836212 -0.19786,-0.973197 0.21653,-1.918854 0.0267,-2.892052 -0.25425,-0.679402 -0.81929,-1.239453 -1.26187,-1.817862 -0.44261,-0.413149 -0.73451,-1.08337 -1.41251,-1.092556 -0.0565,0.192816 -0.0661,0.358066 -0.28261,0.440697 z m 16.77131,9.787089 c 0.3203,0.440673 0.80039,0.578411 1.24299,0.853823 0.46143,-0.174369 0.96995,-0.596758 1.45959,-0.24789 0.61213,0.348901 1.31833,-0.02601 1.71388,-0.523302 0.3484,-0.560065 1.06409,-0.954867 1.69501,-0.569239 0.57441,0.183479 1.27128,0.752846 1.84569,0.358044 0.58384,-0.596761 1.77976,-0.21113 2.06228,-1.129268 0.2636,-0.624315 0.87575,-1.19355 0.63092,-1.909669 0.0266,-0.596771 0.91341,-0.403971 1.01702,-0.973196 -0.15081,-0.697768 -0.13173,-1.441438 0.36723,-2.010668 0.56503,-0.348881 1.28069,-0.02766 1.90221,-0.01821 0.68741,-0.05506 1.37483,0.03674 1.97753,0.385607 0.32966,-0.403968 1.0641,-0.174433 1.51609,-0.486601 0.55559,-0.394789 -0.36723,-0.66104 -0.6121,-0.954836 -0.25425,-0.596773 0.64974,-0.504962 1.02644,-0.449876 0.452,0.03674 1.35602,-0.183608 1.08294,-0.762033 -0.63094,-0.128533 -1.06407,-0.872207 -1.73269,-0.74367 -0.6215,0.146911 -1.02644,0.211161 -0.56501,-0.385608 -0.17883,-0.413151 -1.06411,0.413152 -1.14886,-0.0918 0.16952,-0.348883 0.68743,-0.964019 0.0941,-1.175183 -0.48966,-0.01822 -0.65915,-1.110918 -0.9699,-0.523327 -0.40493,0.514146 -0.72509,-0.918111 -0.88516,-0.01822 -0.20724,0.679401 -0.80985,1.092552 -1.13006,1.707687 -0.59323,0.110182 -0.26358,1.065011 -0.93225,0.807939 -0.69682,-0.100979 -0.78156,0.578411 -0.21655,0.817121 0.1411,0.624316 -0.71568,0.468237 -0.95107,0.440693 0.32963,0.348882 0.0658,0.844661 0.4049,1.138458 -0.50851,0.201988 -1.09234,0.266271 -1.52554,0.633497 -0.33898,-0.394788 -0.64033,-0.440693 -0.75331,-0.927294 -0.61209,0.293793 -0.92285,0.927294 -1.356,1.413893 -0.57446,0.192816 -0.7251,0.762034 -0.98878,1.230269 -0.90402,0.734492 -2.22237,0.569231 -3.22997,1.101741 -0.34841,0.431498 -0.43317,1.083367 -0.791,1.542418 -0.35786,0.431498 -0.31062,0.908933 0.18818,1.202726 -0.78158,0.348901 -1.33717,-0.633488 -2.12821,-0.532511 -0.51792,0.03677 -0.9134,-0.238782 -1.22413,-0.587582 0.14108,0.587582 0.44256,1.019115 0.9134,1.386364 z"
       style="stroke-width:0.329464;stroke-dasharray:none"
       sodipodi:insensitive="true" />
    <path
       id="Myanmar"
       fill="none"
       stroke="#000000"
       stroke-width="1"
       d="m 93.076612,50.198061 c 0.235221,0.58759 -0.02661,0.945657 -0.593266,1.175181 -0.612078,0.330523 0.0098,0.798761 0.282614,1.138463 0.254236,0.486598 0.89459,0.24789 1.101774,0.615133 -0.291978,0.532504 0.348404,0.72531 0.762763,0.56923 0.357839,0.257065 0.772152,0.642679 0.932252,1.055828 0.527362,0.651862 -0.470837,0.486602 -0.50849,0.743674 0.461402,0.642675 0.885151,0.08262 1.073523,0.0459 0.338999,0.716124 0.706242,1.478159 0.875733,2.249375 0.197861,1.101733 0.04704,2.212652 -0.433158,3.231755 -0.197861,0.302967 -0.329663,1.175183 0.235568,0.92729 0.15081,-0.247888 1.148837,-0.69776 0.969919,-0.21116 -0.348408,0.57841 0.517935,0.65186 0.715697,0.183642 0.207192,0.128531 0.329672,1.055826 0.800435,0.312138 0.235547,-0.440696 0.517897,-0.807937 1.045234,-0.927292 0.68741,-0.275445 1.59143,-0.661042 1.51609,-1.542429 -0.15046,-0.743672 0.48027,-0.651863 0.7251,-0.0918 0.49911,0.367247 0.24491,1.322081 1.0076,1.340444 0.19786,1.147638 0.23525,2.332005 0.47084,3.488828 0.27293,0.826301 0.60267,1.6526 0.96049,2.442179 0.63092,0.899746 0.79101,1.973942 0.87577,3.029768 -0.29195,0.41315 -0.25425,1.000742 0.39548,0.8263 -0.48024,0.532505 -0.23556,1.349627 -0.74389,1.872948 -0.31999,0.293793 -0.35786,1.046647 0.094,1.202727 0.19789,-0.211162 0.42376,-0.8263 0.69685,-1.166001 0.42374,-0.835483 1.1206,-1.533246 1.45018,-2.405452 -0.35784,-0.798759 -0.87575,-1.579155 -1.01701,-2.442182 0.19786,-0.780394 0,-1.66178 -0.70626,-2.130016 -0.5085,-0.321348 -0.75334,-0.817123 -0.94167,-1.367989 -0.22589,-0.468237 -0.56501,-0.945659 0.1882,-1.074194 0.64974,-0.183606 0.19787,-0.853841 0.17884,-1.303717 -0.0377,-0.468236 1.06407,-0.477416 0.5556,-1.028283 -0.37671,-0.477422 -0.5556,-1.101736 -1.01702,-1.487345 -0.30133,-0.376425 -0.93228,-0.560045 -1.02644,-1.009921 0.0469,-0.587593 -0.34843,-1.009924 -0.72508,-1.423074 -0.13174,-0.293793 1.0829,-0.119361 0.62149,-0.835482 0.21656,-0.651861 -0.0565,-1.478159 0.6121,-1.937216 0.54616,0.137708 1.12059,0.08262 1.64792,-0.119359 0.59325,0.0092 0.60269,-0.734492 1.13002,-0.881387 0.40493,-0.385612 1.07351,-0.110182 1.44077,-0.504963 0.52731,-0.358066 0.92287,-0.8263 1.30895,-1.312904 0.24491,-0.42233 1.01701,-0.523321 0.54616,-1.046647 -0.19786,-0.284618 -0.79101,0.468235 -1.25244,0.367245 -0.69683,-0.10098 -0.71569,-0.863026 -1.13,-1.285358 -0.33901,-0.192814 -1.18651,0.266271 -1.28072,-0.35806 0.0754,-0.468238 0.41437,-0.918113 0.59325,-1.38635 0.31067,-0.578411 -0.61204,-0.495781 -0.96987,-0.413152 -0.32968,-0.376424 -0.24492,-0.899752 -0.36728,-1.349625 0.0941,-0.605953 -0.37666,-0.81712 -0.91343,-0.642679 -0.65916,-0.10098 -1.12999,0.679403 -1.77033,0.477418 0.047,-0.486598 0.339,-0.927292 0.0661,-1.423073 -0.23526,-0.541684 0.33899,-0.927293 0.63093,-1.331261 0.63087,-0.348885 1.22415,-0.807943 1.50666,-1.487343 0.50849,-0.789577 0.27294,-1.71687 0.17883,-2.589076 0.12245,-0.679404 -0.46142,-0.605953 -0.94165,-0.624318 -0.42376,-0.468237 -0.26359,-1.266992 -0.92285,-1.56997 -0.34843,-0.394788 -0.99818,-0.07345 -0.91343,0.413153 0.1882,0.716125 -1.02644,0.899746 -0.67801,1.606696 0.36722,0.716124 -0.61209,0.3397 -0.97933,0.247889 -0.65919,-0.26624 -1.13003,0.302964 -1.647947,0.59677 -0.451997,0.385609 -1.337196,0.514147 -1.384275,1.175184 0.188185,0.605957 -0.178845,1.1201 -0.593267,1.524067 -0.508508,0.330522 -0.376679,0.771215 -0.235233,1.230269 -0.282611,0.734492 -0.734486,1.423074 -1.082922,2.148386 -0.461419,0.312174 -1.035851,-0.146912 -1.506689,-0.26627 -0.404925,0.174433 -0.06571,0.89975 -0.103549,1.285357 0.225879,0.587593 -0.329681,0.798757 -0.734501,1.037466 0.06611,0.504964 0.254245,1.065012 0.07541,1.55161 -0.254263,0.615133 -0.78162,0.183609 -1.233611,0.110182 0.02661,0.257065 0.05644,0.504964 0.08462,0.752854 z"
       style="stroke-width:0.329464;stroke-dasharray:none"
       sodipodi:insensitive="true" />
    <path
       id="Nepal"
       fill="none"
       stroke="#000000"
       stroke-width="1"
       d="m 67.999706,33.626135 c -0.423762,0.165261 -0.489649,0.679407 -0.489649,1.101739 -0.235236,0.29379 -0.809832,0.908928 -0.225898,1.129277 0.404922,0.358063 0.941685,-0.03675 1.290077,0.477417 0.470847,0.183607 0.951149,0.220336 1.158273,0.752852 0.433205,0.10098 0.904024,0.780394 1.318379,0.431512 0.45198,0.192816 0.847466,0.688585 1.384239,0.49578 0.169503,0.440696 0.762756,0.394792 1.186527,0.596772 0.339006,0.05506 0.772154,-0.431511 1.224171,0.03674 0.433186,-0.247891 0.800437,-0.247891 1.271275,0.01821 0.819238,-0.211163 0.21655,0.752851 0.753342,0.725307 0.480272,0.02766 0.781587,0.642679 1.280681,0.523326 0.630934,-0.468239 0.649745,0.03674 1.0076,0.385606 0.414327,-0.394789 0.998166,-0.07345 1.450192,0.0918 0.423753,0.468238 0.979337,-0.49578 1.205331,0.229544 0.46144,0.137709 0.885193,-0.0092 1.365427,-0.01822 0.517932,0.146914 0.951119,-0.339701 0.762747,-0.817118 -0.433157,-0.541686 -0.338995,-1.276177 -0.03766,-1.854589 0.244882,-0.514139 -0.762777,-0.367243 -0.960515,-0.165259 -0.451997,-0.220336 -1.092357,0.247889 -1.337171,-0.34888 -0.414365,-0.238717 -1.007612,-0.440696 -1.148878,0.07345 -0.58383,-0.04591 -0.772153,-0.47742 -1.016997,0.128532 -0.0661,-0.403971 -0.451987,-0.964019 -0.904004,-0.835483 -0.452017,0.01822 -1.318341,0.06428 -0.847504,-0.578409 -0.24492,-0.20199 -0.800456,0.348879 -1.167707,-0.211164 -0.517904,-0.247891 -0.828635,-0.468236 -0.847504,-1.009923 -0.272946,-0.495781 -0.979336,0.03674 -1.214755,-0.06428 -0.282609,-0.293791 -0.612113,-0.908929 -1.035846,-0.817119 -0.527339,0.07345 -0.875759,-0.615136 -1.365427,-0.743672 -0.706256,0.08262 -0.593255,-0.605951 -0.960487,-0.789575 -0.480301,-0.13771 -1.064148,-0.156088 -1.29953,0.119359 0.0098,0.578409 -0.725105,0.826301 -0.847532,0.156087 -0.310635,0.257064 -0.630906,0.52332 -0.951071,0.780392 z"
       style="stroke-width:0.329464;stroke-dasharray:none"
       sodipodi:insensitive="true" />
    <path
       id="Papua-New-Guinea"
       fill="none"
       stroke="#000000"
       stroke-width="1"
       d="m 213.03702,107.53417 c 0.88514,0.055 1.70441,-0.29376 2.46719,-0.69778 0.35782,-0.30287 0.39549,-0.90893 0.96993,-0.69777 0.38608,0.16527 1.1394,0 1.05462,-0.44071 -0.5367,-0.28465 -0.42372,-0.89975 0.22593,-0.76202 0.2826,-0.39479 0.36727,-0.88141 0.0266,-1.26701 -0.17884,-0.34886 -0.72508,0.43154 -1.19591,-0.0917 -0.19787,0.18348 0.13172,0.8722 -0.01,1.23944 -0.39549,0.25701 -1.07349,-0.0368 -1.20533,0.56924 -0.18819,0.7253 -1.06408,0.78957 -1.70442,0.8171 -0.4332,-0.19292 -0.70629,-1.00075 -0.86638,-0.15616 -0.5556,0.40396 -1.31835,0.14706 -1.93982,0.026 -0.32965,0.1103 -1.28071,-0.14672 -1.00762,0.36724 0.45199,0.29376 1.05469,0.37642 1.3937,0.85387 0.3861,-0.33971 0.91339,-0.0735 1.11117,0.33051 0.21656,-0.026 0.45201,-0.0644 0.67801,-0.0918 z m -15.83906,6.06869 c 0.80986,0.30288 1.43138,-0.42232 2.13763,-0.67939 -0.31063,-0.69778 -1.12062,-0.99156 -1.82686,-1.166 -0.80986,-0.33052 0.0565,-0.30288 0.49909,-0.19291 0.52734,0.0826 1.1865,0.18347 1.65735,-0.0549 -0.64035,-0.61515 0.31063,-0.30288 0.61207,-0.4407 0.0566,-0.42233 -0.55557,-1.17518 0.20723,-0.60598 0.46143,0.42237 0.96051,-0.257 1.48785,-0.0368 0.80044,0.3581 1.69501,0.54174 2.57081,0.66105 0.54614,0.67025 1.01699,1.3772 1.51606,2.08414 0.28262,0.67022 1.15829,0.64265 1.5726,1.15682 0.17885,0.75284 1.05469,1.05582 1.77035,1.0191 0.92287,-0.11043 1.79862,0.21113 2.69325,0.36723 0.60265,-0.0639 0.94166,0.21113 1.13938,0.69777 0.32967,0.0196 1.31835,0.29377 1.11121,-0.30285 -0.0267,-0.56008 -0.52735,-0.81713 -1.03585,-0.90895 -0.41436,-0.0261 -1.34663,-0.42233 -0.47085,-0.53251 0.53676,-0.3397 -0.59327,-0.47744 -0.89458,-0.4866 -0.75335,-0.0735 -0.42376,-0.5417 -0.29197,-0.93645 -0.40494,-0.27555 -1.05469,0.18347 -1.50672,-0.0917 -0.47082,-0.48657 -0.86631,-1.08338 -0.96048,-1.77192 -0.80984,-0.56007 -1.77035,-1.01912 -2.19411,-1.95561 -0.41434,-0.39478 -0.27294,-0.98236 0.36726,-0.94567 0.33902,-0.11029 1.33718,0.16528 1.12058,-0.39476 -0.17883,-0.40398 -0.45201,-0.90893 -0.86631,-1.07419 -0.69687,-0.11031 -1.34663,-0.32141 -1.97757,-0.61514 -0.47081,-0.32143 -1.11117,-0.19291 -1.5349,-0.56007 -0.16016,-0.4774 0.5744,-1.05581 -0.0469,-1.3496 -0.58385,-0.73451 -1.79859,-0.7804 -2.14704,-1.70767 -0.37668,-0.0826 -0.99817,0.026 -1.38425,-0.31231 -0.71568,-0.49579 -1.53497,-0.75285 -2.38244,-0.96401 -1.31837,-0.3948 -2.61786,-0.87221 -3.95508,-1.23946 0.0377,1.86377 0.0846,3.72754 0.12258,5.60047 -0.0752,0.69777 0.24489,1.48734 -0.17886,2.1025 -0.41431,0.44986 0.0847,0.9732 0.16017,1.45979 0.19785,1.34045 0.0266,2.70844 0.0565,4.05804 0.95114,0.0917 1.90221,0.10085 2.85333,0.11938 z"
       style="stroke-width:0.329464;stroke-dasharray:none"
       sodipodi:insensitive="true" />
    <path
       id="Philippines"
       fill="none"
       stroke="#000000"
       stroke-width="1"
       d="m 151.34769,64.731776 c 0.047,-0.697765 0.79096,-0.16526 1.03581,0.137709 0.34842,0.110182 1.22418,0.431512 0.43317,0.605952 -0.53673,-0.284619 -0.85693,-0.211163 -1.2336,0.293794 0.11325,0.514144 0.67801,0.624314 1.04528,0.927296 0.53678,0.0918 0.66859,-0.578414 1.20534,-0.486604 0.64034,0.192816 1.20537,0.624318 1.6291,1.14764 0.61208,-0.05506 -0.27293,-0.780392 0.01,-1.120094 0.565,0.03674 0.95106,0.596772 1.39365,0.90893 0.48027,0.247888 0.21654,0.991562 0.86637,0.945657 0.54618,0.367244 1.0076,-0.08262 0.39548,-0.486603 -0.38606,-0.35806 -0.71566,-0.872202 0.0471,-0.982378 0.41437,-0.257066 -0.72508,-0.734491 -0.82866,-0.312172 -0.26358,0.605957 -0.90402,0.110182 -0.93224,-0.358064 -0.01,-0.578409 -0.92287,-0.853844 -1.16769,-0.275445 -0.22591,0.532509 -0.6215,0.550868 -1.02645,0.11936 -0.44255,-0.468236 -0.45198,-1.257813 -0.77216,-1.836223 -0.41433,-0.468237 -0.2072,-0.80794 -0.0302,-1.303719 -0.10355,-0.532507 0.32032,-0.72531 0.73449,-0.936475 0.61209,-0.330521 1.05471,-0.863025 1.18652,-1.54243 0.33902,-0.468234 0.0566,-0.927291 -0.42374,-1.147641 -0.20722,-0.422331 -0.32034,-1.065007 0,-1.478158 0.36724,-0.560048 -0.32034,-0.780396 -0.59327,-0.284622 -0.8852,0.0918 -1.71385,-0.964017 -2.56136,-0.358059 -0.61211,0.789576 -0.51795,1.863765 -0.59325,2.818604 -0.39553,0.670222 0.27327,1.459798 -0.2259,2.102475 -0.37667,-0.137709 -0.95111,-1.009923 -1.09233,-0.293793 0.56499,0.532505 -0.0471,1.312901 0.3578,1.918855 0.10355,0.633496 0.57445,1.06501 1.06409,1.4598 0.0201,-0.06428 0.047,-0.11936 0.0753,-0.183611 z m 1.56317,4.682372 c 0.39548,-0.468239 0.42375,-1.138459 0.29196,-1.707689 -0.25428,-0.716127 -1.13003,-0.495778 -1.72329,-0.47742 -0.52734,0.01822 0.4991,0.624317 0.36727,1.055833 0.094,0.587589 0.44257,1.065006 0.96049,1.377165 0.0266,-0.07346 0.0658,-0.165261 0.10357,-0.247892 z m 9.00243,2.276916 c -0.31064,-0.716125 -0.339,-1.5057 -0.452,-2.249375 -0.26359,-0.679399 -1.0641,-0.348882 -1.61028,-0.293793 -0.76275,-0.05505 -0.18819,0.71613 0.21654,0.844665 0.3861,0.229543 0.96055,0.541685 0.64035,1.046647 0.0658,0.376427 0.55558,0.679405 0.94165,0.826301 0.12258,-0.02766 0.20723,-0.07345 0.26361,-0.174433 z m -5.73481,0.541688 c 0.37664,-0.266239 0.59326,-0.807938 0.41431,-1.175184 -0.68744,0.367246 -1.4125,-0.0092 -1.91159,-0.4866 0.01,0.881388 -0.16952,1.753594 -0.24494,2.625801 0.64979,-0.211161 1.20539,-0.541685 1.74212,-0.964017 z m -7.67468,1.661784 c 0.21654,-0.431516 1.07351,-0.440698 1.04525,-0.89975 -0.25426,-0.459057 -0.34841,-0.918116 -0.38609,-1.312902 -0.66859,0.24789 -0.3013,1.13846 -0.72509,1.597514 -0.0942,0.321347 -1.08289,0.844665 -0.3013,0.826303 0.12245,-0.07345 0.24491,-0.137708 0.36727,-0.211161 z m 8.24908,1.156818 c 0.0267,-0.688581 0.26359,-1.441433 0.56501,-2.102474 0.37667,-0.449876 -0.1695,-0.954839 -0.62147,-0.560048 -0.26362,0.358062 -0.27296,0.945652 -0.44263,1.386349 0.0658,0.651858 -0.82865,0.514143 -0.8946,1.019101 0.0753,0.651864 0.95114,0.79876 1.30897,1.30372 0.59324,-0.0918 0.31996,-0.716126 0.0847,-1.046648 z m -11.58263,1.891312 c 0.51791,-0.06428 0.96991,-0.367244 1.06409,-0.89975 0.3013,-0.376425 0.98875,-0.376425 1.1771,-0.908931 0.2072,-0.495781 -0.0377,-1.129279 -0.40493,-0.376427 -0.46137,0.688588 -1.23359,1.03747 -1.85508,1.542429 -0.20721,0.238717 -0.97935,1.019104 -0.34845,1.019104 0.12244,-0.12853 0.24492,-0.257063 0.36727,-0.376425 z m 18.68287,2.322824 c -0.23556,-0.4866 -0.31064,-1.055828 -0.16014,-1.579154 0.16948,-0.624315 -1.08292,0.06428 -0.67801,-0.66104 0.46141,-0.587593 -0.10357,-1.257813 -0.52732,-1.680145 -0.27295,-0.275445 -0.7722,-1.147639 -0.71568,-0.293794 0.10356,0.330523 0.41433,1.294539 -0.16017,1.193547 -0.49909,-0.137708 -0.64034,1.019106 -0.90401,0.110182 -0.59325,-0.14688 -0.15083,0.964019 -0.5179,0.964019 -0.4897,-0.42233 -0.98879,-0.02766 -1.05471,0.523324 -0.27293,0.156088 -1.10176,0.605953 -1.0076,0.02766 0.0469,-0.615135 -0.55558,-0.72531 -1.04525,-0.550871 -0.6121,0.06428 -0.7157,0.596776 -1.04525,0.908934 -0.63094,-0.06428 -1.24305,0.321346 -1.31834,0.964016 -0.17886,0.394791 -0.72511,1.156823 -0.0377,1.349623 0.3013,-0.477415 0.60266,-0.964016 0.85692,-1.459793 0.21654,-0.605956 0.85691,-0.321348 0.67799,0.275442 0.48968,-0.0092 1.14887,-0.100978 1.27128,-0.651856 0.54618,-0.0918 1.07352,0.24789 1.45018,0.605952 0.32969,0.532508 -0.35782,0.927293 -0.32966,1.441438 -0.0752,0.964018 0.87578,1.505704 1.64794,1.872948 0.53674,0.47742 0.41436,-0.807939 0.98876,-0.422333 0.11326,0.449877 -0.30131,0.899753 0.33901,1.156821 0.31065,-0.358063 0.63092,-0.8263 0.42374,-1.303717 0.0377,-0.47742 -0.64974,-0.826301 -0.30128,-1.257813 0.21654,-0.312173 0.339,-1.175183 0.83809,-0.899751 0.3013,0.348882 0.25426,0.945655 0.6215,1.175182 0.28259,-0.578411 0.73453,-1.138457 0.68744,-1.808681 z"
       style="stroke-width:0.329464;stroke-dasharray:none"
       sodipodi:insensitive="true" />
    <path
       id="Sri-Lanka"
       fill="none"
       stroke="#000000"
       stroke-width="1"
       d="m 70.692927,80.183602 c -0.05649,-0.890569 -0.894578,-1.524062 -1.08295,-2.396272 -0.536725,-0.238717 -0.56499,-0.560047 -0.640331,-1.055828 -0.414356,-0.495781 -0.621481,-1.193546 -1.290067,-1.413892 -0.48031,-0.312173 -0.743975,-0.771217 -0.536773,0.02766 -0.273271,0.321347 -0.197893,1.06501 -0.781606,1.000741 -0.60268,0.110182 0.386091,0.670222 -0.131718,1.037467 0.517913,1.065011 -0.0098,2.295284 0.451979,3.369474 0.225869,0.670222 0.376676,1.726051 1.308935,1.707687 1.3372,0.05506 2.476634,-1.028283 2.702618,-2.276917 z"
       style="stroke-width:0.329464;stroke-dasharray:none"
       sodipodi:insensitive="true" />
    <path
       id="path1007"
       style="fill:none;stroke:#000000;stroke-width:1.89649;stroke-miterlimit:5.5"
       inkscape:transform-center-x="5.7393692e-05"
       inkscape:transform-center-y="7.6780494"
       d="m 88.384005,31.173134 h -53.19513 l 26.597539,46.06836 z" />
    <circle
       r="4.6325283"
       cy="34.210098"
       cx="332.21729"
       id="circle1025"
       style="fill:none;fill-opacity:1;stroke:#000000;stroke-width:0.37798;stroke-miterlimit:5.5;stroke-dasharray:none;stroke-dashoffset:0" />
    <path
       style="fill:none;stroke:#000000;stroke-width:0.353676;stroke-linecap:butt;stroke-linejoin:miter;stroke-miterlimit:5.5;stroke-dasharray:none;stroke-opacity:1"
       d="m 329.52369,-8.9277107 3.8006,-5.8570903 6.80004,1.64494 0.38589,6.8883603 -6.55544,2.6048 z"
       id="path39-9-1" />
    <g
       style="fill:none;stroke:#000000;stroke-width:0.581074;stroke-miterlimit:5.5;stroke-dasharray:none"
       transform="matrix(-0.55070442,0,0,0.55070442,375.17263,-100.69003)"
       id="g16765">
      <path
         style="fill:none;stroke:#000000;stroke-width:0.581074;stroke-linecap:butt;stroke-linejoin:miter;stroke-miterlimit:5.5;stroke-dasharray:none;stroke-opacity:1"
         d="m 75.712483,203.9235 -17.158558,-0.10545 8.707572,-14.78531 z"
         id="path16757" />
      <path
         style="fill:none;stroke:#000000;stroke-width:0.581074;stroke-linecap:butt;stroke-linejoin:miter;stroke-miterlimit:5.5;stroke-dasharray:none;stroke-opacity:1"
         d="m 75.712483,203.9235 8.70757,-14.78531 -17.158556,-0.10545 z"
         id="path16759" />
      <path
         style="fill:none;stroke:#000000;stroke-width:0.581074;stroke-linecap:butt;stroke-linejoin:miter;stroke-miterlimit:5.5;stroke-dasharray:none;stroke-opacity:1"
         d="m 75.712483,203.9235 -17.158558,-0.10545 8.707572,-14.78531 z"
         id="path16761" />
      <path
         style="fill:none;stroke:#000000;stroke-width:0.581074;stroke-linecap:butt;stroke-linejoin:miter;stroke-miterlimit:5.5;stroke-dasharray:none;stroke-opacity:1"
         d="m 75.712483,203.9235 8.70757,-14.78531 -17.158556,-0.10545 z"
         id="path16763" />
    </g>
    <text
       id="text1207"
       y="30.298763"
       x="353.93439"
       style="font-size:7.02743px;line-height:1.25;font-family:sans-serif;fill:#000000;stroke-width:0.527058"
       xml:space="preserve"><tspan
         style="fill:#000000;stroke-width:0.527058"
         y="30.298763"
         x="353.93439"
         id="tspan1205"
         sodipodi:role="line">H</tspan></text>
    <rect
       style="fill:none;fill-opacity:1;stroke:#1a1a1a;stroke-width:0.465126;stroke-dasharray:none;stroke-dashoffset:0"
       id="rect1"
       width="6.3840318"
       height="29.925613"
       x="138.62166"
       y="46.787563"
       rx="0"
       ry="0" />
    <rect
       style="fill:none;fill-opacity:1;stroke:#1a1a1a;stroke-width:0.360826;stroke-dasharray:none;stroke-dashoffset:0"
       id="rect3"
       width="6.4883323"
       height="17.71979"
       x="130.57797"
       y="46.668785"
       rx="0"
       ry="0" />
    <rect
       style="fill:none;fill-opacity:1;stroke:#1a1a1a;stroke-width:0.336961;stroke-dasharray:none;stroke-dashoffset:0"
       id="rect4"
       width="10.697639"
       height="9.3727694"
       x="126.62423"
       y="65.124596"
       rx="0"
       ry="0" />
    <rect
       style="fill:none;fill-opacity:1;stroke:#1a1a1a;stroke-width:0.706832;stroke-dasharray:none;stroke-dashoffset:0"
       id="rect5"
       width="16.975199"
       height="25.990433"
       x="92.765877"
       y="36.550018"
       rx="0"
       ry="0" />
    <rect
       style="fill:none;fill-opacity:1;stroke:#1a1a1a;stroke-width:0.360826;stroke-dasharray:none;stroke-dashoffset:0"
       id="rect6"
       width="6.4883323"
       height="17.71979"
       x="121.31785"
       y="46.550591"
       rx="0"
       ry="0" />
    <rect
       style="fill:none;fill-opacity:1;stroke:#1a1a1a;stroke-width:0.695104;stroke-dasharray:none;stroke-dashoffset:0"
       id="rect7"
       width="6.1540537"
       height="69.332214"
       x="-114.55776"
       y="97.423073"
       rx="0"
       ry="0"
       transform="rotate(-90)" />
    <rect
       style="fill:none;fill-opacity:1;stroke:#1a1a1a;stroke-width:1.26851;stroke-dasharray:none;stroke-dashoffset:0"
       id="rect8"
       width="54.819149"
       height="25.921127"
       x="163.9494"
       y="90.254082"
       rx="0"
       ry="0" />
    <rect
       style="fill:none;fill-opacity:1;stroke:#1a1a1a;stroke-width:0.794035;stroke-dasharray:none;stroke-dashoffset:0"
       id="rect9"
       width="20.334654"
       height="27.380365"
       x="127.27608"
       y="79.676857"
       rx="0"
       ry="0" />
    <rect
       style="fill:none;fill-opacity:1;stroke:#1a1a1a;stroke-width:0.609;stroke-dasharray:none;stroke-dashoffset:0"
       id="rect10"
       width="5.114553"
       height="7.5317802"
       x="149.5537"
       y="42.781761"
       rx="0"
       ry="0" />
    <rect
       style="fill:none;fill-opacity:1;stroke:#1a1a1a;stroke-width:0.800899;stroke-dasharray:none;stroke-dashoffset:0"
       id="rect11"
       width="20.327272"
       height="27.865883"
       x="144.67973"
       y="56.125847"
       rx="0"
       ry="0" />
    <rect
       style="fill:none;fill-opacity:1;stroke:#1a1a1a;stroke-width:0.855368;stroke-dasharray:none;stroke-dashoffset:0"
       id="rect12"
       width="16.826662"
       height="38.397583"
       x="103.18011"
       y="53.3652"
       rx="0"
       ry="0" />
    <rect
       style="fill:none;fill-opacity:1;stroke:#1a1a1a;stroke-width:2.38934;stroke-dasharray:none;stroke-dashoffset:0"
       id="rect13"
       width="91.119186"
       height="55.32785"
       x="132.01274"
       y="118.14158"
       rx="0"
       ry="0" />
    <text
       xml:space="preserve"
       style="font-size:4.93889px;line-height:1.25;font-family:sans-serif;letter-spacing:0px;fill:#000000;stroke:#000000;stroke-width:0.143;stroke-dasharray:none"
       x="6.2068033"
       y="11.110937"
       id="text13"
       transform="scale(1.2099153,0.82650413)"><tspan
         sodipodi:role="line"
         id="tspan13"
         style="font-size:4.93889px;fill:#000000;stroke:#000000;stroke-width:0.143;stroke-dasharray:none"
         x="6.2068033"
         y="11.110937">TBK</tspan><tspan
         sodipodi:role="line"
         style="font-size:4.93889px;fill:#000000;stroke:#000000;stroke-width:0.143;stroke-dasharray:none"
         x="6.2068033"
         y="17.284548"
         id="tspan15">KSH^MR</tspan><tspan
         sodipodi:role="line"
         style="font-size:4.93889px;fill:#000000;stroke:#000000;stroke-width:0.143;stroke-dasharray:none"
         x="6.2068033"
         y="23.45816"
         id="tspan18">XZN^AN</tspan><tspan
         sodipodi:role="line"
         style="font-size:4.93889px;fill:#000000;stroke:#000000;stroke-width:0.143;stroke-dasharray:none"
         x="6.2068033"
         y="29.631773"
         id="tspan16">XZN.JSN</tspan><tspan
         sodipodi:role="line"
         style="font-size:4.93889px;fill:#000000;stroke:#000000;stroke-width:0.143;stroke-dasharray:none"
         x="6.2068033"
         y="35.805386"
         id="tspan17">BDN^W</tspan></text>
    <rect
       style="fill:none;fill-opacity:1;stroke:#1a1a1a;stroke-width:0.489849;stroke-dasharray:none;stroke-dashoffset:0"
       id="rect14"
       width="12.760461"
       height="16.605579"
       x="148.61157"
       y="90.312416"
       rx="0"
       ry="0" />
    <rect
       style="fill:none;fill-opacity:1;stroke:#1a1a1a;stroke-width:0.635;stroke-dasharray:none;stroke-dashoffset:0"
       id="rect15"
       width="9.6466036"
       height="10.243911"
       x="82.865959"
       y="40.752193"
       rx="0"
       ry="0" />
    <rect
       style="fill:none;fill-opacity:1;stroke:#1a1a1a;stroke-width:0.695104;stroke-dasharray:none;stroke-dashoffset:0"
       id="rect17"
       width="6.1540537"
       height="69.332214"
       x="-29.62224"
       y="41.045582"
       rx="0"
       ry="0"
       transform="rotate(-90)" />
    <path
       id="path24"
       style="fill:none;stroke:#000000;stroke-width:0.692;stroke-miterlimit:5.5;stroke-dasharray:none"
       inkscape:transform-center-x="1.8686224e-05"
       inkscape:transform-center-y="-2.396413"
       d="M 213.88582,184.40168 H 197.283 l 8.3014,-14.37847 z" />
    <path
       id="path30"
       style="fill:none;stroke:#000000;stroke-width:0.567587;stroke-miterlimit:5.5;stroke-dasharray:none"
       inkscape:transform-center-x="1.5424981e-05"
       inkscape:transform-center-y="-1.9655679"
       d="M 74.686859,83.562807 H 61.069018 l 6.808912,-11.7934 z" />
  </g>
</svg>
