<?xml version="1.0" encoding="UTF-8" standalone="no"?>
<svg
   sodipodi:docname="isoc.svg"
   inkscape:version="1.1.1 (3bf5ae0d25, 2021-09-20)"
   id="svg8"
   version="1.1"
   viewBox="0 0 297 210"
   height="210mm"
   width="297mm"
   xmlns:inkscape="http://www.inkscape.org/namespaces/inkscape"
   xmlns:sodipodi="http://sodipodi.sourceforge.net/DTD/sodipodi-0.dtd"
   xmlns="http://www.w3.org/2000/svg"
   xmlns:svg="http://www.w3.org/2000/svg"
   xmlns:rdf="http://www.w3.org/1999/02/22-rdf-syntax-ns#"
   xmlns:cc="http://creativecommons.org/ns#"
   xmlns:dc="http://purl.org/dc/elements/1.1/">
  <defs
     id="defs2" />
  <sodipodi:namedview
     inkscape:window-maximized="1"
     inkscape:window-y="-8"
     inkscape:window-x="-8"
     inkscape:window-height="1057"
     inkscape:window-width="1858"
     showgrid="false"
     inkscape:document-rotation="0"
     inkscape:current-layer="layer1"
     inkscape:document-units="mm"
     inkscape:cy="550.82"
     inkscape:cx="492.93515"
     inkscape:zoom="1.6411895"
     inkscape:pageshadow="2"
     inkscape:pageopacity="0.0"
     borderopacity="1.0"
     bordercolor="#666666"
     pagecolor="#ffffff"
     id="base"
     inkscape:pagecheckerboard="0" />
  <metadata
     id="metadata5">
    <rdf:RDF>
      <cc:Work
         rdf:about="">
        <dc:format>image/svg+xml</dc:format>
        <dc:type
           rdf:resource="http://purl.org/dc/dcmitype/StillImage" />
      </cc:Work>
    </rdf:RDF>
  </metadata>
  <g
     id="layer1"
     inkscape:groupmode="layer"
     inkscape:label="图层 1">
    <path
       style="fill:none;stroke:#000000;stroke-width:0.134446px;stroke-linecap:butt;stroke-linejoin:miter;stroke-opacity:1"
       d="m 20.466929,43.9494 61.304655,0.03135"
       id="path878" />
    <path
       style="fill:#000000;stroke:#666666;stroke-width:0.5;stroke-linecap:butt;stroke-linejoin:miter;stroke-miterlimit:4;stroke-dasharray:4, 0.5;stroke-opacity:1;fill-opacity:1;stroke-dashoffset:0"
       d="M 101.38454,142.22529 H 175.8792"
       id="path994" />
    <rect
       style="fill:none;stroke:#000000;stroke-width:0.3;stroke-linecap:round;stroke-linejoin:round;stroke-miterlimit:4;stroke-dasharray:none;paint-order:markers fill stroke"
       id="rect10-0"
       width="74.27562"
       height="74.27562"
       x="101.80138"
       y="105.67364"
       rx="0"
       ry="0" />
    <path
       style="fill:none;stroke:#000000;stroke-width:0.3;stroke-linecap:butt;stroke-linejoin:miter;stroke-miterlimit:4;stroke-dasharray:none;stroke-dashoffset:0;stroke-opacity:1"
       d="M 404.36414,0.05454899 414.69669,10.476998"
       id="path14-2" />
    <path
       style="fill:none;stroke:#000000;stroke-width:0.3;stroke-linecap:butt;stroke-linejoin:miter;stroke-miterlimit:4;stroke-dasharray:none;stroke-dashoffset:0;stroke-opacity:1"
       d="M 403.62532,11.10842 415.4355,-0.57687201"
       id="path16-4" />
    <path
       style="fill:none;stroke:#000000;stroke-width:0.414363;stroke-linecap:butt;stroke-linejoin:miter;stroke-miterlimit:4;stroke-dasharray:none;stroke-dashoffset:0;stroke-opacity:1"
       d="m 112.07987,160.48155 -9.9813,19.25882"
       id="path18-6" />
    <path
       style="fill:none;stroke:#000000;stroke-width:0.3;stroke-linecap:butt;stroke-linejoin:miter;stroke-miterlimit:4;stroke-dasharray:none;stroke-dashoffset:0;stroke-opacity:1"
       d="M 415.97673,11.587195 403.0841,-1.055647"
       id="path20-7" />
    <rect
       ry="0"
       rx="0"
       y="115.95213"
       x="112.07987"
       height="44.529415"
       width="53.718636"
       id="rect12-0"
       style="fill:none;stroke:#000000;stroke-width:0.258959;stroke-linecap:round;stroke-linejoin:round;stroke-miterlimit:4;stroke-dasharray:none;stroke-dashoffset:0;paint-order:markers fill stroke" />
    <g
       id="g937"
       transform="matrix(-0.50814317,0,0,-0.50814317,104.57401,121.74694)"
       style="fill:#cccccc">
      <rect
         transform="scale(-1)"
         style="fill:#cccccc;stroke:#000000;stroke-width:0.5;stroke-linecap:round;stroke-linejoin:round;stroke-miterlimit:4;stroke-dasharray:none;stroke-dashoffset:0;paint-order:markers fill stroke"
         id="rect922"
         width="54.091141"
         height="35.3993"
         x="-132.87999"
         y="-112.91015"
         rx="0"
         ry="0" />
      <rect
         transform="scale(-1)"
         style="fill:#cccccc;stroke:#000000;stroke-width:0.5;stroke-linecap:round;stroke-linejoin:round;stroke-miterlimit:4;stroke-dasharray:none;stroke-dashoffset:0;paint-order:markers fill stroke"
         id="rect924"
         width="36.224403"
         height="3.5077693"
         x="-124.20223"
         y="-79.839279" />
    </g>
    <circle
       r="4.0263023"
       cy="51.542912"
       cx="66.345711"
       id="path916"
       style="fill:#0000ff;stroke:#000000;stroke-width:0.254072;stroke-linecap:round;stroke-linejoin:round;stroke-miterlimit:4;stroke-dasharray:none;stroke-dashoffset:0;paint-order:markers fill stroke" />
    <rect
       ry="0"
       rx="0"
       y="47.724518"
       x="45.629948"
       height="7.7486143"
       width="7.7486143"
       id="rect920"
       style="fill:#00ff00;stroke:#000000;stroke-width:0.254072;stroke-linecap:round;stroke-linejoin:round;stroke-miterlimit:4;stroke-dasharray:none;stroke-dashoffset:0;paint-order:markers fill stroke" />
    <path
       inkscape:transform-center-y="1.587062"
       d="m 42.017833,-47.647829 -5.497729,0 -5.497731,0 2.748865,-4.761174 2.748865,-4.761174 2.748865,4.761174 z"
       inkscape:randomized="0"
       inkscape:rounded="0"
       inkscape:flatsided="false"
       sodipodi:arg2="1.5707963"
       sodipodi:arg1="0.52359878"
       sodipodi:r2="3.1741159"
       sodipodi:r1="6.3482318"
       sodipodi:cy="-50.821945"
       sodipodi:cx="36.520105"
       sodipodi:sides="3"
       id="path926"
       style="fill:#800000;stroke:#000000;stroke-width:0.254072;stroke-linecap:round;stroke-linejoin:round;stroke-miterlimit:4;stroke-dasharray:none;stroke-dashoffset:0;paint-order:markers fill stroke"
       sodipodi:type="star"
       inkscape:transform-center-x="1.0472535e-06"
       transform="scale(1,-1)" />
    <rect
       y="69.174263"
       x="69.674904"
       height="3.8572605"
       width="3.8572605"
       id="rect958"
       style="fill:#e6e6e6;stroke:#000000;stroke-width:0.278244;stroke-linecap:round;stroke-linejoin:round;stroke-miterlimit:4;stroke-dasharray:none;stroke-dashoffset:0;stroke-opacity:1;paint-order:markers fill stroke" />
    <rect
       y="73.031517"
       x="69.674904"
       height="3.8572621"
       width="3.8572621"
       id="rect960"
       style="fill:#e6e6e6;stroke:#000000;stroke-width:0.278244;stroke-linecap:round;stroke-linejoin:round;stroke-miterlimit:4;stroke-dasharray:none;stroke-dashoffset:0;stroke-opacity:1;paint-order:markers fill stroke" />
    <rect
       style="fill:#e6e6e6;stroke:#000000;stroke-width:0.278244;stroke-linecap:round;stroke-linejoin:round;stroke-miterlimit:4;stroke-dasharray:none;stroke-dashoffset:0;stroke-opacity:1;paint-order:markers fill stroke"
       id="rect962"
       width="3.8572621"
       height="3.8572621"
       x="26.786699"
       y="68.945457" />
    <rect
       transform="scale(-1,1)"
       style="fill:#e6e6e6;stroke:#000000;stroke-width:0.278244;stroke-linecap:round;stroke-linejoin:round;stroke-miterlimit:4;stroke-dasharray:none;stroke-dashoffset:0;stroke-opacity:1;paint-order:markers fill stroke"
       id="rect964"
       width="3.8572605"
       height="3.8572605"
       x="-128.58693"
       y="56.988613" />
    <rect
       transform="scale(-1,1)"
       style="fill:#e6e6e6;stroke:#000000;stroke-width:0.278244;stroke-linecap:round;stroke-linejoin:round;stroke-miterlimit:4;stroke-dasharray:none;stroke-dashoffset:0;stroke-opacity:1;paint-order:markers fill stroke"
       id="rect966"
       width="3.8572621"
       height="3.8572621"
       x="-30.643965"
       y="72.802719" />
    <rect
       transform="scale(-1,1)"
       y="53.131351"
       x="-128.58693"
       height="3.8572621"
       width="3.8572621"
       id="rect968"
       style="fill:#e6e6e6;stroke:#000000;stroke-width:0.278244;stroke-linecap:round;stroke-linejoin:round;stroke-miterlimit:4;stroke-dasharray:none;stroke-dashoffset:0;stroke-opacity:1;paint-order:markers fill stroke" />
    <text
       id="text972"
       y="14.659194"
       x="5.4325347"
       style="font-size:8.46667px;line-height:1.25;font-family:sans-serif;stroke-width:0.264583"
       xml:space="preserve"><tspan
         style="stroke-width:0.264583"
         y="14.659194"
         x="5.4325347"
         id="tspan970"
         sodipodi:role="line">Distinct(LineStyleObjectColor)Isok</tspan></text>
    <g
       id="g919"
       transform="matrix(-0.50814317,0,0,-0.50814317,108.00749,112.29803)">
      <path
         id="path913"
         style="fill:none;stroke:#000000;stroke-width:0.564492;stroke-linecap:butt;stroke-linejoin:miter;stroke-miterlimit:4;stroke-dasharray:none;stroke-dashoffset:0;stroke-opacity:1"
         d="M 35.251146,44.98527 H 201.21542 V 152.4208 H 35.251146 Z" />
      <path
         style="fill:none;stroke:#000000;stroke-width:0.5;stroke-linecap:butt;stroke-linejoin:miter;stroke-miterlimit:4;stroke-dasharray:none;stroke-dashoffset:0;stroke-opacity:1"
         d="m 35.312827,152.35911 16.318107,-17.9142"
         id="path16" />
      <path
         id="path954"
         d="M 201.21542,152.4208 172.27539,134.5066"
         style="fill:none;stroke:#000000;stroke-width:0.665863;stroke-linecap:butt;stroke-linejoin:miter;stroke-miterlimit:4;stroke-dasharray:none;stroke-dashoffset:0;stroke-opacity:1" />
      <path
         style="fill:none;stroke:#000000;stroke-width:0.893195;stroke-linecap:butt;stroke-linejoin:miter;stroke-miterlimit:4;stroke-dasharray:none;stroke-opacity:1"
         d="M 172.27539,134.5066 V 44.460948"
         id="path956" />
      <path
         id="path990"
         d="M 51.630934,134.44491 V 44.399258"
         style="fill:none;stroke:#000000;stroke-width:0.893195;stroke-linecap:butt;stroke-linejoin:miter;stroke-miterlimit:4;stroke-dasharray:none;stroke-opacity:1" />
    </g>
    <g
       id="g78"
       transform="matrix(-0.87764337,0,0,0.87764337,286.28754,-68.354781)">
      <path
         style="fill:none;stroke:#000000;stroke-width:0.215339;stroke-linecap:butt;stroke-linejoin:miter;stroke-miterlimit:4;stroke-dasharray:none;stroke-dashoffset:0;stroke-opacity:1"
         d="M 7.8247627,114.76217 H 99.8262 v 64.19132 H 7.8247627 Z"
         id="path936" />
      <path
         style="fill:#000000;stroke:#666666;stroke-width:0.378586;stroke-linecap:butt;stroke-linejoin:miter;stroke-miterlimit:4;stroke-dasharray:none;stroke-dashoffset:0;stroke-opacity:1"
         d="M 7.8247627,178.95349 23.151264,166.1545"
         id="path938" />
      <path
         id="path992"
         d="M 23.151264,166.1545 V 114.63017"
         style="fill:none;stroke:#666666;stroke-width:0.430678;stroke-linecap:butt;stroke-linejoin:miter;stroke-miterlimit:4;stroke-dasharray:none;stroke-opacity:1" />
      <path
         id="path988"
         d="m 64.022836,176.31711 c -2.264438,-0.48277 -4.154286,-0.91345 -4.199661,-0.95705 -0.145118,-0.13944 2.125661,-3.38292 2.3542,-3.36264 0.07362,0.007 0.753981,0.12331 1.511927,0.25951 0.757953,0.1362 1.409197,0.21412 1.447214,0.17317 0.03805,-0.041 0.548883,-1.03206 1.135261,-2.20244 l 1.066144,-2.12796 -16.067563,-0.0463 -16.067563,-0.0463 v -1.96602 c 0,-1.08132 -0.02328,-1.96605 -0.05171,-1.96606 -0.02843,-2e-5 -0.132526,0.0611 -0.231305,0.13581 -0.285817,0.21618 -0.410894,0.17014 -0.410894,-0.15126 0,-0.4487 -0.105803,-0.24228 -0.134679,0.26275 -0.09228,1.61459 -0.156127,1.91564 -0.469007,2.2117 -0.544668,0.51536 -1.747344,0.7782 -3.559721,0.77794 -1.784637,-2.7e-4 -3.083689,-0.28258 -3.606992,-0.78394 -0.207614,-0.1989 -0.258271,-0.36126 -0.353985,-1.13441 -0.06146,-0.49625 -0.111294,-1.05841 -0.110806,-1.24924 l 0.0014,-0.34694 h -1.57285 c -1.336401,0 -1.572842,-0.0209 -1.572842,-0.13878 0,-0.1459 0.03226,-0.14851 2.151095,-0.17413 l 0.902073,-0.011 5.23e-4,-0.87895 c 5.37e-4,-1.22149 0.123049,-1.8747 0.425172,-2.2708 l 0.250447,-0.32835 -0.114277,-0.80526 c -0.158022,-1.11355 -0.442244,-2.17772 -0.766782,-2.87108 -0.150733,-0.32201 -0.248781,-0.61076 -0.217892,-0.64165 0.068,-0.068 0.515304,-0.23702 1.437578,-0.54321 0.697581,-0.2316 2.176055,-0.49484 2.784961,-0.49584 0.327116,-5.4e-4 0.339331,-0.0153 1.291087,-1.55026 2.03654,-3.28466 2.026067,-3.24488 2.124944,-8.07239 0.06926,-3.38319 0.09192,-3.73354 0.304645,-4.71853 0.264668,-1.22546 0.705016,-2.62502 1.426379,-4.53349 1.32781,-3.5129 2.126638,-5.91017 2.543468,-7.63291 0.408901,-1.68998 0.577152,-3.98469 0.308504,-4.20765 -0.200771,-0.16661 -0.27305,-0.70876 -0.149486,-1.12119 l 0.108208,-0.36116 H 58.65329 c 11.392287,0 20.774925,-0.0237 20.850327,-0.0526 0.203231,-0.078 0.370416,0.52516 0.318636,1.14955 -0.03616,0.43647 -0.008,0.57436 0.173826,0.84906 0.318957,0.48199 0.847012,1.84444 1.050452,2.71034 0.246614,1.04967 0.370584,2.4212 0.370584,4.0999 v 1.42755 l 0.439469,0.18748 c 0.768859,0.32801 1.254959,0.92843 1.556802,1.92294 0.353902,1.16603 -0.117126,2.26842 -1.172623,2.74439 -0.198577,0.0895 -0.361052,0.19571 -0.361052,0.23593 0,0.0402 0.163931,0.33574 0.364285,0.65672 0.200346,0.32097 0.480846,0.91667 0.623336,1.32376 0.239013,0.68289 0.25915,0.84755 0.260237,2.12796 l 0.0014,1.38781 -0.439797,0.8383 c -0.300101,0.57203 -0.617002,1.01283 -0.997711,1.3878 -0.520564,0.51272 -0.554116,0.57117 -0.501228,0.87332 0.07635,0.43621 0.533839,1.32881 0.977482,1.90719 0.450438,0.58722 1.113333,1.12175 2.281701,1.83988 0.496741,0.30532 1.039828,0.65815 1.206858,0.78407 0.478899,0.36103 1.047289,1.18408 1.24201,1.79848 0.319704,1.00874 0.339653,3.8476 0.02705,3.8476 -0.0673,0 -0.421458,-0.12725 -0.786935,-0.28277 -0.365469,-0.15552 -0.860708,-0.30601 -1.100515,-0.3344 -0.530789,-0.0628 -1.404203,0.10646 -1.695113,0.32863 -0.117593,0.0898 -0.73422,0.38681 -1.370295,0.66003 -0.63608,0.27321 -1.171863,0.50758 -1.190635,0.52082 -0.01881,0.0133 0.115077,0.34871 0.29746,0.7455 0.611045,1.32948 1.109074,2.73614 1.80635,5.10192 l 0.06396,0.21706 2.078867,0.002 c 2.646237,0.002 3.420393,0.0521 3.420393,0.22263 0,0.10654 -0.465207,0.12833 -2.740125,0.12833 h -2.740133 l 0.0563,0.25444 c 0.155931,0.70451 0.445483,2.8044 0.402232,2.91711 -0.05581,0.14537 -1.535813,0.78091 -2.518675,1.08152 -0.862788,0.26391 -0.907056,0.29308 -0.924622,0.60937 -0.01073,0.19386 0.05979,0.33915 0.244482,0.50374 l 0.259616,0.23131 -0.08488,1.38779 c -0.04669,0.76329 -0.136337,1.70965 -0.199252,2.10301 l -0.114374,0.7152 -0.51568,0.15017 c -1.626977,0.47376 -3.478702,0.60509 -4.059743,0.28792 -0.286402,-0.15634 -0.351101,-0.15797 -1.017723,-0.0255 -2.172396,0.43172 -3.440413,0.20302 -3.441681,-0.62073 -0.0014,-1.09879 0.995139,-2.14725 2.22911,-2.34457 0.409772,-0.0655 0.411019,-0.0702 0.251151,-0.93784 -0.110152,-0.59786 -0.109399,-0.6023 0.138776,-0.81578 0.167513,-0.14408 0.249547,-0.30556 0.249547,-0.49119 0,-0.32895 -0.02892,-0.35018 -0.715921,-0.52578 -0.859756,-0.21974 -2.500962,-0.90327 -2.636519,-1.09807 -0.108256,-0.15555 -0.08056,-1.0417 0.0623,-1.99299 0.07248,-0.48267 0.116284,-0.89306 0.09736,-0.91199 -0.01888,-0.0189 -0.365274,0.64661 -0.769659,1.47897 -0.404378,0.83236 -1.3228,2.71185 -2.04093,4.17666 -0.71813,1.4648 -1.305693,2.70262 -1.305693,2.75071 0,0.10147 -0.0028,0.10087 1.755413,0.4128 0.736491,0.13068 1.364531,0.26786 1.395644,0.30484 0.03108,0.037 0.127927,0.2613 0.21516,0.49851 l 0.158594,0.43129 -0.760998,1.28034 c -0.826526,1.39057 -0.98197,1.60885 -1.135923,1.59511 -0.05575,-0.005 -1.95403,-0.40402 -4.218462,-0.88679 z m 4.03964,0.22505 c -0.02572,-0.0636 -0.04669,-0.0115 -0.04669,0.11565 0,0.12722 0.02098,0.17926 0.04669,0.11565 0.02571,-0.0636 0.02571,-0.16768 0,-0.2313 z m -0.312658,0.0884 c 0.03122,-0.0814 -0.03226,-0.11489 -0.19827,-0.10445 -0.347665,0.0219 -0.368255,0.0476 -0.105468,0.13173 0.127216,0.0408 0.237255,0.0783 0.244531,0.0833 0.0072,0.005 0.03393,-0.0446 0.05922,-0.11058 z m -0.758211,-0.1325 c -0.173428,-0.0327 -0.194054,-0.0608 -0.09252,-0.12604 0.08493,-0.0546 0.01735,-0.0651 -0.193176,-0.0301 -0.244552,0.0407 -0.289851,0.0297 -0.185038,-0.045 0.160553,-0.11441 0.01227,-0.13603 -0.164327,-0.024 -0.06494,0.0412 -0.37719,0.0162 -0.693903,-0.0555 -0.316706,-0.0718 -0.700731,-0.14837 -0.853394,-0.17026 -0.241953,-0.0346 -0.251597,-0.0284 -0.07517,0.049 0.188947,0.0829 1.103591,0.27223 1.58165,0.32743 0.116158,0.0134 0.237591,0.0508 0.269852,0.083 0.03233,0.0323 0.187017,0.0529 0.343917,0.0461 0.241639,-0.0107 0.251144,-0.019 0.06209,-0.0546 z m 1.194636,-0.24114 c 0,-0.0679 -0.06244,-0.12336 -0.138784,-0.12336 -0.146357,0 -0.18041,0.0817 -0.07709,0.18505 0.102138,0.10213 0.215879,0.0696 0.215879,-0.0617 z m -0.377795,-0.11943 c 0.08249,-0.0744 -0.06146,-0.11706 -0.549085,-0.16273 -0.339241,-0.0318 -0.399961,-0.0251 -0.183365,0.0201 0.192103,0.0402 0.313466,0.11622 0.298366,0.18721 -0.01791,0.0843 0.03672,0.10054 0.185044,0.0549 0.115768,-0.0356 0.227836,-0.0804 0.24904,-0.0995 z m 0.94593,-0.42884 c -0.06648,-0.0665 -0.09376,-0.0419 -0.08847,0.0796 0.0041,0.0966 -0.02139,0.25897 -0.05686,0.36074 -0.03547,0.10178 0.0041,0.066 0.08847,-0.0796 0.10579,-0.18301 0.123328,-0.29428 0.05686,-0.36074 z m -2.511059,0.3586 c 0,-0.0195 -0.104089,-0.0554 -0.231305,-0.0797 -0.127216,-0.0243 -0.231299,-0.008 -0.231299,0.0354 0,0.0438 0.104083,0.0797 0.231299,0.0797 0.127216,0 0.231305,-0.0159 0.231305,-0.0354 z m 0.266704,-0.24854 c -0.279442,-0.0709 -0.317243,-0.0402 -0.160392,0.12987 0.09479,0.10283 0.155897,0.11028 0.252914,0.0308 0.104528,-0.0856 0.0876,-0.11498 -0.09252,-0.16069 z m -0.605945,-0.002 0.292973,-0.008 -0.277553,-0.0829 c -0.174041,-0.0519 -0.288959,-0.0493 -0.308128,0.007 -0.0168,0.0495 -0.09264,0.028 -0.168516,-0.048 -0.07588,-0.0759 -0.228658,-0.13457 -0.339512,-0.13041 -0.165848,0.007 -0.148282,0.0309 0.09912,0.13905 0.16538,0.0724 0.303982,0.18341 0.307996,0.24687 0.0056,0.0919 0.0168,0.0918 0.05393,-2.6e-4 0.02571,-0.0636 0.178508,-0.11923 0.339652,-0.12362 z m -2.343846,0.0147 c 0,-0.0471 -0.07286,-0.10477 -0.16191,-0.12804 -0.125021,-0.0327 -0.115726,-0.0447 0.04084,-0.053 0.111496,-0.007 0.22948,-0.054 0.262188,-0.10696 0.03895,-0.063 -0.0278,-0.0744 -0.193378,-0.0328 -0.167276,0.042 -0.232483,0.0305 -0.192674,-0.0339 0.03832,-0.0621 -0.01358,-0.0781 -0.143153,-0.0441 -0.195036,0.051 -0.195984,0.0563 -0.02328,0.13167 0.116338,0.0507 0.03275,0.0611 -0.236253,0.0294 -0.294882,-0.0348 -0.375858,-0.0221 -0.277567,0.0433 0.07633,0.0508 0.242866,0.0937 0.370082,0.0952 0.127217,0.002 0.293754,0.0432 0.370082,0.0925 0.173192,0.11192 0.185038,0.11235 0.185038,0.007 z m 1.688492,0.0246 c -0.06362,-0.0257 -0.167687,-0.0257 -0.231299,0 -0.06361,0.0257 -0.01157,0.0467 0.115649,0.0467 0.127223,0 0.179254,-0.021 0.11565,-0.0467 z m -0.418266,-0.0871 c -0.03073,-0.0307 -0.110542,-0.034 -0.177332,-0.007 -0.07381,0.0296 -0.05191,0.0514 0.05588,0.0558 0.09753,0.003 0.152175,-0.0178 0.121432,-0.0486 z m -0.83268,-0.0925 c -0.03073,-0.0307 -0.110548,-0.034 -0.17733,-0.007 -0.07381,0.0295 -0.05192,0.0514 0.05588,0.0558 0.09753,0.003 0.152182,-0.0178 0.121439,-0.0486 z m 4.373502,-0.0392 c 0,-0.0523 0.255227,-0.53258 0.567181,-1.06734 0.31194,-0.53477 0.551342,-0.98469 0.531992,-0.99986 -0.09548,-0.0748 -2.948397,-0.53248 -3.024774,-0.48528 -0.04864,0.03 -0.17416,0.23716 -0.279037,0.46027 -0.270981,0.5765 -0.775819,0.74561 -1.288,0.43149 -0.349156,-0.21415 -0.372925,-0.39134 -0.110319,-0.8221 0.104326,-0.17111 0.170704,-0.3301 0.147508,-0.3533 -0.05491,-0.0549 -2.363274,-0.48654 -2.60462,-0.487 -0.230693,-3.5e-4 -1.658515,1.95156 -1.493218,2.0414 0.05797,0.0315 0.605025,0.14696 1.215658,0.25653 0.610627,0.10956 2.171909,0.40336 3.469505,0.65286 2.479821,0.47683 2.868124,0.52723 2.868124,0.37233 z M 62.3851,175.4858 c -0.03972,-0.10354 -0.02355,-0.13206 0.04913,-0.0871 0.05951,0.0368 0.108242,0.0292 0.108242,-0.0169 0,-0.0461 0.09201,-0.1249 0.204471,-0.17509 0.186473,-0.0832 0.178,-0.0912 -0.09616,-0.0912 -0.165346,0 -0.252649,0.0297 -0.193998,0.0659 0.212651,0.13142 -0.40865,0.24035 -0.91661,0.1607 -0.276353,-0.0433 -0.519058,-0.0622 -0.539335,-0.042 -0.06439,0.0644 1.076937,0.2593 1.172539,0.20022 0.05031,-0.0311 0.09153,-0.0125 0.09153,0.0414 0,0.0539 0.04035,0.098 0.08962,0.098 0.04933,0 0.06299,-0.0693 0.03052,-0.15396 z m 6.921596,-0.3891 c 0.155528,-0.27233 0.237667,-0.46726 0.182543,-0.43318 -0.05512,0.0341 -0.100236,0.011 -0.100236,-0.0514 0,-0.0624 -0.0278,-0.0856 -0.06174,-0.0517 -0.05387,0.0539 -0.07737,0.16868 -0.117022,0.5705 -0.0049,0.0509 -0.05289,0.0301 -0.106284,-0.0462 -0.07416,-0.10592 -0.08205,-0.084 -0.03338,0.0925 0.03512,0.12723 0.03128,0.20044 -0.0086,0.16272 -0.09534,-0.0904 -0.334286,0.11052 -0.264947,0.22273 0.09537,0.1543 0.220924,0.0395 0.509576,-0.46588 z m -4.613085,0.38925 c -0.06362,-0.0257 -0.1677,-0.0257 -0.231305,0 -0.06361,0.0257 -0.01157,0.0467 0.115649,0.0467 0.127216,0 0.179261,-0.021 0.115656,-0.0467 z m -0.485737,-0.0709 c 0,-0.0218 -0.234205,-0.0883 -0.520447,-0.14774 -0.366179,-0.076 -0.578734,-0.0795 -0.717036,-0.0118 -0.17168,0.0841 -0.161423,0.0903 0.08098,0.049 0.15265,-0.026 0.381641,-0.006 0.508858,0.0456 0.236636,0.0951 0.647641,0.13633 0.647641,0.0651 z M 60.8331,175.0777 c 0.09079,-0.28606 -0.0021,-0.3083 -0.17685,-0.0422 -0.128693,0.19641 -0.131718,0.2342 -0.01881,0.2342 0.07407,0 0.162105,-0.0864 0.195622,-0.19203 z m 0.830469,0.0995 c -0.03143,-0.0509 -0.148405,-0.0919 -0.259888,-0.0911 -0.164802,0.002 -0.176759,0.0182 -0.0639,0.0911 0.182278,0.11779 0.396616,0.11779 0.32382,0 z m 0.462598,0.0277 c -0.101769,-0.0238 -0.227383,-0.097 -0.279156,-0.16254 -0.0517,-0.0656 -0.280743,-0.14392 -0.508858,-0.17412 l -0.414747,-0.0549 0.409556,0.11532 c 0.225257,0.0634 0.426481,0.16611 0.447176,0.22819 0.0207,0.0621 0.148658,0.10805 0.284354,0.10215 0.190013,-0.008 0.204193,-0.0207 0.06167,-0.0541 z m -1.619104,-0.16651 c 0.09377,-0.11298 0.08911,-0.13878 -0.02501,-0.13878 -0.07712,0 -0.164174,0.0624 -0.193469,0.13878 -0.02927,0.0763 -0.01805,0.13878 0.02502,0.13878 0.04306,0 0.130115,-0.0624 0.193462,-0.13878 z m 9.129467,-0.80973 c 0.01477,-0.27301 0.0084,-0.28068 -0.06954,-0.0838 -0.04724,0.11919 -0.06244,0.2545 -0.03393,0.30068 0.07789,0.12603 0.08585,0.10933 0.103469,-0.21689 z m 4.424278,-0.40365 0.959254,-0.1494 0.06292,-0.38259 c 0.09237,-0.56187 0.459246,-1.28278 0.819767,-1.61085 0.289698,-0.26361 0.321451,-0.34601 0.381886,-0.99099 0.0363,-0.38689 0.04279,-0.72655 0.01456,-0.75478 -0.02822,-0.0282 -0.210234,0.003 -0.404469,0.07 -0.194235,0.0667 -0.736512,0.12294 -1.20506,0.12487 l -0.851918,0.003 0.05449,0.52173 0.05449,0.52173 -0.497842,0.10515 c -1.131874,0.23908 -1.799444,0.78876 -2.071826,1.70598 -0.124854,0.42045 -0.123328,0.47737 0.01693,0.6324 0.33568,0.37092 1.177891,0.4351 2.666803,0.2032 z m 4.659681,-0.12854 c 0.476233,-0.11264 0.939283,-0.27821 1.02899,-0.36791 0.16667,-0.16667 0.320413,-1.18437 0.402797,-2.66646 l 0.03756,-0.67548 -0.288674,0.0741 c -0.158768,0.0407 -0.739439,0.0741 -1.290377,0.0741 h -1.00171 l 0.06083,0.40505 c 0.03352,0.22277 0.08176,0.45963 0.107365,0.52635 0.03101,0.0808 -0.08734,0.15523 -0.35439,0.22294 -1.1599,0.29404 -1.734334,0.80708 -2.004285,1.79009 -0.122582,0.44636 -0.06111,0.60473 0.298778,0.76958 0.401424,0.1839 1.903805,0.10768 3.00313,-0.15235 z m -12.814774,-0.32459 c 0.345687,-0.6185 0.392749,-0.89932 0.06578,-0.39234 -0.155799,0.24157 -0.283274,0.48096 -0.283274,0.53199 0,0.051 -0.06244,0.0928 -0.138776,0.0928 -0.07633,0 -0.138783,0.0416 -0.138783,0.0925 0,0.23786 0.285106,0.0507 0.495082,-0.32497 z m -0.774055,-0.0275 c -0.0014,-0.13482 -0.01387,-0.13726 -0.0911,-0.0177 -0.117099,0.18119 -0.117099,0.30368 0,0.23131 0.05087,-0.0314 0.09188,-0.12759 0.0911,-0.21363 z m 0.303746,-0.0413 c 0.057,-0.14845 -0.178056,-0.38017 -0.256642,-0.25303 -0.03108,0.0504 -0.008,0.0916 0.05128,0.0916 0.0593,0 0.08391,0.0624 0.05463,0.13879 -0.02927,0.0763 -0.01735,0.13877 0.02648,0.13877 0.04383,0 0.09978,-0.0523 0.124284,-0.11613 z m 0.392595,-0.28763 c 0.103392,-0.24591 0.100313,-0.32496 -0.02062,-0.52973 -0.129398,-0.21903 -0.127753,-0.26268 0.01819,-0.48547 0.08822,-0.13465 0.188841,-0.22724 0.223598,-0.20575 0.03477,0.0215 0.06998,-0.051 0.07829,-0.16134 0.0083,-0.11021 0.05881,-0.21497 0.112304,-0.23279 0.05344,-0.0178 0.07254,-0.0723 0.04236,-0.12109 -0.03017,-0.0488 0.01122,-0.18947 0.09194,-0.31267 0.205266,-0.31327 0.177707,-0.41381 -0.04132,-0.15084 -0.100082,0.12014 -0.181971,0.29707 -0.181971,0.3932 0,0.0961 -0.04411,0.1748 -0.09798,0.1748 -0.05386,0 -0.07556,0.0363 -0.04815,0.0806 0.02732,0.0443 -0.03372,0.1769 -0.135835,0.29462 -0.102103,0.11773 -0.212346,0.32044 -0.244991,0.4505 -0.03261,0.13004 -0.114771,0.29188 -0.182522,0.35962 -0.06773,0.0677 -0.123168,0.16645 -0.123168,0.21934 0,0.0529 0.08188,-0.002 0.181958,-0.12225 0.213579,-0.25637 0.25216,-0.11972 0.04836,0.17125 -0.09539,0.13619 -0.108082,0.21914 -0.03992,0.26126 0.05491,0.0339 0.07664,0.12208 0.04829,0.19591 -0.102724,0.26769 0.151158,0.007 0.271218,-0.27915 z m 0.321381,-0.68881 c -0.0014,-0.1359 -0.01436,-0.13823 -0.100005,-0.0176 -0.07524,0.10592 -0.08556,0.073 -0.04355,-0.13878 0.04445,-0.22438 0.03596,-0.24618 -0.04439,-0.11379 -0.11142,0.18352 -0.02968,0.56211 0.103552,0.47974 0.04724,-0.0292 0.08522,-0.12345 0.08445,-0.20951 z m 0.878299,-1.24976 c 0.291147,-0.60132 0.50274,-1.11993 0.470213,-1.15245 -0.03254,-0.0325 -0.08318,0.0327 -0.112534,0.14498 -0.02941,0.11226 -0.09296,0.20412 -0.141355,0.20412 -0.104604,0 -0.01575,-0.3338 0.16545,-0.62126 0.07103,-0.1127 0.127091,-0.27924 0.124589,-0.37007 -0.0028,-0.0908 -0.121355,0.0846 -0.264111,0.38995 -0.17687,0.37826 -0.234364,0.60477 -0.180487,0.71094 0.04348,0.0857 0.07882,0.21062 0.0785,0.27758 -2.79e-4,0.067 -0.0602,0.007 -0.13307,-0.13226 -0.128874,-0.24707 -0.158224,-0.62406 -0.05582,-0.71748 0.106096,-0.0968 0.374318,-0.75344 0.369754,-0.90521 -0.0028,-0.0873 -0.07325,0.007 -0.156949,0.21131 -0.08369,0.20354 -0.206457,0.42509 -0.272794,0.49233 -0.06634,0.0672 -0.12061,0.20969 -0.12061,0.31654 0,0.10686 -0.06654,0.26779 -0.147841,0.35765 -0.153737,0.16986 -0.107211,0.36542 0.08391,0.35275 0.07946,-0.006 0.07793,-0.0202 -0.0056,-0.054 -0.156399,-0.0632 -0.147027,-0.21628 0.01317,-0.21628 0.149173,0 0.2412,0.19704 0.2412,0.51643 0,0.13507 -0.05387,0.22373 -0.135877,0.22373 -0.08243,0 -0.115044,0.0543 -0.08292,0.138 0.03045,0.0793 -0.01122,0.16265 -0.09818,0.196 -0.09484,0.0363 -0.131481,0.11994 -0.09835,0.22429 0.02899,0.0915 0.0028,0.19746 -0.05923,0.23552 -0.07455,0.0461 -0.09422,0.0228 -0.05881,-0.0693 0.03114,-0.0812 0.0014,-0.13853 -0.07274,-0.13853 -0.06927,0 -0.103323,0.0365 -0.07573,0.0811 0.02759,0.0447 -0.0056,0.1522 -0.07347,0.23902 -0.111343,0.14218 -0.107538,0.14525 0.03826,0.031 0.139856,-0.10968 0.161917,-0.10653 0.161917,0.0231 0,0.0826 -0.0416,0.15011 -0.09252,0.15011 -0.05087,0 -0.09252,0.0717 -0.09252,0.15937 0,0.13962 0.01582,0.13675 0.127509,-0.0231 0.07014,-0.10037 0.365719,-0.6745 0.656866,-1.27582 z m -0.495326,0.005 c -0.09137,-0.0907 -0.101999,-0.0801 -0.05177,0.0518 0.03477,0.0913 0.08648,0.1426 0.114959,0.1141 0.0285,-0.0285 6.3e-5,-0.10313 -0.0632,-0.16589 z m 10.47308,0.0622 c 0.478303,-0.16298 0.501534,-0.22883 0.335186,-0.95028 -0.119029,-0.51624 -0.05526,-0.70521 0.285754,-0.84646 0.214408,-0.0888 0.274486,-0.17199 0.274486,-0.38002 v -0.26633 h -0.919744 c -0.957902,0 -1.253899,0.11423 -0.750602,0.28968 0.343945,0.1199 0.480338,0.34372 0.424949,0.69733 -0.06271,0.40015 -0.147689,1.60355 -0.113267,1.60355 0.01672,0 0.225188,-0.0663 0.463238,-0.14747 z m 2.630179,-1.35588 c 0.125223,-0.0998 0.168097,-1.36483 0.04627,-1.3647 -0.127955,1.8e-4 -1.452587,0.2883 -1.487978,0.3237 -0.01924,0.0192 -0.0056,0.285 0.02948,0.5906 0.04745,0.40856 0.1051,0.56428 0.217913,0.58826 0.256014,0.0544 1.071008,-0.0397 1.194273,-0.13786 z m -4.007789,0.012 c 0.01832,-0.0193 0.04808,-0.26263 0.06605,-0.54054 l 0.03275,-0.50529 -0.370082,-0.0609 c -0.203544,-0.0335 -0.547021,-0.0832 -0.76329,-0.11041 l -0.393209,-0.0495 0.0014,0.47693 c 5.37e-4,0.2623 0.02773,0.57575 0.06006,0.69653 0.05623,0.2102 0.08613,0.21767 0.695937,0.17404 0.350439,-0.0251 0.652178,-0.0615 0.670518,-0.0808 z m 2.340717,-0.22971 c -0.06111,-0.0611 -0.34524,0.0634 -0.34524,0.15131 0,0.13244 0.322448,0.14644 0.355128,0.0154 0.01721,-0.069 0.01275,-0.14407 -0.0099,-0.16673 z m -3.999789,-0.0368 c -0.04474,-0.0725 -0.09798,-0.0778 -0.159667,-0.0161 -0.05087,0.0509 -0.0623,0.14141 -0.02544,0.20116 0.0448,0.0724 0.09799,0.0778 0.15966,0.0161 0.05087,-0.0509 0.0623,-0.14142 0.02543,-0.20117 z m -5.51481,-1.3878 c 0.164808,-0.33076 0.363413,-0.71876 0.441337,-0.86222 0.07791,-0.14346 0.117962,-0.28455 0.08899,-0.31353 -0.02899,-0.029 -0.09788,0.0662 -0.153109,0.21145 -0.08173,0.21498 -0.117781,0.23889 -0.193692,0.12848 -0.07109,-0.10339 -0.0797,-0.0872 -0.03616,0.0679 0.03198,0.11394 -0.0071,0.32778 -0.08884,0.48573 -0.185273,0.35828 -0.243283,0.36069 -0.141529,0.006 0.04363,-0.15197 0.04592,-0.29689 0.0056,-0.32206 -0.04069,-0.0251 -0.102772,0.171 -0.137912,0.43591 -0.03518,0.2649 -0.09931,0.52433 -0.142602,0.57649 -0.04327,0.0522 -0.07839,0.11565 -0.07801,0.14109 0.0014,0.11731 -0.234727,0.5455 -0.284388,0.51498 -0.03073,-0.0189 -0.06445,0.0969 -0.07503,0.25733 -0.0207,0.31524 -0.03303,0.33581 0.795726,-1.32743 z m 11.71254,1.29346 c -0.05191,-0.0839 -0.08624,-0.0813 -0.143117,0.0107 -0.09755,0.15783 -0.0014,0.31289 0.118869,0.19232 0.05087,-0.0509 0.06181,-0.14222 0.02425,-0.20297 z m -3.882223,0.0903 c 0.06418,-0.10384 -0.111406,-0.36602 -0.24513,-0.36602 -0.04466,0 -0.08119,0.10408 -0.08119,0.2313 0,0.23487 0.210674,0.32185 0.326322,0.13472 z m -8.419629,-1.00669 c -0.03352,-0.10561 -0.130992,-0.19075 -0.216617,-0.1892 -0.142002,0.002 -0.141451,0.0111 0.0063,0.0971 0.08905,0.0519 0.161911,0.16163 0.161911,0.2439 0,0.0823 0.0246,0.125 0.0547,0.0949 0.03011,-0.0301 0.02732,-0.14111 -0.0063,-0.24672 z m -0.326037,0.0856 c 0,-0.0509 -0.01832,-0.0925 -0.04084,-0.0925 -0.02244,0 -0.06655,0.0416 -0.09799,0.0925 -0.03143,0.0509 -0.0131,0.0925 0.04084,0.0925 0.05386,0 0.09798,-0.0416 0.09798,-0.0925 z m 12.156848,-0.50475 c 1.634112,-0.41881 3.479071,-1.13082 3.479071,-1.34264 0,-0.23272 -0.279991,-2.06007 -0.327409,-2.13678 -0.02258,-0.0366 -0.411075,0.093 -0.863268,0.28796 -1.833755,0.79057 -3.421732,1.10471 -5.587035,1.10527 -1.582806,3.5e-4 -2.805864,-0.14692 -4.242334,-0.51106 -1.286817,-0.32619 -1.26079,-0.33213 -1.328632,0.30326 -0.03122,0.2926 -0.07739,0.66535 -0.102556,0.82834 -0.03686,0.23883 -0.0028,0.32442 0.175032,0.441 0.404238,0.26488 2.041758,0.86381 2.885398,1.05538 1.179019,0.2677 1.122912,0.26249 2.979801,0.27637 1.638844,0.0123 1.718336,0.003 2.931932,-0.3071 z m -11.786766,-0.0999 c 0,-0.0672 0.06738,-0.18968 0.1498,-0.27207 0.08239,-0.0824 0.125021,-0.17456 0.09475,-0.20483 -0.08645,-0.0865 -0.337067,0.16206 -0.337067,0.33423 0,0.0854 -0.05206,0.20763 -0.115656,0.27171 -0.09272,0.0934 -0.08355,0.10429 0.04627,0.0549 0.08904,-0.0339 0.161903,-0.11667 0.161903,-0.18391 z m -0.157687,-0.77514 c 0.246161,-0.5213 0.257728,-0.60649 0.244921,-1.80415 l -0.01338,-1.25701 -0.337582,0.002 c -0.185679,0.002 -0.774746,0.0673 -1.309053,0.14752 -0.615301,0.0924 -1.5497,0.14327 -2.548707,0.13883 -1.68038,-0.007 -1.518978,0.0198 -4.205264,-0.71188 -0.64445,-0.17555 -1.020259,-0.21459 -2.0817,-0.2163 -1.283479,-0.002 -1.632015,0.043 -4.626018,0.59867 -1.390153,0.25799 -2.689873,0.15622 -4.764786,-0.37308 -2.131947,-0.54386 -2.478365,-0.53569 -4.330565,0.10218 -1.335112,0.45978 -2.514536,0.68074 -3.639128,0.68179 -0.574783,5.4e-4 -0.962285,-0.0772 -2.073833,-0.41569 -1.40094,-0.42669 -2.094459,-0.51275 -2.390072,-0.29658 -0.147571,0.1079 -0.163221,0.30247 -0.158065,1.96606 0.0035,1.01546 0.0063,1.87751 0.0073,1.91568 0.0014,0.0382 7.19395,0.0694 15.984608,0.0694 h 15.983013 l 0.258355,-0.54712 z m 0.597213,-0.1699 c 0.01115,-0.26217 -0.0035,-0.30174 -0.06201,-0.16191 -0.04223,0.10176 -0.05874,0.21626 -0.03658,0.25442 0.02209,0.0382 -0.01436,0.07 -0.08097,0.0708 -0.088,0.002 -0.08317,0.0259 0.01763,0.0911 0.07633,0.0493 0.140678,0.0903 0.143006,0.0911 0.0028,5.5e-4 0.0108,-0.1547 0.01895,-0.34552 z m -35.557178,-0.29951 c 1.298871,-0.41315 1.299247,-0.41408 1.297003,-3.21159 -0.0014,-1.18058 -0.02794,-2.17272 -0.06,-2.20475 -0.03206,-0.032 -0.157764,0.007 -0.279392,0.0866 -0.773143,0.50658 -2.858961,0.8028 -4.437956,0.63026 -1.086784,-0.11875 -2.062189,-0.39133 -2.426857,-0.67817 -0.136916,-0.10771 -0.267017,-0.17774 -0.289113,-0.15563 -0.02209,0.0221 -0.06669,0.5785 -0.09903,1.23643 -0.05902,1.19992 0.0423,2.51497 0.262167,3.40172 0.124241,0.50114 0.341638,0.65954 1.279312,0.93214 1.206007,0.3506 3.593578,0.33197 4.753826,-0.0371 z m 35.798754,-0.0474 c -0.02927,-0.0763 -0.09553,-0.13878 -0.1472,-0.13878 -0.05414,0 -0.04515,0.0588 0.02119,0.13878 0.06334,0.0764 0.129585,0.13878 0.147201,0.13878 0.01763,0 0.008,-0.0624 -0.02119,-0.13878 z m 0.116263,-0.19999 c -0.07827,-0.14443 -0.143982,-0.23335 -0.146017,-0.19757 -0.0063,0.10997 0.20898,0.53953 0.249869,0.49865 0.02119,-0.0212 -0.02558,-0.15664 -0.103852,-0.30108 z m 0.497918,0.14281 c 0,-0.0509 -0.0416,-0.0667 -0.09252,-0.0353 -0.05087,0.0314 -0.09251,0.0988 -0.09251,0.14969 0,0.0509 0.0416,0.0667 0.09251,0.0353 0.05087,-0.0315 0.09252,-0.0988 0.09252,-0.14969 z m 0.231208,-0.63689 c -0.03143,-0.0508 -0.101365,-0.0924 -0.155472,-0.0924 -0.06201,0 -0.05582,0.0513 0.0168,0.13879 0.07957,0.0959 0.08307,0.13879 0.01129,0.13879 -0.05714,0 -0.103846,0.0717 -0.103846,0.15936 0,0.13094 0.02572,0.12266 0.144142,-0.0464 0.07927,-0.11317 0.11845,-0.24735 0.08706,-0.29814 z m -0.547225,0.21843 c -0.03206,-0.0835 -0.03198,-0.23472 1.89e-4,-0.33605 0.0471,-0.14847 0.07564,-0.1594 0.146936,-0.0563 0.06494,0.0938 0.07442,0.0773 0.03567,-0.062 -0.05784,-0.20828 0.167825,-0.5927 0.281329,-0.47919 0.03895,0.0389 0.02153,0.12005 -0.03867,0.18026 -0.154754,0.15477 -0.136622,0.3027 0.02105,0.17183 0.09078,-0.0753 0.149089,-0.0783 0.191434,-0.01 0.06884,0.11135 0.233144,0.0406 0.233144,-0.10046 0,-0.0509 -0.03957,-0.068 -0.08788,-0.0382 -0.04836,0.0299 -0.1316,-0.0274 -0.185038,-0.12725 -0.14164,-0.26466 -0.113364,-0.3617 0.0446,-0.1529 0.07471,0.0988 0.135835,0.13833 0.135835,0.0879 0,-0.0505 -0.0517,-0.14339 -0.114875,-0.20658 -0.0822,-0.0822 -0.08579,-0.13352 -0.01261,-0.18041 0.05805,-0.0372 0.074,-0.14464 0.03686,-0.24852 -0.06376,-0.1785 -0.068,-0.17808 -0.172411,0.017 -0.05888,0.11001 -0.107051,0.25153 -0.107051,0.31448 0,0.0629 -0.05791,0.18017 -0.128686,0.26051 -0.292464,0.33197 -0.515813,0.87105 -0.412462,0.99557 0.138923,0.1674 0.202785,0.15302 0.132603,-0.0299 z m 0.142275,-0.0957 c -0.109064,-0.18755 -0.135411,-0.12752 -0.04613,0.10515 0.03171,0.0826 0.07717,0.13084 0.100995,0.10702 0.02376,-0.0238 -5.37e-4,-0.1193 -0.05491,-0.21217 z m -0.147229,-1.111 c 0.303746,-0.59451 0.564708,-1.11059 0.579891,-1.14683 0.01519,-0.0363 -0.16175,-0.081 -0.393216,-0.0994 -0.308247,-0.0246 -0.420823,-4e-5 -0.420823,0.0915 0,0.0687 -0.08327,0.14675 -0.185038,0.17337 -0.168313,0.0441 -0.185044,0.1262 -0.185044,0.90898 0,0.47331 -0.02529,0.92643 -0.05616,1.00692 -0.03087,0.0805 -0.01924,0.14635 0.02599,0.14635 0.04515,0 0.330664,-0.48643 0.634417,-1.08094 z m 9.782251,0.56847 c 1.1012,-0.19262 2.21748,-0.52562 3.239586,-0.96638 0.736156,-0.31746 0.849896,-0.39605 0.828225,-0.57223 -0.01387,-0.11233 -0.04418,-0.22332 -0.06759,-0.24668 -0.02334,-0.0233 -0.303481,0.084 -0.622521,0.23862 -0.684112,0.33149 -1.663337,0.67597 -2.754294,0.96898 -0.714507,0.1919 -0.985252,0.21109 -2.960646,0.20978 -2.052191,-0.002 -2.229563,-0.0154 -3.160018,-0.25053 -0.542186,-0.13699 -1.227232,-0.33394 -1.52233,-0.43766 -0.57348,-0.20156 -0.719008,-0.16055 -0.668532,0.18844 0.02718,0.18806 0.137731,0.24009 0.909906,0.42843 1.821108,0.44415 2.757144,0.56639 4.394713,0.57385 1.02963,0.005 1.852811,-0.0418 2.38348,-0.13462 z m -8.590374,-0.78282 c 0.0563,-0.20619 0.05128,-0.2122 -0.0462,-0.0554 -0.104967,0.16883 -0.11466,0.16697 -0.242113,-0.0462 -0.123935,-0.20736 -0.109831,-0.1029 0.03449,0.25565 0.03951,0.0981 0.02585,0.13162 -0.03763,0.0924 -0.06369,-0.0393 -0.08178,0.007 -0.05017,0.12737 0.04675,0.17878 0.05553,0.18003 0.163952,0.0232 0.06299,-0.0911 0.14295,-0.26977 0.177673,-0.39698 z m 8.55646,0.0426 c 1.063113,-0.20166 2.369106,-0.6193 3.166525,-1.01259 0.375518,-0.18521 0.714076,-0.36757 0.752344,-0.40523 0.119977,-0.11807 -0.904694,-3.27118 -1.522442,-4.68485 -0.200123,-0.45798 -0.448577,-1.08248 -0.552108,-1.3878 -0.121845,-0.3593 -0.329026,-0.70582 -0.587312,-0.9823 -0.469405,-0.50249 -0.810973,-1.14145 -1.028566,-1.92408 l -0.156844,-0.56415 -0.380589,0.57876 c -0.209329,0.31833 -0.562402,0.82858 -0.784606,1.13389 -0.490476,0.67391 -3.100678,3.28446 -3.284029,3.28446 -0.07209,0 -0.220051,0.14397 -0.328788,0.31992 -0.254238,0.41136 -0.705525,0.79033 -0.941151,0.79033 -0.14718,0 -0.341833,0.32467 -0.964772,1.60915 -0.447031,0.92177 -0.804668,1.78621 -0.837201,2.02362 l -0.05679,0.41445 0.450423,0.16062 c 1.711222,0.61023 2.638289,0.76138 4.765519,0.77697 1.043101,0.007 1.781619,-0.0346 2.290401,-0.13117 z m -8.494668,-0.5837 c -0.05498,-0.10279 -0.100013,-0.2729 -0.100013,-0.37801 0,-0.10512 -0.04411,-0.19112 -0.09798,-0.19112 -0.05387,0 -0.07224,0.0416 -0.04084,0.0925 0.03143,0.0509 0.01972,0.0925 -0.02592,0.0925 -0.04571,0 -0.131447,0.10604 -0.190508,0.23565 -0.133794,0.29366 -0.134191,0.28863 0.02265,0.28863 0.07221,0 0.108277,-0.0565 0.08117,-0.12715 -0.07614,-0.19841 0.195002,-0.0984 0.276591,0.10203 0.03923,0.0964 0.09467,0.15205 0.123147,0.12357 0.0285,-0.0285 0.007,-0.13586 -0.04822,-0.23864 z m -29.083944,-0.0569 c 1.26599,-0.16698 1.705981,-0.2739 2.708222,-0.65813 0.887287,-0.34016 2.150147,-0.54712 2.770654,-0.45406 0.228359,0.0342 1.061894,0.22953 1.852298,0.43398 1.152763,0.29817 1.656758,0.38111 2.547334,0.41919 1.02366,0.0437 1.250952,0.0195 2.914393,-0.31101 1.728049,-0.34337 1.880231,-0.35839 3.608281,-0.35605 l 1.804147,0.002 1.239503,0.38901 c 1.947104,0.61107 3.266413,0.68771 5.831266,0.33872 0.530438,-0.0722 1.212334,-0.13123 1.515313,-0.13123 h 0.550869 l -0.04732,-1.27216 c -0.02599,-0.69968 -0.09793,-1.40758 -0.159772,-1.5731 l -0.112451,-0.30094 -16.343394,0.0234 -16.343395,0.0234 -0.07283,0.41633 c -0.04006,0.229 -0.183331,0.90471 -0.318386,1.5016 -0.135069,0.59688 -0.22332,1.1075 -0.196117,1.1347 0.02718,0.0271 0.289712,-0.0606 0.583347,-0.19496 0.689108,-0.31548 1.264867,-0.27364 2.732498,0.19857 0.585186,0.18829 1.251334,0.37423 1.48032,0.41319 0.228992,0.0389 0.41899,0.0758 0.42223,0.0817 0.0035,0.007 0.468081,-0.05 1.03299,-0.12458 z m 29.770356,-0.90961 c 0.254425,-0.51926 0.462604,-0.98574 0.462604,-1.03663 0,-0.0509 0.02634,-0.11334 0.05867,-0.13878 0.103802,-0.0819 0.543042,-1.04823 0.497255,-1.09402 -0.02432,-0.0243 -0.101866,0.0929 -0.172334,0.26047 -0.08684,0.20653 -0.146636,0.2632 -0.185602,0.17591 -0.03163,-0.0709 -0.03637,-0.0417 -0.01052,0.0647 0.03289,0.13536 -0.05282,0.29941 -0.285029,0.54559 -0.262745,0.2786 -0.320699,0.40231 -0.277734,0.59289 0.05003,0.22196 0.04397,0.22771 -0.07702,0.0734 -0.08316,-0.10605 -0.153542,-0.13149 -0.191922,-0.0694 -0.03331,0.0539 -0.02285,0.0981 0.02334,0.0981 0.04613,0 0.08745,0.12489 0.0918,0.27755 0.0079,0.27636 -0.116206,0.38213 -0.189915,0.16191 -0.02125,-0.0636 -0.02097,-0.002 5.37e-4,0.13878 0.04745,0.30737 -0.04201,0.33365 -0.157583,0.0462 -0.06062,-0.15082 -0.08529,-0.16506 -0.08954,-0.0517 -0.0035,0.086 0.03184,0.17976 0.07797,0.20825 0.101337,0.0626 0.02076,0.42172 -0.09462,0.42172 -0.04495,0 -0.08172,0.0624 -0.08172,0.13878 0,0.30395 0.159374,0.0883 0.601374,-0.81378 z m 0.141612,-0.71282 c 0,-0.0763 0.04035,-0.20122 0.08969,-0.27755 0.07972,-0.12337 0.08969,-0.12337 0.08969,0 0,0.0763 -0.04041,0.20123 -0.08969,0.27755 -0.07972,0.12337 -0.08969,0.12337 -0.08969,0 z m -0.714667,1.04535 c -0.06076,-0.0217 -0.08753,-0.0993 -0.05951,-0.17237 0.02808,-0.073 0.0084,-0.13281 -0.04376,-0.13281 -0.162537,0 -0.17977,0.22605 -0.02593,0.33939 0.08071,0.0594 0.167631,0.085 0.193155,0.0568 0.0255,-0.0283 -0.0035,-0.0692 -0.06404,-0.0909 z m -35.47862,-1.13786 c 0.109489,-0.48342 0.234155,-1.11532 0.277051,-1.40424 0.06473,-0.43625 0.131188,-0.56957 0.391871,-0.78642 0.172641,-0.14361 0.524627,-0.44849 0.78218,-0.67747 0.257554,-0.22899 0.733642,-0.64533 1.057964,-0.9252 0.875616,-0.7556 0.876598,-0.75675 0.724966,-0.84159 -0.07052,-0.0394 -0.688321,-0.25788 -1.3729,-0.48534 -1.214634,-0.40359 -2.365176,-0.67484 -3.079494,-0.72604 l -0.354473,-0.0254 -0.0093,1.56689 -0.0093,1.5669 0.228176,0.0968 c 0.125496,0.0532 0.354989,0.18826 0.509987,0.30006 0.274863,0.19829 0.284493,0.23132 0.391104,1.34155 0.06014,0.62605 0.108821,1.34435 0.108236,1.59624 -0.0014,0.6404 0.120234,0.43521 0.353957,-0.59675 z m 35.093187,0.51294 c 0.125336,-0.25667 0.639356,-1.27854 1.142278,-2.27082 1.055448,-2.08244 1.140472,-2.39996 0.820408,-3.06343 -0.559606,-1.16 -0.821872,-2.9337 -0.749082,-5.066 0.02718,-0.79553 0.07899,-1.51927 0.115195,-1.60832 0.0625,-0.15371 -0.551488,-0.16191 -12.129072,-0.16191 H 46.869416 l -0.516677,0.53199 c -0.708563,0.72955 -1.145238,1.38007 -1.059224,1.57793 0.03748,0.0863 0.08128,0.50197 0.0973,0.92383 0.01602,0.42186 0.05387,0.80697 0.08401,0.85581 0.03415,0.0552 2.241603,0.0888 5.831941,0.0888 5.563706,0 5.777054,-0.007 5.777054,-0.17153 0,-0.39008 0.652637,-0.84619 1.210766,-0.84619 0.201566,0 0.301091,-0.0605 0.378311,-0.23 0.212791,-0.46701 0.974535,-0.75682 1.571288,-0.59779 0.342899,0.0914 0.845005,0.56813 0.951401,0.90336 0.04341,0.13673 0.144274,0.18146 0.417702,0.18523 0.655153,0.009 1.206781,0.4755 1.206781,1.02045 0,0.11432 1.01773,1.17448 2.784333,2.90036 3.172302,3.0992 3.044438,2.90742 3.044438,4.5663 0,0.46384 0.01924,0.86254 0.04265,0.88598 0.02341,0.0235 0.245708,0.0426 0.493925,0.0426 0.450285,0 0.451818,-0.002 0.67918,-0.46668 z m 0.43175,-0.007 c -0.0285,-0.0285 -0.08021,0.0229 -0.11496,0.11412 -0.05024,0.13186 -0.03957,0.14248 0.05177,0.0518 0.0632,-0.0628 0.09166,-0.13742 0.0632,-0.1659 z m 0.240427,-0.17201 c -0.0271,-0.0705 0.03672,-0.28848 0.141689,-0.48437 0.104981,-0.19587 0.190876,-0.31908 0.190876,-0.27378 0,0.0453 0.08327,0.007 0.185044,-0.0851 0.101769,-0.0921 0.185044,-0.20909 0.185044,-0.25998 0,-0.0509 -0.07625,-0.0236 -0.169421,0.0608 -0.09318,0.0843 -0.191776,0.13096 -0.219105,0.10364 -0.02732,-0.0273 -0.154071,0.17034 -0.281643,0.43927 -0.162321,0.34218 -0.200701,0.50935 -0.127849,0.55693 0.143535,0.0937 0.151513,0.0889 0.09536,-0.0574 z m -39.009904,-1.07735 c 0.956424,-0.11992 1.890391,-0.40508 2.200575,-0.6719 0.206478,-0.1776 0.226079,-0.23913 0.144511,-0.45367 -0.11004,-0.28943 -0.271992,-0.38754 -1.054305,-0.63869 -1.394417,-0.44766 -3.527967,-0.44585 -4.980568,0.004 -1.453618,0.4504 -1.450552,1.04789 0.0076,1.4908 1.117032,0.33929 2.384415,0.43197 3.682136,0.26924 z m 39.699625,-0.27476 c 0.05797,0 0.09504,-0.0375 0.08232,-0.0833 -0.01275,-0.0458 0.01854,-0.093 0.0694,-0.10496 0.05087,-0.012 0.147173,-0.0997 0.213977,-0.1951 0.101399,-0.14475 0.09906,-0.1958 -0.01407,-0.309 -0.119127,-0.11912 -0.142184,-0.11844 -0.18979,0.006 -0.03087,0.0805 -0.01477,0.11689 0.03728,0.0847 0.05031,-0.0311 0.09146,0.0108 0.09146,0.0932 0,0.0823 -0.03895,0.12565 -0.08649,0.0962 -0.08838,-0.0546 -0.563536,0.50093 -0.558213,0.65265 0.0014,0.0461 0.05826,0.011 0.125851,-0.0782 0.06759,-0.089 0.170356,-0.1619 0.228358,-0.1619 z m 1.026858,-1.14909 c 0.148838,-0.29102 0.247757,-0.58869 0.219822,-0.66147 -0.06265,-0.1632 -0.184835,-0.17145 -0.247276,-0.0168 -0.02787,0.0691 -0.04954,0.0505 -0.05393,-0.0463 -0.01212,-0.26915 -0.147166,-0.18268 -0.288946,0.18505 -0.207921,0.53922 -0.20868,0.54982 -0.01805,0.25203 0.20599,-0.32177 0.585863,-0.42063 0.510621,-0.13289 -0.06396,0.24476 -0.303452,0.43953 -0.303452,0.24684 0,-0.0783 0.04271,-0.16356 0.09483,-0.18944 0.05219,-0.0259 0.04181,-0.0354 -0.02306,-0.0211 -0.07503,0.0164 -0.108423,0.14596 -0.09175,0.35577 0.01442,0.1814 -0.0168,0.35643 -0.0694,0.38891 -0.05261,0.0325 -0.09561,0.10521 -0.09561,0.16157 0,0.15622 0.07117,0.0547 0.366297,-0.52233 z m -4.607782,0.17861 c 0.02425,-0.0242 -0.791268,-0.87711 -1.812391,-1.89511 l -1.856589,-1.85092 -0.04627,0.67719 c -0.03651,0.53473 -0.09974,0.75784 -0.300519,1.06072 -0.344537,0.51973 -0.540932,0.62359 -1.457367,0.77068 -1.071844,0.17203 -5.066679,0.17343 -5.63726,0.002 -0.785553,-0.23605 -1.116711,-0.89759 -1.116711,-2.23076 0,-0.44986 0.04006,-0.66249 0.140483,-0.74586 0.07727,-0.0641 0.208129,-0.2591 0.290785,-0.4333 0.08266,-0.1742 0.299732,-0.41827 0.482372,-0.54239 l 0.332071,-0.22564 h -5.572703 -5.572687 l 0.0035,0.20816 c 0.0014,0.1145 0.06279,0.4788 0.135529,0.80956 0.215078,0.97781 0.179986,1.5444 -0.128922,2.08171 -0.33791,0.58775 -0.502984,0.72784 -1.073837,0.91135 -0.749913,0.24106 -1.415907,0.28101 -2.024555,0.12143 -1.198579,-0.31422 -1.679579,-1.36375 -1.343398,-2.93127 0.05588,-0.26045 0.0803,-0.49479 0.05435,-0.52077 -0.04348,-0.0435 -3.94454,3.33228 -5.011464,4.33672 l -0.464339,0.43714 15.96799,0.002 c 8.782393,0.002 15.987869,-0.0181 16.012173,-0.0424 z m -18.225222,-0.67816 c -0.230609,-0.0222 -0.294618,-0.0647 -0.254426,-0.16948 0.02954,-0.0769 0.05366,-0.40715 0.05366,-0.73375 0,-0.53213 0.01924,-0.59381 0.185038,-0.59381 0.166063,0 0.185044,-0.0617 0.185044,-0.60138 0,-0.45318 0.03184,-0.60139 0.129258,-0.60139 0.07108,0 0.388477,-0.2924 0.705316,-0.64978 l 0.576072,-0.64978 1.584548,0.0253 1.584556,0.0252 0.08254,1.55234 c 0.07644,1.43767 0.06961,1.57658 -0.09252,1.88032 -0.09628,0.18037 -0.222093,0.36748 -0.279565,0.41578 -0.09783,0.0822 -3.783814,0.16518 -4.459551,0.10039 z m 4.101453,-0.71136 v -0.46133 h -2.035439 -2.035445 l -0.02808,0.43758 -0.02808,0.43757 1.924786,0.0278 c 1.058632,0.0153 1.987233,0.0259 2.063562,0.0237 0.104277,-0.003 0.138783,-0.11873 0.138783,-0.46534 z m 0.503744,-0.7389 c -0.0021,-0.60852 -0.0101,-0.6332 -0.132262,-0.40857 -0.09077,0.16694 -0.113461,0.39916 -0.0752,0.76984 0.07375,0.71454 0.210415,0.47655 0.207462,-0.36127 z m -0.64252,-0.50885 v -0.4626 h -1.757886 -1.757879 v 0.4626 0.4626 h 1.757879 1.757886 z m 0.551844,-0.96602 c -0.0035,-0.37218 -0.0041,-0.37347 -0.135501,-0.14422 -0.07273,0.12721 -0.13238,0.37702 -0.132568,0.55511 -2.72e-4,0.30457 0.0077,0.31315 0.135508,0.14423 0.07471,-0.0988 0.134358,-0.34858 0.132561,-0.55512 z m -0.414629,-0.23368 c 0.128074,-0.25273 0.232874,-0.49213 0.232874,-0.53199 6e-6,-0.0398 -0.593276,-0.0647 -1.31841,-0.0552 l -1.318424,0.0173 -0.449503,0.51474 -0.44949,0.51473 h 1.535047 1.535054 z m 18.413082,3.79026 c 0.03143,-0.0509 0.0131,-0.0925 -0.04084,-0.0925 -0.05387,0 -0.09799,0.0416 -0.09799,0.0925 0,0.0509 0.01832,0.0925 0.04084,0.0925 0.02244,0 0.06654,-0.0416 0.09798,-0.0925 z m -44.417182,-0.69673 c 0.45898,-0.19178 1.979408,-0.41271 2.829354,-0.41114 0.631927,0.002 1.60773,0.10365 2.234851,0.23471 l 0.245681,0.0514 0.06466,-0.77608 c 0.07433,-0.89235 -0.07055,-2.71548 -0.259025,-3.25939 -0.193371,-0.55808 -0.411981,-0.62544 -2.04711,-0.63083 -0.767555,-0.002 -1.666165,0.0466 -1.996926,0.10926 -0.65307,0.12364 -2.287733,0.63657 -2.348954,0.73705 -0.02076,0.0342 0.08034,0.41597 0.224742,0.84849 0.286415,0.85783 0.643885,2.49676 0.643885,2.95205 0,0.33389 -0.02404,0.32541 0.408852,0.14455 z m 45.821013,-0.26567 c 0.143842,-0.12222 0.362849,-0.41018 0.486672,-0.63988 0.203008,-0.37662 0.214317,-0.45376 0.115127,-0.78484 -0.132756,-0.4431 -0.357226,-0.52825 -0.861088,-0.32664 -0.443428,0.17743 -0.460304,0.30824 -0.03979,0.30824 0.175094,0 0.341944,0.0382 0.370778,0.0848 0.02878,0.0467 -0.0728,0.40999 -0.225842,0.80744 -0.153047,0.39745 -0.278257,0.734 -0.278257,0.74787 0,0.088 0.209029,-0.007 0.43237,-0.197 z m -0.674628,-0.0138 c 0.03157,-0.0823 0.0161,-0.11948 -0.03637,-0.0871 -0.05031,0.031 -0.09146,0.0957 -0.09146,0.14359 0,0.13308 0.06634,0.10376 0.127815,-0.0565 z m -10.39756,-0.54561 c 1.00663,-0.23758 1.387798,-0.65441 1.387798,-1.51764 v -0.45814 l -0.43947,0.13267 c -1.356916,0.40967 -6.292894,0.36511 -7.322282,-0.0661 l -0.221361,-0.0927 0.06327,0.61752 c 0.06822,0.66616 0.23957,1.17167 0.4394,1.29649 0.542507,0.33891 4.770724,0.39994 6.092645,0.0879 z m 10.360385,-0.1398 c 0.22424,-0.43956 0.226839,-0.46629 0.04523,-0.46629 -0.07793,0 -0.165652,-0.0624 -0.194939,-0.13878 -0.09928,-0.25872 -0.172139,-0.1404 -0.200109,0.325 -0.02523,0.41984 0.01819,0.64646 0.123969,0.64646 0.02139,0 0.123036,-0.16487 0.225843,-0.36639 z M 44.08842,158.9358 c 0.876,-0.22784 1.429167,-0.87747 1.4313,-1.68088 5.37e-4,-0.19246 -0.09316,-0.88279 -0.208172,-1.53406 -0.19436,-1.10067 -0.222142,-1.17986 -0.394135,-1.12346 -0.383788,0.12585 -2.11739,0.15483 -2.613964,0.0436 -0.274904,-0.0615 -0.514663,-0.097 -0.532807,-0.0788 -0.01812,0.0181 -0.139808,0.50623 -0.270375,1.08465 -0.438969,1.94459 -0.278821,2.69162 0.681254,3.17791 0.584191,0.29589 1.084143,0.325 1.906899,0.11101 z m 31.036121,-1.15185 c 1.45674,-1.27596 2.866891,-3.13925 3.886119,-5.13488 0.311864,-0.61064 0.606084,-1.12412 0.653815,-1.14108 0.194995,-0.0693 0.0641,0.41625 -0.301774,1.11953 -0.250802,0.48207 -0.380979,0.8464 -0.367168,1.02762 0.05094,0.66836 0.569124,2.00835 0.874751,2.26199 0.115329,0.0957 0.144595,-0.20678 0.21539,-2.22629 0.151591,-4.32395 0.07752,-5.0815 -0.527329,-5.3943 -0.485397,-0.25101 -0.610188,-0.14845 -0.921954,0.75769 -0.146281,0.42519 -0.151013,0.50267 -0.03463,0.56777 0.45225,0.25309 -1.4478,3.61411 -3.620329,6.40406 -0.336815,0.43253 -0.687017,0.94625 -0.778229,1.14161 -0.153835,0.32944 -0.155423,0.38778 -0.02202,0.80506 0.164648,0.51486 0.132734,0.52124 0.943387,-0.18878 z m -1.925991,-0.51726 c 0.308275,-0.15941 0.332872,-0.31876 0.07417,-0.48033 -0.344446,-0.21511 -0.817056,0.21048 -0.897182,0.80792 l -0.05094,0.37982 0.30631,-0.28613 c 0.168467,-0.15737 0.42391,-0.34695 0.56764,-0.42128 z m -33.290316,-0.83194 c 0.786265,-0.69117 1.453772,-1.34691 1.483351,-1.45719 0.02954,-0.11028 0.05567,-0.57522 0.05797,-1.0332 0.0028,-0.5805 0.04501,-0.88663 0.138979,-1.01083 0.122185,-0.16148 0.09639,-0.25028 -0.276125,-0.95053 -0.451127,-0.84803 -0.841026,-1.37504 -1.606477,-2.17139 -0.335081,-0.3486 -0.485291,-0.57353 -0.44797,-0.67077 0.195705,-0.50999 1.801144,0.39764 2.686912,1.51905 l 0.255777,0.32382 -0.05986,-0.41633 c -0.13309,-0.92527 -0.53425,-2.54374 -0.780439,-3.14871 -0.143814,-0.35339 -0.230706,-0.62351 -0.193086,-0.60026 0.03762,0.0232 0.28719,0.37552 0.554589,0.78283 0.354244,0.53957 0.608293,1.09672 0.936113,2.05295 0.247458,0.72182 0.467587,1.2538 0.489181,1.18219 0.21454,-0.71171 0.598188,-1.71821 0.906582,-2.37843 1.534657,-3.28543 1.639805,-4.90151 0.539949,-8.2991 -0.724764,-2.2389 -0.997439,-3.18929 -1.150966,-4.01172 -0.189539,-1.01524 -0.188738,-3.17613 0.0014,-4.39657 0.114457,-0.73381 1.469115,-6.53505 1.75822,-7.52947 l 0.06084,-0.20931 -3.411209,0.0242 -3.41121,0.0242 -0.06578,0.97147 c -0.186919,2.76041 -0.587827,4.22771 -2.806095,10.2701 -1.784051,4.85963 -1.877389,5.34315 -1.982356,10.26938 -0.05944,2.7884 -0.104271,3.57849 -0.228511,4.02464 -0.219578,0.78851 -0.841284,2.01077 -1.807652,3.55383 -0.459273,0.73333 -0.835041,1.36825 -0.835041,1.41093 0,0.0427 0.138072,0.0776 0.306832,0.0776 0.462646,0 1.380544,0.18368 1.590381,0.31825 0.174021,0.1116 0.415792,0.7769 0.415792,1.14417 0,0.13779 0.162796,0.19021 1.002561,0.32284 1.078059,0.17026 1.954873,0.4131 3.34589,0.9266 0.483418,0.17847 0.929054,0.32826 0.990297,0.3329 0.06125,0.005 0.754657,-0.55711 1.540922,-1.24828 z m 32.70253,0.22073 c 0.157939,-0.1329 0.332051,-0.2566 0.386896,-0.27487 0.07077,-0.0236 0.0727,-0.32842 0.007,-1.04971 -0.07295,-0.79672 -0.141055,-3.43283 -0.10574,-4.09275 0.0035,-0.0636 0.06864,-0.11565 0.144963,-0.11565 0.08785,0 0.138783,-0.0885 0.138783,-0.24108 0,-0.34358 -0.257157,-1.29037 -0.478191,-1.76061 -0.171268,-0.36434 -0.206046,-0.39086 -0.386986,-0.29504 -0.151466,0.0803 -0.520808,0.42179 -0.522934,0.4836 -1.81e-4,0.005 -0.08463,0.42532 -0.187706,0.93419 -0.406587,2.00733 -0.322434,4.90524 0.190437,6.55798 l 0.197574,0.63669 0.164537,-0.27056 c 0.0905,-0.1488 0.29376,-0.37929 0.451699,-0.51219 z m -14.126047,-0.0356 c 0.191929,-1.15889 -1.147286,-1.73962 -2.121432,-0.91991 -0.266856,0.22454 -0.371293,0.5594 -0.147702,0.4736 0.07122,-0.0273 0.09952,0.004 0.07079,0.0792 -0.02634,0.0685 0.0035,0.15656 0.06669,0.1955 0.07992,0.0494 0.0967,0.0243 0.05547,-0.0832 -0.06341,-0.16524 0.07148,-0.21504 0.166412,-0.0615 0.03143,0.0509 0.126966,0.0925 0.212261,0.0925 0.08529,0 -0.0108,-0.0881 -0.213634,-0.19571 -0.437735,-0.23236 -0.529922,-0.31053 -0.276187,-0.23424 0.101769,0.0306 0.247493,0.0114 0.323821,-0.0428 0.111169,-0.0788 0.09736,-0.0894 -0.0694,-0.0528 -0.114499,0.0251 -0.208171,0.009 -0.208171,-0.0349 0,-0.0982 0.367991,-0.30508 0.430802,-0.24227 0.02474,0.0247 0.148036,-0.009 0.27411,-0.074 0.288687,-0.14976 0.874905,-0.0189 1.116969,0.24935 0.184884,0.20489 0.238685,1.07739 0.07478,1.2128 -0.05526,0.0456 -0.0368,0.0612 0.04592,0.0387 0.0779,-0.0212 0.164705,-0.19632 0.198479,-0.40026 z m 2.476742,0.2264 c 0.569619,-0.61142 0.05651,-1.66741 -0.800089,-1.64667 -0.216533,0.006 -0.195399,0.025 0.138044,0.12917 0.216555,0.0676 0.475384,0.22098 0.575174,0.34076 0.218728,0.26252 0.236266,0.36943 0.04884,0.29749 -0.07634,-0.0293 -0.138784,-0.007 -0.138784,0.0491 0,0.0563 0.07937,0.10242 0.176383,0.10242 0.158824,0 0.166495,0.0323 0.077,0.32382 -0.05463,0.1781 -0.151382,0.32382 -0.214931,0.32382 -0.06355,0 -0.138184,0.052 -0.165847,0.11565 -0.02766,0.0636 -0.02829,-0.009 -0.0014,-0.16192 l 0.04892,-0.27755 -0.168272,0.26057 c -0.155667,0.24105 -0.206394,0.25844 -0.677129,0.23215 -0.279881,-0.0156 -0.539456,-0.0704 -0.576847,-0.12179 -0.0425,-0.0584 -0.06849,-0.0501 -0.0694,0.0223 -5.37e-4,0.0636 -0.03672,0.11564 -0.07986,0.11564 -0.135536,0 -0.07049,-1.16207 0.07486,-1.3372 0.126617,-0.15257 0.137208,-0.15205 0.200903,0.01 0.05867,0.14911 0.06808,0.15084 0.07375,0.0136 0.0035,-0.0865 0.07936,-0.19976 0.168419,-0.25163 0.146776,-0.0855 0.143626,-0.0946 -0.03366,-0.0971 -0.107552,-0.002 -0.305313,0.10695 -0.439469,0.2411 -0.19248,0.19248 -0.24419,0.33393 -0.245187,0.67076 -5.36e-4,0.23478 -0.02634,0.52055 -0.05707,0.63504 -0.05526,0.20627 -0.04689,0.20816 0.922867,0.20816 0.880145,0 0.997167,-0.0198 1.162686,-0.19753 z m 20.647382,-0.18037 c 0.479474,-0.20786 1.174373,-0.52339 1.544218,-0.70117 0.965496,-0.46411 1.757484,-0.51519 2.704536,-0.17444 0.381651,0.13731 0.773285,0.27392 0.870285,0.30356 0.169776,0.052 0.174357,5.4e-4 0.122168,-1.3716 -0.09325,-2.45191 -0.516765,-3.24651 -2.28773,-4.29212 -2.003909,-1.18315 -2.944933,-2.16327 -3.476605,-3.62101 -0.234198,-0.64214 -0.254085,-0.66676 -0.471683,-0.58402 -0.313557,0.11921 -1.01895,0.10832 -1.257635,-0.0193 -0.144844,-0.0775 -0.206875,-0.0782 -0.232134,-0.002 -0.09507,0.28521 -0.616083,0.67844 -1.253265,0.94592 -0.647495,0.2718 -0.710291,0.32127 -0.710291,0.55963 0,0.30854 0.280542,0.5063 0.531985,0.37499 0.08905,-0.0465 0.515805,-0.11192 0.948334,-0.14536 0.689499,-0.0534 0.822931,-0.0381 1.082617,0.12345 0.685666,0.42658 0.803685,1.32331 0.652408,4.95726 -0.08181,1.9652 -0.07943,2.60659 0.01115,3.00691 0.06334,0.27987 0.138225,0.62334 0.16644,0.7633 0.02822,0.13992 0.08103,0.25442 0.11737,0.25442 0.0363,0 0.45836,-0.17006 0.937833,-0.37792 z m -23.433179,0.1106 c 0.02544,-0.0772 0.0014,-0.10303 -0.06104,-0.0646 -0.06585,0.0407 -0.08344,0.0118 -0.04835,-0.0797 0.04341,-0.11303 -0.01436,-0.1436 -0.271051,-0.1436 -0.179386,0 -0.402414,-0.0237 -0.495632,-0.0527 -0.09321,-0.029 -0.06536,0.0112 0.06181,0.0892 0.127217,0.0781 0.31249,0.14337 0.411709,0.14517 0.288458,0.006 0.04488,0.17004 -0.319194,0.21599 -0.186395,0.0236 -0.110952,0.0362 0.17777,0.0297 0.338279,-0.007 0.515394,-0.0529 0.543998,-0.13967 z m 3.788601,-0.0565 c 0,-0.28763 -0.157242,-0.30847 -0.174515,-0.0231 l -0.01261,0.20818 -0.04027,-0.20955 c -0.02209,-0.11524 -0.07502,-0.18806 -0.117488,-0.16181 -0.133969,0.0828 0.01212,0.41762 0.182187,0.41762 0.111859,0 0.162691,-0.0723 0.162691,-0.2313 z m 12.143273,-0.13877 c 0.103838,-0.20355 0.164161,-0.37008 0.134045,-0.37008 -0.03011,0 0.01066,-0.0654 0.09064,-0.14539 0.172711,-0.17271 0.184075,-0.28239 0.0386,-0.37231 -0.06787,-0.0419 -0.08163,-0.0252 -0.0377,0.0458 0.04181,0.0676 -0.03477,0.2011 -0.19388,0.33784 -0.170996,0.14697 -0.275936,0.18728 -0.29999,0.11527 -0.02035,-0.0609 0.01087,-0.12672 0.0694,-0.14624 0.127147,-0.0423 0.143096,-0.20508 0.02007,-0.20508 -0.04745,0 -0.114826,0.0937 -0.149722,0.20817 -0.03491,0.1145 -0.130931,0.29145 -0.213412,0.39321 -0.08249,0.10178 -0.114248,0.1558 -0.07057,0.12006 0.08984,-0.0735 0.334949,0.13847 0.334949,0.28968 0,0.18595 0.08858,0.0995 0.27756,-0.27095 z m -0.3084,0.0309 c -0.03393,-0.0339 -0.06167,-0.10332 -0.06167,-0.1542 0,-0.0509 0.0271,-0.0655 0.06027,-0.0324 0.0331,0.0332 0.119802,-0.0119 0.192591,-0.10022 0.124666,-0.15116 0.12923,-0.15064 0.07854,0.009 -0.02954,0.0932 -0.05387,0.2077 -0.05387,0.25442 0,0.099 -0.126568,0.11259 -0.215877,0.0232 z m -16.946615,0.15778 c -0.270946,-0.0654 -0.256453,-0.0884 0.138777,-0.22025 0.07632,-0.0254 0.0035,-0.0495 -0.161911,-0.0536 -0.192549,-0.005 -0.300686,0.0371 -0.300686,0.11605 0,0.1847 0.09718,0.24793 0.362361,0.23579 0.22856,-0.0105 0.226866,-0.0139 -0.03854,-0.078 z m 5.991058,-0.0267 c 0.317173,-0.24227 0.2469,-0.95223 -0.105775,-1.06867 -0.07795,-0.0257 -0.103107,-0.002 -0.0639,0.0621 0.03553,0.0575 0.0154,0.10453 -0.04474,0.10453 -0.172405,0 0.09086,0.27609 0.271629,0.28487 0.100605,0.005 0.111162,0.0231 0.03184,0.0549 -0.06529,0.0262 -0.176912,-5.4e-4 -0.24798,-0.0596 -0.10181,-0.0845 -0.150901,-0.0666 -0.231445,0.0838 -0.09976,0.1864 0.02021,0.28514 0.130212,0.10717 0.0285,-0.0461 0.138561,-0.0611 0.244588,-0.0334 0.106019,0.0277 0.154984,0.0759 0.108806,0.10697 -0.0462,0.0311 -0.111942,0.13228 -0.146142,0.22483 -0.04341,0.11742 -0.117705,0.15068 -0.245819,0.11001 -0.100996,-0.0321 -0.257332,-0.0154 -0.347408,0.037 -0.134763,0.0784 -0.105441,0.0958 0.165492,0.0982 0.181094,0.002 0.397397,-0.0492 0.480665,-0.11285 z m -0.06976,-0.80954 c -0.03143,-0.0509 -0.0131,-0.0925 0.04084,-0.0925 0.05387,0 0.09798,0.0416 0.09798,0.0925 0,0.0509 -0.01832,0.0925 -0.04084,0.0925 -0.02244,0 -0.06654,-0.0416 -0.09798,-0.0925 z m -6.514967,0.56283 c -0.14148,-0.14148 -0.192751,-0.15706 -0.192751,-0.0585 0,0.0738 0.07251,0.17476 0.161137,0.22436 0.236887,0.13257 0.251798,0.0544 0.03157,-0.16579 z m 3.201749,-0.16962 c -0.02327,-0.089 -0.0423,-0.0163 -0.0423,0.16191 0,0.1781 0.0191,0.25096 0.0423,0.16191 0.02334,-0.089 0.02334,-0.23477 0,-0.32382 z m 4.099635,0.25442 c 0,-0.0509 -0.0416,-0.0925 -0.09251,-0.0925 -0.05087,0 -0.09253,0.0416 -0.09253,0.0925 0,0.0509 0.0416,0.0925 0.09253,0.0925 0.05087,0 0.09251,-0.0416 0.09251,-0.0925 z m -4.285251,-0.38742 c -0.02954,-0.0738 -0.05149,-0.0519 -0.05588,0.0559 -0.0035,0.0975 0.01784,0.15218 0.04864,0.12144 0.03073,-0.0307 0.03401,-0.11055 0.0073,-0.17733 z m 2.643021,0.10698 c -0.114499,-0.0461 -0.208178,-0.10828 -0.208178,-0.13837 0,-0.0301 0.03777,-0.0314 0.08398,-0.002 0.0462,0.0285 0.181498,0.0128 0.300694,-0.0349 l 0.216714,-0.0868 -0.208172,-0.006 c -0.114492,-0.003 -0.208171,-0.05 -0.208171,-0.10385 0,-0.0539 -0.04808,-0.0683 -0.106814,-0.0319 -0.06829,0.0422 -0.08161,0.0252 -0.03693,-0.0471 0.03846,-0.0622 0.128151,-0.0908 0.199337,-0.0635 0.07468,0.0287 0.129425,-0.007 0.129425,-0.0862 0,-0.16118 -0.04536,-0.16761 -0.28365,-0.0402 -0.113363,0.0607 -0.178954,0.19348 -0.178954,0.36237 0,0.26287 0.09798,0.35854 0.370082,0.36136 0.07633,5.4e-4 0.04509,-0.0363 -0.0694,-0.0822 z m -4.540499,-0.22771 c -0.02634,-0.14459 0.02355,-0.15908 0.401258,-0.11651 0.498837,0.0563 0.444473,-0.0632 -0.07044,-0.15473 -0.218979,-0.0389 -0.346948,-0.026 -0.346948,0.035 0,0.0532 -0.04606,0.0967 -0.102417,0.0967 -0.0563,0 -0.07845,-0.0624 -0.04913,-0.13876 0.02927,-0.0763 0.01163,-0.13879 -0.03923,-0.13879 -0.172579,0 -0.213147,0.29749 -0.05282,0.38722 0.08525,0.0476 0.127531,0.13123 0.09394,0.18558 -0.03553,0.0575 -0.0072,0.0801 0.06745,0.0541 0.07069,-0.0246 0.114967,-0.11905 0.0984,-0.20988 z m 0.862816,0.13807 c 0.03143,-0.0509 0.0131,-0.0925 -0.04084,-0.0925 -0.05387,0 -0.09798,0.0416 -0.09798,0.0925 0,0.0509 0.01832,0.0925 0.04084,0.0925 0.02244,0 0.06654,-0.0416 0.09798,-0.0925 z m 1.4968,-0.0753 c -0.163068,-0.0323 -0.163068,-0.0375 0,-0.16113 0.138643,-0.1051 0.143103,-0.12831 0.02515,-0.13072 -0.07887,-0.002 -0.191915,0.0456 -0.251207,0.10485 -0.08206,0.0821 -0.07015,0.13535 0.04982,0.22311 0.08672,0.0634 0.199767,0.0887 0.251213,0.0563 0.05149,-0.0324 0.0177,-0.074 -0.07502,-0.0924 z m 0.987446,-0.31615 c 0.07711,-0.0493 0.07766,-0.0684 0.0021,-0.0694 -0.178599,-0.002 -0.319347,0.24244 -0.245054,0.42632 0.06188,0.15311 0.07408,0.1463 0.103441,-0.0576 0.01832,-0.12722 0.08113,-0.26189 0.139613,-0.29927 z m -1.449584,0.004 c -0.02954,-0.0738 -0.05149,-0.052 -0.05588,0.0558 -0.0035,0.0975 0.01784,0.15218 0.04864,0.12144 0.03073,-0.0307 0.03401,-0.11054 0.0073,-0.17734 z m 14.554989,-0.63029 c 0.251095,-0.49941 0.424481,-0.74005 0.533023,-0.73982 0.24242,5.4e-4 0.759304,0.34562 0.83856,0.55987 0.06055,0.16371 0.138407,0.0926 0.582893,-0.53259 0.533616,-0.75053 1.760925,-2.74799 2.103866,-3.42406 0.122979,-0.24243 0.197586,-0.56307 0.197586,-0.8491 0,-0.2725 0.110647,-0.77224 0.271797,-1.22764 0.149487,-0.42243 0.255513,-0.78433 0.235612,-0.80423 -0.01993,-0.0199 -0.182327,-0.009 -0.360946,0.0247 -0.275734,0.0517 -0.339736,0.11277 -0.423917,0.40432 -0.05456,0.18886 -0.124694,0.62626 -0.155911,0.97201 -0.03986,0.44109 -0.101295,0.65245 -0.206032,0.7085 -0.16791,0.0899 -2.374478,0.3745 -2.90323,0.3745 h -0.34322 l -0.0041,-0.62452 c -0.0021,-0.34347 -0.07508,-0.83267 -0.161903,-1.08709 l -0.157862,-0.46261 -0.505869,0.0279 c -0.278228,0.0153 -0.52308,0.0451 -0.544103,0.066 -0.02097,0.021 0.03637,0.19539 0.127488,0.38748 0.09115,0.19207 0.261561,0.69756 0.378695,1.12329 l 0.212965,0.77407 -0.19528,0.56427 c -0.182355,0.52692 -0.1911,0.68063 -0.132143,2.32277 0.05791,1.61305 0.111281,2.18207 0.204646,2.18207 0.01937,0 0.20266,-0.33308 0.40734,-0.74016 z m -13.406147,0.43947 c 0.05957,-0.1145 0.07527,-0.1773 0.03491,-0.1396 -0.04035,0.0378 -0.125564,0.0253 -0.189329,-0.0276 -0.08031,-0.0667 -0.134345,-0.0664 -0.175882,5.4e-4 -0.03303,0.0534 0.0049,0.097 0.08428,0.097 0.172355,0 0.192221,0.15026 0.02857,0.21629 -0.08717,0.0352 -0.08797,0.0485 -0.0035,0.054 0.06181,0.003 0.161136,-0.0864 0.220699,-0.20087 z m 2.118686,0.0231 c 0,-0.0509 -0.06494,-0.0925 -0.144239,-0.0925 -0.07934,0 -0.118513,0.0416 -0.08706,0.0925 0.03143,0.0509 0.09635,0.0925 0.144246,0.0925 0.04787,0 0.08705,-0.0416 0.08705,-0.0925 z m -2.708144,-0.0559 c -0.03073,-0.0307 -0.110542,-0.034 -0.177331,-0.007 -0.07381,0.0296 -0.05191,0.0515 0.05588,0.0559 0.09753,0.003 0.152183,-0.0178 0.121432,-0.0486 z m 14.365686,-0.0421 c 0,-0.0539 0.0416,-0.0723 0.09252,-0.0408 0.05087,0.0315 0.09252,0.0131 0.09252,-0.0408 0,-0.0539 -0.05206,-0.0994 -0.115657,-0.10125 -0.06362,-0.002 -0.0262,-0.0539 0.08307,-0.11566 0.157206,-0.0889 0.174432,-0.13473 0.08245,-0.21947 -0.0905,-0.0834 -0.149925,-0.0366 -0.268111,0.21131 -0.177644,0.37254 -0.182354,0.40466 -0.0593,0.40466 0.05087,0 0.09252,-0.0442 0.09252,-0.098 z m -14.973526,-0.9706 c -0.05777,-0.12675 -0.212296,-0.27124 -0.343449,-0.3211 -0.305126,-0.11601 -0.437623,-0.11534 -0.36519,0.002 0.03143,0.0509 -0.01017,0.0925 -0.09253,0.0925 -0.08233,0 -0.123962,-0.0416 -0.09251,-0.0925 0.07462,-0.12074 -0.152252,-0.11801 -0.477829,0.006 -0.288994,0.10988 -0.397599,0.24029 -0.399696,0.47994 -0.0028,0.26334 0.168739,0.18446 0.200604,-0.0925 0.02236,-0.19423 0.07744,-0.25281 0.232852,-0.24757 0.12151,0.004 0.17961,-0.0333 0.144149,-0.0925 -0.03268,-0.0546 0.01136,-0.0419 0.09791,0.0283 0.100793,0.0817 0.273371,0.10879 0.480351,0.0752 0.177673,-0.0288 0.32304,-0.0134 0.32304,0.0343 0,0.0476 -0.07287,0.0873 -0.16191,0.0881 -0.129599,0.002 -0.136135,0.0177 -0.03275,0.0832 0.07668,0.0485 0.104005,0.14725 0.06724,0.24298 -0.05247,0.13673 -0.04014,0.14316 0.08127,0.0424 0.210095,-0.17437 0.262766,-0.0572 0.0577,0.12841 -0.15759,0.14262 -0.188563,0.14407 -0.317779,0.0148 -0.183637,-0.18364 -0.308045,-0.18713 -0.156385,-0.004 0.16954,0.20429 -0.0363,0.16925 -0.22394,-0.0381 -0.152044,-0.168 -0.151598,-0.1791 0.0088,-0.22056 0.135675,-0.035 0.127948,-0.0458 -0.0393,-0.0544 -0.2896,-0.0149 -0.259959,0.13982 0.09251,0.48297 l 0.300694,0.29273 0.360563,-0.34967 c 0.325611,-0.31578 0.350383,-0.37201 0.255568,-0.58011 z m -0.662386,0.69848 c 0,-0.0509 0.0416,-0.0925 0.09252,-0.0925 0.05087,0 0.09253,0.0416 0.09253,0.0925 0,0.0509 -0.0416,0.0925 -0.09253,0.0925 -0.05087,0 -0.09252,-0.0416 -0.09252,-0.0925 z m 3.470251,-0.0792 c 0.203963,-0.0328 0.368451,-0.10128 0.365531,-0.15217 -0.01484,-0.25983 -0.16547,-0.50886 -0.307745,-0.50886 -0.08817,0 -0.210261,-0.0416 -0.271323,-0.0925 -0.08074,-0.0673 -0.08579,-0.0622 -0.01853,0.0185 0.130004,0.156 0.11528,0.44281 -0.02306,0.45059 -0.06361,0.003 -0.0324,0.0432 0.0694,0.0881 0.136651,0.0602 0.07616,0.0767 -0.231299,0.0629 -0.287113,-0.0129 -0.46413,-0.0761 -0.570288,-0.20373 -0.08467,-0.10177 -0.184473,-0.15463 -0.22178,-0.11746 -0.121008,0.12056 0.451141,0.6118 0.653285,0.56091 0.101776,-0.0256 0.351916,-0.0734 0.555865,-0.10623 z m -0.694641,-0.0134 c 0,-0.0509 0.0416,-0.0925 0.09252,-0.0925 0.05087,0 0.09253,0.0416 0.09253,0.0925 0,0.0509 -0.0416,0.0925 -0.09253,0.0925 -0.05087,0 -0.09252,-0.0416 -0.09252,-0.0925 z m 0.771004,-0.23131 c 0,-0.0763 0.03463,-0.13877 0.0771,-0.13877 0.04244,0 0.07709,0.0624 0.07709,0.13877 0,0.0763 -0.0347,0.13878 -0.07709,0.13878 -0.04244,0 -0.0771,-0.0624 -0.0771,-0.13878 z m 12.644425,0.32382 c 0,-0.11591 -0.09819,-0.11591 -0.27756,0 -0.112229,0.0725 -0.09895,0.09 0.0694,0.0911 0.114499,5.4e-4 0.208178,-0.0403 0.208178,-0.0911 z m -0.05157,-0.31625 c -0.0987,-0.0722 -0.19912,-0.11154 -0.223174,-0.0875 -0.05093,0.051 0.187665,0.21521 0.315549,0.21729 0.04794,5.3e-4 0.0063,-0.0576 -0.09238,-0.1298 z m -16.7871,-0.23011 c 0,-0.13314 0.05101,-0.16652 0.208172,-0.13616 0.197677,0.0382 0.197008,0.0353 -0.01338,-0.0569 -0.121886,-0.0534 -0.237682,-0.0811 -0.257331,-0.0614 -0.08433,0.0843 -0.104124,0.43085 -0.0246,0.43085 0.04794,0 0.08721,-0.0794 0.08721,-0.17638 z m 3.620496,-0.11197 c 0.08412,-0.0541 0.03352,-0.07 -0.150991,-0.0472 -0.15265,0.0188 -0.215098,0.0148 -0.138776,-0.009 0.289823,-0.0904 0.32959,-0.23563 0.04627,-0.16893 -0.404839,0.0953 -0.928315,0.35843 -0.798897,0.40158 0.06118,0.0204 0.170481,-0.0121 0.242914,-0.0722 0.102703,-0.0852 0.17738,-0.0773 0.339255,0.0361 0.144274,0.10105 0.226797,0.11427 0.27062,0.0434 0.03463,-0.0561 0.120003,-0.13868 0.189614,-0.1835 z m -1.448016,-0.0762 c 0.05275,-0.1663 0.415396,-0.37558 0.650764,-0.37558 0.274771,0 -0.163242,-0.67914 -0.492393,-0.76344 -0.175965,-0.0451 -0.194437,-0.0318 -0.105162,0.0758 0.05957,0.0718 0.150601,0.10431 0.202325,0.0724 0.05219,-0.0323 0.07409,-0.002 0.04919,0.0704 -0.02662,0.0763 -0.144247,0.11772 -0.289559,0.1019 -0.279517,-0.0304 -0.318636,0.11543 -0.09674,0.36063 0.132692,0.14662 0.133529,0.18419 0.008,0.3633 l -0.139919,0.19976 -0.163505,-0.26349 c -0.08993,-0.14492 -0.224645,-0.31424 -0.299364,-0.37624 -0.110834,-0.092 -0.114199,-0.13886 -0.01832,-0.25444 0.06466,-0.0779 0.08657,-0.14167 0.04864,-0.14167 -0.03791,0 -0.01714,-0.0624 0.04627,-0.13878 0.09434,-0.11367 0.08801,-0.13878 -0.03491,-0.13878 -0.08256,0 -0.150107,0.0416 -0.150107,0.0925 0,0.0509 -0.07286,0.0932 -0.16191,0.0939 -0.119085,0.002 -0.130491,0.0214 -0.04313,0.0768 0.06536,0.0415 0.09355,0.14114 0.06271,0.22153 -0.03658,0.0954 0.0076,0.16634 0.127,0.20425 0.100689,0.032 0.248677,0.22206 0.328852,0.42244 0.151995,0.37987 0.367288,0.42409 0.471168,0.0968 z m 0.140526,-0.31783 c 0,-0.0251 0.04174,-0.1554 0.09268,-0.28947 0.08234,-0.21656 0.108152,-0.2283 0.231298,-0.10515 0.180244,0.18023 0.180112,0.30145 -1.87e-4,0.15183 -0.113287,-0.094 -0.13877,-0.0886 -0.13877,0.0295 0,0.0796 -0.0416,0.17039 -0.09253,0.20184 -0.05087,0.0315 -0.09251,0.0366 -0.09251,0.0114 z m -0.231299,-0.24279 c -0.03143,-0.0509 0.0077,-0.0925 0.08706,-0.0925 0.07933,0 0.144239,0.0416 0.144239,0.0925 0,0.0509 -0.03916,0.0925 -0.08706,0.0925 -0.04787,0 -0.112792,-0.0416 -0.14424,-0.0925 z m -15.466308,0.35731 c 0.496072,-0.0996 0.524292,-0.12009 0.524292,-0.38011 0,-0.25514 -0.01819,-0.2698 -0.254425,-0.20461 -0.680956,0.18787 -2.239402,0.18338 -2.868132,-0.008 -0.177115,-0.054 -0.208171,-0.0291 -0.208171,0.16678 0,0.19788 0.06822,0.25035 0.485738,0.3734 0.586747,0.17295 1.606902,0.19616 2.320698,0.0529 z m 15.327532,-0.22461 c 0,-0.16581 -0.207154,-0.39597 -0.318086,-0.35341 -0.107873,0.0414 -0.103664,0.0792 0.02453,0.22015 0.154162,0.16952 0.293537,0.2328 0.293537,0.13326 z m -16.653641,-0.59531 c 0,-0.0509 -0.07286,-0.0958 -0.16191,-0.0998 -0.09673,-0.004 -0.11535,-0.0261 -0.04627,-0.0539 0.07474,-0.0302 0.115656,-0.24579 0.115656,-0.6095 0,-0.30955 -0.02745,-0.5354 -0.06097,-0.50187 -0.03352,0.0335 -0.05735,0.27987 -0.05296,0.54742 0.0071,0.43149 -0.0014,0.45509 -0.07807,0.20888 -0.04738,-0.15265 -0.06076,-0.39726 -0.02968,-0.54356 0.03867,-0.18229 0.02418,-0.24609 -0.04606,-0.20272 -0.06466,0.04 -0.102409,-0.024 -0.102409,-0.17346 0,-0.13022 0.0416,-0.23675 0.09251,-0.23675 0.05087,0 0.09252,0.0694 0.09252,0.15419 0,0.0848 0.02753,0.12672 0.06111,0.0931 0.03358,-0.0336 -0.0138,-0.32158 -0.105232,-0.63993 -0.537023,-1.86904 -0.633817,-2.03188 -0.363929,-0.6122 0.08088,0.42543 0.157207,1.02331 0.169617,1.32864 0.01241,0.30531 0.02948,0.729 0.03805,0.94155 0.01122,0.2819 0.05923,0.39785 0.177331,0.42872 0.269553,0.0705 0.300694,0.0675 0.300694,-0.0287 z m 1.419014,-0.27699 c 0.08461,-0.14323 0.153674,-0.29562 0.153486,-0.33865 -1.95e-4,-0.043 -0.08285,0.0571 -0.183686,0.22244 -0.100835,0.16538 -0.255665,0.30069 -0.344062,0.30069 -0.13339,0 -0.125753,-0.0246 0.04488,-0.14402 0.198005,-0.13869 0.301989,-0.38906 0.113106,-0.27232 -0.167939,0.10379 -0.09625,-0.0999 0.114945,-0.32658 0.183741,-0.19722 0.211077,-0.20395 0.239025,-0.0588 0.02509,0.13016 0.05853,0.14151 0.162615,0.0551 0.07208,-0.0598 0.131056,-0.14483 0.131056,-0.1889 0,-0.21739 1.67206,-1.98547 1.965821,-2.0787 0.09066,-0.0288 0.142239,-0.0889 0.114638,-0.13353 -0.120548,-0.19504 -1.549617,0.84883 -1.46476,1.06995 0.03567,0.093 0.0091,0.12023 -0.08304,0.0849 -0.171777,-0.0659 -0.930336,0.78931 -1.341105,1.51201 -0.164774,0.2899 -0.300081,0.55112 -0.300686,0.58047 -5.44e-4,0.0293 0.117022,0.036 0.2614,0.0149 0.164516,-0.0242 0.319939,-0.13575 0.416342,-0.29895 z m 0.199155,-0.74223 c -0.03198,-0.0518 -0.10728,-0.0675 -0.167373,-0.035 -0.06006,0.0325 0.0063,-0.0606 0.146838,-0.20667 0.140846,-0.14614 0.341937,-0.38061 0.446877,-0.52103 0.104932,-0.14042 0.234441,-0.22833 0.287782,-0.19536 0.06048,0.0374 0.04035,0.0916 -0.05366,0.14426 -0.08286,0.0463 -0.150657,0.1234 -0.150657,0.17118 0,0.14722 -0.305509,0.45271 -0.396498,0.39647 -0.04933,-0.0305 -0.05937,0.0305 -0.02355,0.14352 0.06494,0.20451 0.01115,0.26593 -0.08977,0.1026 z m 0.947227,-1.17197 c -0.02404,-0.0415 0.03965,-0.15881 0.141501,-0.26059 l 0.185197,-0.18504 -0.117036,0.23131 c -0.150211,0.29685 -0.157569,0.30438 -0.209662,0.21432 z m 0.441505,-0.49189 c 0.03143,-0.0509 0.07554,-0.0925 0.09798,-0.0925 0.02244,0 0.04084,0.0416 0.04084,0.0925 0,0.0509 -0.04411,0.0925 -0.09799,0.0925 -0.05386,0 -0.07225,-0.0416 -0.04084,-0.0925 z m 13.656335,2.56316 c -0.118743,-0.11875 -0.239165,-0.027 -0.151249,0.11529 0.03407,0.0551 0.104305,0.074 0.156106,0.042 0.0632,-0.0391 0.0616,-0.0908 -0.0049,-0.15726 z m -17.449661,-0.0261 c -0.05087,-0.0214 -0.08613,-0.24704 -0.07832,-0.5015 0.0081,-0.26412 -0.02258,-0.43989 -0.07156,-0.40964 -0.0508,0.0315 -0.0616,-0.0983 -0.02641,-0.31838 0.05832,-0.36492 -0.117321,-0.80027 -0.463293,-1.14813 -0.06195,-0.0622 -0.165068,-0.19648 -0.229222,-0.29825 -0.08829,-0.14006 -0.104403,-0.14568 -0.06627,-0.0231 0.04815,0.15485 -0.03352,0.20223 -0.290799,0.16882 -0.160412,-0.0208 -0.14472,0.13134 0.02836,0.27498 0.118458,0.0983 0.138971,0.0972 0.115642,-0.007 -0.01561,-0.0692 0.0494,-0.1427 0.144526,-0.16334 0.119948,-0.0261 0.150977,-0.002 0.10135,0.0782 -0.04884,0.079 -0.03386,0.0924 0.04731,0.0423 0.07921,-0.049 0.104535,-0.0306 0.07598,0.0551 -0.02355,0.0707 -0.08795,0.12853 -0.143075,0.12853 -0.176822,0 -0.237786,0.13041 -0.124687,0.26667 0.06041,0.0728 0.209885,0.33403 0.332134,0.5805 0.227737,0.45912 0.317619,0.43632 0.124567,-0.0315 -0.05909,-0.14326 -0.09727,-0.30209 -0.08482,-0.35298 0.01247,-0.0509 -0.0079,-0.0619 -0.04529,-0.0246 -0.03735,0.0374 -0.122785,-0.004 -0.189811,-0.0925 -0.142149,-0.1872 -0.165882,-0.33374 -0.0416,-0.25695 0.04738,0.0293 0.113525,0.009 0.147014,-0.0453 0.114638,-0.18548 0.33917,0.10694 0.275852,0.35923 -0.04745,0.189 -0.03477,0.21191 0.06919,0.12558 0.106751,-0.0886 0.116499,-0.0144 0.06048,0.46075 -0.06933,0.58809 -0.03108,0.85095 0.111156,0.76305 0.04557,-0.0281 0.08283,-0.01 0.08283,0.0413 0,0.0509 -0.0423,0.11867 -0.09403,0.15063 -0.132282,0.0817 -0.01867,0.23183 0.168879,0.22307 0.08605,-0.003 0.11482,-0.0248 0.0639,-0.0461 z m -0.32382,-0.64045 c 0,-0.0763 0.0416,-0.13878 0.09252,-0.13878 0.05087,0 0.09251,0.0624 0.09251,0.13878 0,0.0764 -0.0416,0.13878 -0.09251,0.13878 -0.05087,0 -0.09252,-0.0624 -0.09252,-0.13878 z m 1.547568,0.13876 c -0.02822,-0.21034 -0.01352,-0.34776 0.03407,-0.31836 0.04606,0.0285 0.08372,-0.0722 0.08372,-0.2237 0,-0.15152 0.01401,-0.33091 0.03114,-0.39868 0.01714,-0.0677 0.01206,-0.0873 -0.01122,-0.0433 -0.02328,0.0439 -0.07825,0.0231 -0.122199,-0.0463 -0.05832,-0.092 -0.08028,-0.0684 -0.08132,0.0875 -0.0014,0.13933 -0.03909,0.19035 -0.109658,0.14672 -0.07622,-0.0471 -0.08691,-0.0145 -0.03616,0.11019 0.07864,0.19316 0.114367,0.40912 0.132582,0.8016 0.0063,0.13994 0.03811,0.25444 0.07025,0.25444 0.03212,0 0.0361,-0.16655 0.0088,-0.3701 z m 1.261711,-1.45717 c 0.154106,-0.16539 0.227925,-0.30069 0.164056,-0.30069 -0.0639,0 -0.08998,-0.0423 -0.05805,-0.094 0.03198,-0.0518 0.09687,-0.0701 0.144239,-0.0408 0.113029,0.0699 0.111015,-0.29344 -0.0028,-0.50611 -0.06341,-0.11852 -0.04801,-0.21628 0.05386,-0.34086 0.138895,-0.16999 0.141146,-0.1697 0.08345,0.0103 -0.0439,0.1371 -0.03227,0.15822 0.04515,0.0815 0.05742,-0.0569 0.112896,-0.16104 0.123272,-0.2313 0.01038,-0.0703 0.1324,-0.33075 0.271149,-0.57886 0.138755,-0.24813 0.252286,-0.47657 0.252286,-0.50767 0,-0.16025 -0.784418,1.05629 -1.095479,1.69895 -0.69182,1.42933 -0.845598,1.88785 -0.461845,1.37715 0.110305,-0.1468 0.326643,-0.40222 0.480749,-0.5676 z m -0.311237,-0.0252 c 0,-0.0529 0.05783,-0.11841 0.128561,-0.14554 0.07432,-0.0285 0.1088,-0.12487 0.08173,-0.22839 -0.02572,-0.0985 -0.0035,-0.17907 0.04968,-0.17907 0.05309,0 0.114423,-0.052 0.136289,-0.11565 0.02188,-0.0636 0.02132,-0.0324 -0.0014,0.0694 -0.0225,0.10176 -0.04055,0.24987 -0.04006,0.32912 4.53e-4,0.0793 -0.07919,0.19408 -0.177065,0.2552 -0.113614,0.071 -0.177944,0.0763 -0.177944,0.0149 z m -1.118188,0.11778 c -0.0074,-0.40892 -0.01373,-0.42018 -0.09106,-0.16191 -0.07532,0.25159 -0.04104,0.60137 0.05895,0.60137 0.02202,0 0.03645,-0.19776 0.03212,-0.43946 z m 0.378031,-0.0749 c 0,-0.0734 -0.0416,-0.13332 -0.09252,-0.13332 -0.05087,0 -0.09252,0.0857 -0.09252,0.1905 0,0.10478 0.0416,0.16477 0.09252,0.13332 0.05087,-0.0315 0.09252,-0.11717 0.09252,-0.1905 z m 0.116905,-0.66277 c 0.04006,-0.31408 0.02704,-0.36784 -0.06669,-0.27417 -0.06787,0.0679 -0.09804,0.24234 -0.07225,0.41809 0.05477,0.37292 0.07574,0.35115 0.138909,-0.14392 z m -0.2273,0.11067 c -0.0285,-0.0285 -0.08021,0.0228 -0.114959,0.1141 -0.05024,0.13186 -0.03957,0.14248 0.05177,0.0518 0.06327,-0.0627 0.09166,-0.1374 0.0632,-0.16589 z m -0.196485,-0.15368 c -0.02954,-0.0738 -0.05149,-0.052 -0.05588,0.0558 -0.0035,0.0975 0.01784,0.15217 0.04864,0.12143 0.03073,-0.0307 0.03401,-0.11054 0.0073,-0.17732 z m -2.439038,-0.21396 c -0.0239,-0.0509 0.02216,-0.0117 0.10223,0.0871 0.180543,0.22263 0.188082,0.12424 0.01589,-0.20731 -0.129196,-0.24875 -0.585515,-0.63867 -0.80404,-0.68703 -0.06313,-0.014 -0.191093,-0.0983 -0.284381,-0.18732 -0.382875,-0.36548 -0.341004,-0.12766 0.05512,0.3129 0.234796,0.26115 0.494866,0.58988 0.577939,0.7305 0.116054,0.19647 0.177638,0.23115 0.265867,0.1497 0.06313,-0.0583 0.0953,-0.14762 0.07142,-0.19851 z m -0.28197,-0.01 c 0.05783,-0.0578 -0.03261,-0.19044 -0.343415,-0.50344 -0.09865,-0.0993 -0.140281,-0.17928 -0.09252,-0.17765 0.129718,0.004 0.461462,0.27304 0.426844,0.34567 -0.01651,0.0346 0.02049,0.0799 0.08227,0.10054 0.07115,0.0237 0.08541,-0.007 0.03895,-0.0814 -0.04822,-0.078 -0.03665,-0.0961 0.03366,-0.0527 0.07646,0.0472 0.07961,0.11746 0.01101,0.2456 -0.05282,0.0987 -0.122311,0.17943 -0.154447,0.17943 -0.03212,0 -0.03317,-0.0252 -0.0021,-0.0561 z m 2.977203,-0.36003 c 0.0867,-0.36589 -0.02279,-0.25052 -0.135599,0.14291 -0.04843,0.16886 -0.05254,0.26819 -0.0091,0.22074 0.04341,-0.0475 0.108542,-0.2111 0.144686,-0.36365 z m 1.049512,-0.20836 c 0.451238,-0.75699 1.24254,-1.64451 1.948142,-2.18503 1.057553,-0.81015 1.271863,-0.75441 0.420551,0.10938 -0.619636,0.62873 -1.044048,1.25828 -1.369436,2.03137 -0.132108,0.31389 -0.240197,0.59276 -0.240197,0.61975 0,0.13489 0.347485,0.0129 0.882208,-0.30953 1.130835,-0.68204 2.955399,-1.09206 3.60502,-0.81015 0.145911,0.0633 0.04815,0.10815 -0.462604,0.21203 -0.584051,0.11881 -2.174222,0.78155 -2.174222,0.90616 0,0.0278 2.477229,0.0505 5.50495,0.0505 h 5.504957 v -6.80027 -6.80024 h -7.262843 -7.262837 v 0.19555 c 0,0.10754 0.269344,1.01309 0.598545,2.01232 0.685073,2.07945 0.940349,3.09506 1.027638,4.08842 0.07453,0.84818 -0.06962,2.01453 -0.368779,2.98419 -0.210979,0.68381 -0.21316,0.71576 -0.04515,0.66244 0.310532,-0.0986 0.289461,0.17639 -0.08998,1.17421 -0.202179,0.53167 -0.435505,1.23506 -0.518495,1.5631 -0.08299,0.32804 -0.172327,0.66929 -0.198514,0.75834 -0.106535,0.3622 0.151298,0.12416 0.501068,-0.46261 z m 26.574507,-0.0999 c 0.08764,-0.37298 0.209753,-0.77233 0.271351,-0.88742 0.149967,-0.28021 0.786829,-0.57785 1.52909,-0.71461 0.333986,-0.0616 0.594983,-0.1487 0.579988,-0.19369 -0.01505,-0.045 -0.303021,-0.1746 -0.64006,-0.28803 -1.318695,-0.44378 -2.071409,-1.2935 -2.450507,-2.76632 -0.278263,-1.08109 -0.04285,-2.90473 0.707435,-5.48036 l 0.283413,-0.97289 -0.210904,-0.2857 c -0.163645,-0.22169 -0.208205,-0.39789 -0.198875,-0.78637 l 0.01198,-0.50067 H 65.02944 58.749173 v 6.80088 6.80089 l 6.25912,-0.0237 6.259119,-0.0237 z m 4.484915,0.39829 c 0.661521,-0.0767 1.254804,-0.15826 1.318409,-0.1813 0.06993,-0.0253 0.115656,-0.21192 0.115656,-0.47193 0,-0.40412 -0.01254,-0.426 -0.208171,-0.36307 -0.366382,0.11785 -2.084118,0.16498 -2.370792,0.065 -0.150392,-0.0524 -0.287385,-0.0815 -0.304435,-0.0646 -0.08573,0.0849 0.04327,1.15686 0.139139,1.15612 0.05909,-3.5e-4 0.648672,-0.0636 1.310194,-0.14025 z m -31.805746,-0.007 c -0.03073,-0.0307 -0.110541,-0.034 -0.177331,-0.007 -0.07381,0.0295 -0.05191,0.0515 0.05588,0.0558 0.09753,0.003 0.152176,-0.0178 0.121433,-0.0486 z m 3.330728,-0.0925 c -0.03073,-0.0307 -0.110548,-0.034 -0.177331,-0.007 -0.07381,0.0295 -0.05191,0.0514 0.05588,0.0558 0.09752,0.003 0.152175,-0.0178 0.121432,-0.0486 z m -3.181932,-0.56864 c 0.0368,-0.19528 0.02,-0.30069 -0.04787,-0.30069 -0.05992,0 -0.03902,-0.0724 0.04892,-0.16959 0.0844,-0.0933 0.221661,-0.3743 0.305014,-0.6245 0.08335,-0.25022 0.197684,-0.51739 0.254084,-0.59372 0.08908,-0.12057 0.08129,-0.12212 -0.05937,-0.0118 -0.08905,0.0699 -0.16191,0.16877 -0.16191,0.21985 0,0.0511 -0.118443,0.32702 -0.263205,0.61318 -0.144756,0.28617 -0.243437,0.57815 -0.219292,0.64884 0.02669,0.0782 0.0035,0.10323 -0.06062,0.0639 -0.05748,-0.0355 -0.104521,-0.0239 -0.104521,0.0258 0,0.0498 -0.02787,0.1631 -0.06201,0.25194 -0.04585,0.11956 -0.02975,0.14162 0.06201,0.0849 0.08904,-0.055 0.108298,-0.0359 0.06835,0.0683 -0.06912,0.18006 0.03735,0.30439 0.121963,0.14246 0.03393,-0.065 0.0873,-0.25355 0.118464,-0.41893 z m 32.975359,-0.7035 c 0.382958,-0.20005 0.408483,-0.4977 0.04627,-0.53938 -0.21645,-0.0249 -0.267491,-0.0882 -0.341945,-0.42416 -0.04815,-0.21718 -0.13139,-0.37657 -0.185031,-0.35419 -0.05366,0.0223 -0.420196,0.11349 -0.814568,0.20246 -0.394373,0.089 -0.71703,0.19633 -0.71703,0.23855 0,0.19504 -0.391014,0.44684 -0.693902,0.44684 -0.523679,0 -0.390401,0.36848 0.202256,0.55923 0.435289,0.1401 2.158564,0.051 2.503959,-0.12935 z m -2.446583,-0.7666 c 0.122624,-0.12264 -0.02704,-0.17716 -0.390979,-0.14245 -0.207064,0.0198 -0.353435,0.0732 -0.325278,0.11876 0.0584,0.0945 0.626661,0.11328 0.716257,0.0237 z m 1.663315,-0.72143 c 1.79141,-0.52495 2.446242,-0.99789 2.652365,-1.91559 0.17007,-0.75715 0.195231,-0.80649 0.288283,-0.56515 0.233584,0.60574 1.351417,-0.17331 1.530023,-1.06632 0.11866,-0.59332 -0.281866,-1.22356 -0.777589,-1.22356 -0.282144,0 -0.841583,0.53924 -0.66966,0.6455 0.06585,0.0407 0.09109,0.12026 0.05609,0.17683 -0.08394,0.13582 -0.165534,0.12976 -0.381921,-0.0284 -0.161164,-0.11775 -0.184723,-0.28635 -0.229584,-1.64223 -0.05783,-1.74877 -0.130769,-1.96652 -0.787323,-2.35129 -0.324427,-0.19012 -0.645231,-0.27252 -1.410416,-0.36227 -0.688663,-0.0807 -1.159635,-0.19292 -1.545597,-0.36804 -1.31087,-0.5948 -2.055688,-0.73208 -2.71836,-0.50108 -0.362772,0.12647 -0.472867,0.33428 -0.828288,1.5634 -0.633956,2.19235 -0.69825,2.55566 -0.70393,3.97778 -0.0056,1.317 -4.1e-5,1.35277 0.284995,1.95435 0.509366,1.07506 1.273012,1.70175 2.350668,1.92913 0.675402,0.1425 1.988557,0.0411 2.890213,-0.22309 z m -3.230464,-1.0481 c -0.119837,-0.0778 -0.404107,-0.86836 -0.404107,-1.1239 0,-0.0938 -0.09367,-0.2335 -0.208172,-0.31048 -0.316811,-0.21299 -0.147758,-0.2724 0.30939,-0.10872 0.445811,0.15962 0.834992,0.13149 1.632419,-0.11798 0.526355,-0.16467 0.637962,-0.13677 0.507855,0.12691 -0.04641,0.094 -0.180954,0.37054 -0.299036,0.61453 -0.353469,0.7304 -1.121965,1.18981 -1.538349,0.91964 z m 0.752399,-0.39179 0.349261,-0.27757 -0.313411,0.002 c -0.647132,0.002 -0.887155,0.17441 -0.618723,0.44284 0.155528,0.15553 0.189998,0.14568 0.582873,-0.16654 z m 0.138783,-0.58475 c 0.283176,-0.0145 0.543183,-0.17938 0.552179,-0.35003 0.0014,-0.0306 -0.215642,0.002 -0.482791,0.0736 -0.267156,0.0712 -0.617803,0.11545 -0.779205,0.0984 -0.234065,-0.0247 -0.290987,0.002 -0.281163,0.13257 0.01003,0.13384 0.07187,0.15436 0.339744,0.11285 0.180075,-0.0279 0.473132,-0.0582 0.651236,-0.0674 z m 6.041423,-1.07756 c -0.06849,-0.26186 -0.382687,-0.33651 -0.535706,-0.12725 -0.187344,0.25622 -0.292437,0.0616 -0.122248,-0.2265 0.167903,-0.28411 0.766482,-0.65425 0.877894,-0.54285 0.04041,0.0404 -0.02181,0.14543 -0.138344,0.23331 l -0.211843,0.15979 0.190096,0.17205 c 0.201586,0.18243 0.258906,0.51343 0.08891,0.51343 -0.05567,0 -0.122597,-0.0819 -0.148762,-0.18198 z m -6.79339,-0.0636 c -0.06984,-0.0841 -0.126973,-0.35845 -0.126973,-0.60955 0,-0.36819 0.04223,-0.49079 0.218415,-0.63343 0.274793,-0.22252 0.355839,-0.22091 0.742268,0.0147 0.406176,0.24762 0.263379,0.44686 -0.150163,0.20951 -0.372541,-0.2138 -0.579222,-0.0597 -0.579222,0.43163 0,0.46897 0.178892,0.6109 0.536738,0.42585 0.25145,-0.13003 0.388464,-0.11687 0.388464,0.0373 0,0.0967 -0.447051,0.27699 -0.686928,0.27699 -0.118589,0 -0.272758,-0.0689 -0.342599,-0.153 z m 2.26064,-0.70281 c -0.334112,-0.35188 -0.424209,-0.6021 -0.413256,-1.14766 0.0147,-0.73097 0.441268,-1.22857 1.073628,-1.25235 0.637732,-0.0241 1.160743,0.57978 1.161335,1.34062 5.36e-4,0.80766 -0.466659,1.36007 -1.150485,1.36007 -0.314923,0 -0.438119,-0.0552 -0.671222,-0.30068 z m 1.087014,-0.0721 c 0.450019,-0.24086 0.594523,-1.1129 0.272047,-1.6418 -0.161784,-0.26535 -0.495013,-0.48343 -0.738693,-0.48343 -0.193371,0 -0.651578,0.50445 -0.736025,0.8103 -0.11298,0.40917 -0.07926,0.45481 0.194431,0.26312 0.301516,-0.21119 0.606132,-0.18352 0.868544,0.0789 0.277426,0.27744 0.287154,0.50427 0.0354,0.82441 -0.205677,0.26148 -0.178634,0.29996 0.104353,0.14852 z m -0.652764,-0.78914 c 0,-0.157 -0.238419,-0.17899 -0.330217,-0.0305 -0.06974,0.11285 0.138045,0.28254 0.256405,0.20939 0.04062,-0.0251 0.07381,-0.10561 0.07381,-0.17894 z m -3.953416,0.46967 c -0.942635,-0.40979 -0.977559,-2.04229 -0.05414,-2.53139 0.90987,-0.48196 1.829845,0.5538 1.518595,1.7097 -0.09994,0.37117 -0.344314,0.66129 -0.720012,0.85477 -0.257171,0.13245 -0.375761,0.12718 -0.744421,-0.033 z m 1.086303,-0.62613 c 0.434285,-0.71228 0.03421,-1.73475 -0.678788,-1.73475 -0.475593,0 -0.898186,0.56108 -0.893016,1.18566 l 0.0021,0.24841 0.159854,-0.19735 c 0.216568,-0.26736 0.547127,-0.42573 0.752525,-0.36055 0.388157,0.1232 0.594426,0.60423 0.427666,0.99737 -0.115064,0.27128 0.03491,0.18065 0.229696,-0.13879 z m -0.833696,-0.43947 c 0,-0.1028 -0.06167,-0.18504 -0.138784,-0.18504 -0.07709,0 -0.138776,0.0822 -0.138776,0.18504 0,0.1028 0.06167,0.18504 0.138776,0.18504 0.0771,0 0.138784,-0.0822 0.138784,-0.18504 z m 4.996426,-2.00629 c -0.208457,-0.0907 -0.496329,-0.12647 -0.809551,-0.1005 -0.46121,0.0383 -0.609847,-0.0262 -0.383189,-0.16634 0.32904,-0.20337 1.747525,0.0666 1.747525,0.33259 0,0.12227 -0.16876,0.10227 -0.554785,-0.0658 z m -4.024965,-0.40255 c -0.204401,-0.13781 -0.405221,-0.182 -0.761917,-0.16762 -0.556701,0.0223 -0.684482,-0.044 -0.388966,-0.20215 0.416594,-0.22295 1.419148,0.0676 1.545967,0.44811 0.05352,0.16056 -0.08003,0.13409 -0.395084,-0.0783 z m -14.849487,-9.29485 v -6.33763 h -6.462943 -6.462936 l -0.196771,0.67077 c -0.108221,0.36892 -0.263031,0.96221 -0.344014,1.31841 -0.08098,0.35621 -0.353087,1.48033 -0.604683,2.49805 -0.694265,2.80841 -0.824798,3.68795 -0.82215,5.54007 0.0021,1.3725 0.06488,2.06915 0.228602,2.53232 0.03226,0.0912 1.586778,0.11564 7.352892,0.11564 h 7.312003 z m 13.222114,6.00891 c 0.290938,-0.42718 0.596774,-0.64579 1.617381,-1.15609 l 0.841674,-0.42083 0.06794,-0.45812 c 0.398066,-2.68392 0.501284,-5.32785 0.267115,-6.84199 -0.225905,-1.46071 -0.680224,-2.7527 -1.146814,-3.26134 l -0.190967,-0.20817 h -7.200445 -7.200444 v 6.33763 6.33763 l 6.360763,-5.3e-4 6.360756,-5.4e-4 0.223034,-0.32746 z m 6.392161,-1.61788 c 0,-0.41316 0.304658,-0.94073 0.789908,-1.36786 0.468227,-0.41215 0.999376,-0.61954 1.837406,-0.71742 l 0.545601,-0.0637 -0.06376,-1.6506 c -0.07853,-2.03309 -0.181087,-2.96498 -0.431652,-3.92215 -0.220213,-0.84122 -0.653919,-1.93075 -1.012789,-2.5443 l -0.243528,-0.41635 -2.939227,-0.0245 c -1.616566,-0.0134 -2.925151,0.007 -2.907947,0.0463 0.01721,0.0389 0.160789,0.34133 0.319075,0.67209 0.588044,1.22879 0.86736,2.85278 0.868168,5.04766 3.48e-4,1.27976 -0.233912,3.94513 -0.416058,4.73148 -0.04488,0.19392 -0.02683,0.20033 0.392924,0.13879 0.242008,-0.0355 0.877169,-0.0646 1.411474,-0.0646 0.811636,0 1.03235,0.0324 1.341544,0.1961 0.497041,0.26337 0.508858,0.26195 0.508858,-0.061 z m 1.462021,-11.49236 -0.02794,-0.48532 -20.672677,-0.0233 c -16.477112,-0.0186 -20.687609,1.8e-4 -20.746239,0.0925 -0.09239,0.14553 -0.09592,0.63646 -0.0056,0.77593 0.03735,0.0577 0.148266,0.12018 0.246398,0.13879 0.09814,0.0186 9.415931,0.0232 20.706214,0.0103 l 20.527789,-0.0236 -0.02794,-0.48532 z"
         style="fill:#000080;stroke:#666666;stroke-width:0.0925203" />
      <path
         style="fill:#f9f9f9;stroke:#666666;stroke-width:0.307101;stroke-linecap:butt;stroke-linejoin:miter;stroke-miterlimit:4;stroke-dasharray:none;stroke-dashoffset:0;stroke-opacity:1"
         d="M 99.752312,163.6182 H 87.157047"
         id="path932" />
    </g>
    <path
       id="path880"
       d="m 108.50211,79.186721 61.30466,0.03135"
       style="fill:none;stroke:#000000;stroke-width:0.134446px;stroke-linecap:butt;stroke-linejoin:miter;stroke-opacity:1" />
    <path
       id="path882"
       style="fill:none;stroke:#000000;stroke-width:0.286842;stroke-linecap:butt;stroke-linejoin:miter;stroke-miterlimit:4;stroke-dasharray:none;stroke-dashoffset:0;stroke-opacity:1"
       d="m 100.17883,33.728423 h 84.33361 v 54.592641 h -84.33361 z" />
    <path
       style="fill:none;stroke:#000000;stroke-width:0.254072;stroke-linecap:butt;stroke-linejoin:miter;stroke-miterlimit:4;stroke-dasharray:none;stroke-dashoffset:0;stroke-opacity:1"
       d="m 100.21018,88.289714 8.29193,-9.102993"
       id="path884" />
    <rect
       style="fill:#f2f2f2;stroke:#000000;stroke-width:0.254072;stroke-linecap:round;stroke-linejoin:round;stroke-miterlimit:4;stroke-dasharray:none;stroke-dashoffset:0;paint-order:markers fill stroke"
       id="rect886"
       width="27.486042"
       height="17.987913"
       x="128.48674"
       y="49.086033"
       rx="0"
       ry="0" />
    <rect
       style="fill:#f2f2f2;stroke:#000000;stroke-width:0.254072;stroke-linecap:round;stroke-linejoin:round;stroke-miterlimit:4;stroke-dasharray:none;stroke-dashoffset:0;paint-order:markers fill stroke"
       id="rect888"
       width="18.407185"
       height="1.782449"
       x="133.15605"
       y="48.486767" />
    <circle
       style="fill:#0000ff;stroke:#000000;stroke-width:0.254072;stroke-linecap:round;stroke-linejoin:round;stroke-miterlimit:4;stroke-dasharray:none;stroke-dashoffset:0;paint-order:markers fill stroke"
       id="circle890"
       cx="159.23782"
       cy="80.670769"
       r="4.0263023" />
    <rect
       style="fill:#00ff00;stroke:#000000;stroke-width:0.254072;stroke-linecap:round;stroke-linejoin:round;stroke-miterlimit:4;stroke-dasharray:none;stroke-dashoffset:0;paint-order:markers fill stroke"
       id="rect892"
       width="7.7486143"
       height="7.7486143"
       x="139.97723"
       y="76.861404"
       rx="0"
       ry="0" />
    <path
       sodipodi:type="star"
       style="fill:#ff0000;stroke:#000000;stroke-width:0.254072;stroke-linecap:round;stroke-linejoin:round;stroke-miterlimit:4;stroke-dasharray:none;stroke-dashoffset:0;paint-order:markers fill stroke"
       id="path894"
       sodipodi:sides="3"
       sodipodi:cx="130.53875"
       sodipodi:cy="81.060407"
       sodipodi:r1="6.3482318"
       sodipodi:r2="3.1741159"
       sodipodi:arg1="0.52359878"
       sodipodi:arg2="1.5707963"
       inkscape:flatsided="false"
       inkscape:rounded="0"
       inkscape:randomized="0"
       d="m 136.03649,84.234525 -5.49773,0 -5.49773,0 2.74886,-4.761173 2.74887,-4.761174 2.74886,4.761174 z"
       inkscape:transform-center-y="-1.5870595"
       inkscape:transform-center-x="-2.9707152e-06" />
    <path
       id="path896"
       d="M 184.51244,88.321064 169.80677,79.21807"
       style="fill:none;stroke:#000000;stroke-width:0.338354;stroke-linecap:butt;stroke-linejoin:miter;stroke-miterlimit:4;stroke-dasharray:none;stroke-dashoffset:0;stroke-opacity:1" />
    <path
       style="fill:none;stroke:#000000;stroke-width:0.452844;stroke-linecap:butt;stroke-linejoin:miter;stroke-miterlimit:4;stroke-dasharray:none;stroke-opacity:1"
       d="M 169.80677,79.21807 V 33.668828"
       id="path904" />
    <path
       id="path912"
       d="M 108.50211,79.186721 V 33.806731"
       style="fill:none;stroke:#000000;stroke-width:0.452002;stroke-linecap:butt;stroke-linejoin:miter;stroke-miterlimit:4;stroke-dasharray:none;stroke-opacity:1" />
    <rect
       style="fill:#cccccc;stroke:#000000;stroke-width:0.211768;stroke-linecap:round;stroke-linejoin:round;stroke-miterlimit:4;stroke-dasharray:none;stroke-dashoffset:0;paint-order:markers fill stroke"
       id="rect939"
       width="23.415796"
       height="14.66855"
       x="38.700935"
       y="65.475922"
       rx="0"
       ry="0" />
    <rect
       ry="0"
       rx="0"
       y="70.662376"
       x="46.105583"
       height="4.4519048"
       width="8.1546459"
       id="rect947"
       style="fill:#cccccc;stroke:#000000;stroke-width:0.0688473;stroke-linecap:round;stroke-linejoin:round;stroke-miterlimit:4;stroke-dasharray:none;stroke-dashoffset:0;paint-order:markers fill stroke" />
    <path
       transform="matrix(0.61309019,-0.69594364,-0.69594364,-0.61309019,-89.933326,21.073919)"
       inkscape:transform-center-x="0.29092527"
       sodipodi:type="star"
       style="fill:#00ffff;stroke:#000000;stroke-width:0.127267;stroke-linecap:round;stroke-linejoin:round;stroke-miterlimit:4;stroke-dasharray:none;stroke-dashoffset:0;paint-order:markers fill stroke"
       id="path949"
       sodipodi:sides="3"
       sodipodi:cx="58.410103"
       sodipodi:cy="-117.47393"
       sodipodi:r1="3.1798909"
       sodipodi:r2="1.5899456"
       sodipodi:arg1="0.52359878"
       sodipodi:arg2="1.5707963"
       inkscape:flatsided="false"
       inkscape:rounded="0"
       inkscape:randomized="0"
       d="m 61.163969,-115.88398 -2.753866,0 -2.753866,0 1.376933,-2.38492 1.376933,-2.38492 1.376933,2.38492 z"
       inkscape:transform-center-y="-0.47087381" />
    <path
       d="m 63.799533,85.573301 -3.592185,0 -3.592185,0 1.796092,-3.110924 1.796093,-3.110924 1.796092,3.110924 z"
       inkscape:randomized="0"
       inkscape:rounded="0"
       inkscape:flatsided="false"
       sodipodi:arg2="1.5707963"
       sodipodi:arg1="0.52359878"
       sodipodi:r2="2.0739491"
       sodipodi:r1="4.1478982"
       sodipodi:cy="83.499352"
       sodipodi:cx="60.207348"
       sodipodi:sides="3"
       id="path951"
       style="fill:#808000;stroke:#000000;stroke-width:0.166009;stroke-linecap:round;stroke-linejoin:round;stroke-miterlimit:4;stroke-dasharray:none;stroke-dashoffset:0;paint-order:markers fill stroke"
       sodipodi:type="star"
       transform="matrix(-0.86140118,0.34380975,-0.34380975,-0.86140118,199.67709,132.14482)"
       inkscape:transform-center-x="0.71304639"
       inkscape:transform-center-y="0.27574009" />
    <circle
       r="2.6227343"
       cy="75.373566"
       cx="155.6537"
       id="circle953"
       style="fill:#6c5353;stroke:#000000;stroke-width:0.165502;stroke-linecap:round;stroke-linejoin:round;stroke-miterlimit:4;stroke-dasharray:none;stroke-dashoffset:0;paint-order:markers fill stroke" />
    <rect
       ry="0"
       rx="0"
       y="74.419762"
       x="143.53688"
       height="2.4416287"
       width="4.1889677"
       id="rect955"
       style="fill:#00ff00;stroke:#000000;stroke-width:0.104864;stroke-linecap:round;stroke-linejoin:round;stroke-miterlimit:4;stroke-dasharray:none;stroke-dashoffset:0;paint-order:markers fill stroke" />
    <rect
       style="fill:none;stroke:#000000;stroke-width:0.213598;stroke-miterlimit:4.16667"
       id="rect72"
       width="79.155479"
       height="64.647499"
       x="337.42194"
       y="80.606918" />
    <path
       style="fill:none;stroke:#000000;stroke-width:0.267934px;stroke-linecap:butt;stroke-linejoin:miter;stroke-opacity:1"
       d="m 337.42535,80.607594 10.49697,32.321746"
       id="path78" />
    <path
       style="fill:none;stroke:#000000;stroke-width:0.268012px;stroke-linecap:butt;stroke-linejoin:miter;stroke-opacity:1"
       d="m 337.42231,145.25439 10.49694,-32.3406"
       id="path82" />
    <path
       style="fill:none;stroke:#000000;stroke-width:0.267934px;stroke-linecap:butt;stroke-linejoin:miter;stroke-opacity:1"
       d="M 416.5774,80.606914 406.08043,112.92866"
       id="path84" />
    <path
       style="fill:none;stroke:#000000;stroke-width:0.268012px;stroke-linecap:butt;stroke-linejoin:miter;stroke-opacity:1"
       d="m 416.58044,145.25371 -10.49695,-32.3406"
       id="path86" />
    <path
       style="fill:none;stroke:#000000;stroke-width:0.260892px;stroke-linecap:butt;stroke-linejoin:miter;stroke-opacity:1"
       d="m 347.92232,112.92934 h 57.83716"
       id="path88" />
    <rect
       style="fill:none;stroke:#000000;stroke-width:0.19525;stroke-miterlimit:4.16667"
       id="rect80"
       width="66.120438"
       height="64.667374"
       x="10.306584"
       y="112.03379" />
    <path
       style="fill:none;stroke:#000000;stroke-width:0.24499px;stroke-linecap:butt;stroke-linejoin:miter;stroke-opacity:1"
       d="m 10.306906,176.70114 8.768341,-32.35055"
       id="path85" />
    <path
       style="fill:none;stroke:#000000;stroke-width:0.24499px;stroke-linecap:butt;stroke-linejoin:miter;stroke-opacity:1"
       d="M 76.42956,176.70046 67.661211,144.34991"
       id="path89" />
    <g
       id="g894">
      <path
         style="fill:none;stroke:#000000;stroke-width:0.244919px;stroke-linecap:butt;stroke-linejoin:miter;stroke-opacity:1"
         d="m 10.309443,112.03446 8.768369,32.33169"
         id="path83" />
      <path
         style="fill:none;stroke:#000000;stroke-width:0.244919px;stroke-linecap:butt;stroke-linejoin:miter;stroke-opacity:1"
         d="m 76.427023,112.03378 -8.768371,32.33169"
         id="path87" />
      <path
         style="fill:none;stroke:#000000;stroke-width:0.238481px;stroke-linecap:butt;stroke-linejoin:miter;stroke-opacity:1"
         d="M 19.077812,144.36615 H 67.390558"
         id="path91" />
    </g>
    <path
       style="fill:none;stroke:#000000;stroke-width:0.260892px;stroke-linecap:butt;stroke-linejoin:miter;stroke-opacity:1"
       d="m 348.9015,136.20708 h 57.83716"
       id="path93" />
    <path
       style="fill:none;stroke:#000000;stroke-width:0.260892px;stroke-linecap:butt;stroke-linejoin:miter;stroke-opacity:1"
       d="m 347.92232,122.4569 h 57.83716"
       id="path95" />
    <path
       style="fill:none;stroke:#000000;stroke-width:0.414363;stroke-linecap:butt;stroke-linejoin:miter;stroke-miterlimit:4;stroke-dasharray:none;stroke-dashoffset:0;stroke-opacity:1"
       d="m 165.79851,160.48155 9.9813,19.25882"
       id="path920" />
    <path
       style="fill:none;stroke:#000000;stroke-width:0.306589;stroke-linecap:butt;stroke-linejoin:miter;stroke-miterlimit:4;stroke-dasharray:none;stroke-dashoffset:0;stroke-opacity:1"
       d="M 112.09254,115.96478 101.8666,105.67362"
       id="path922" />
    <path
       style="fill:none;stroke:#000000;stroke-width:0.307565;stroke-linecap:butt;stroke-linejoin:miter;stroke-miterlimit:4;stroke-dasharray:none;stroke-dashoffset:0;stroke-opacity:1"
       d="m 165.78584,115.96478 10.29117,-10.29116"
       id="path924" />
    <path
       style="fill:none;stroke:#666666;stroke-width:0.300001;stroke-linecap:butt;stroke-linejoin:miter;stroke-miterlimit:4;stroke-dasharray:none;stroke-opacity:1"
       d="m 200.6994,105.78403 v 74.49466"
       id="path927" />
  </g>
</svg>
