<?xml version="1.0" encoding="UTF-8" standalone="no"?>
<svg
   xmlns:dc="http://purl.org/dc/elements/1.1/"
   xmlns:cc="http://creativecommons.org/ns#"
   xmlns:rdf="http://www.w3.org/1999/02/22-rdf-syntax-ns#"
   xmlns:svg="http://www.w3.org/2000/svg"
   xmlns="http://www.w3.org/2000/svg"
   xmlns:sodipodi="http://sodipodi.sourceforge.net/DTD/sodipodi-0.dtd"
   xmlns:inkscape="http://www.inkscape.org/namespaces/inkscape"
   sodipodi:docname="oni-cross.svg"
   inkscape:version="1.0 (4035a4fb49, 2020-05-01)"
   id="svg1000"
   version="1.1"
   viewBox="0 0 210 297"
   height="297mm"
   width="210mm">
  <defs
     id="defs994" />
  <sodipodi:namedview
     inkscape:window-maximized="0"
     inkscape:window-y="58"
     inkscape:window-x="666"
     inkscape:window-height="968"
     inkscape:window-width="1301"
     showgrid="false"
     inkscape:document-rotation="0"
     inkscape:current-layer="layer1"
     inkscape:document-units="mm"
     inkscape:cy="560"
     inkscape:cx="400"
     inkscape:zoom="0.35"
     inkscape:pageshadow="2"
     inkscape:pageopacity="0.0"
     borderopacity="1.0"
     bordercolor="#666666"
     pagecolor="#ffffff"
     id="base" />
  <metadata
     id="metadata997">
    <rdf:RDF>
      <cc:Work
         rdf:about="">
        <dc:format>image/svg+xml</dc:format>
        <dc:type
           rdf:resource="http://purl.org/dc/dcmitype/StillImage" />
        <dc:title></dc:title>
      </cc:Work>
    </rdf:RDF>
  </metadata>
  <g
     id="layer1"
     inkscape:groupmode="layer"
     inkscape:label="图层 1">
    <path
       id="path69"
       d="m 58.447173,94.18674 1.214665,-11.826579 1.218335,11.826579 -0.46605,19.15822 h -1.504569 z"
       style="fill:#b3b3b3;stroke:#000000;stroke-width:0.2;stroke-linecap:butt;stroke-linejoin:miter;stroke-miterlimit:4.0625;stroke-dasharray:none;stroke-opacity:1" />
    <path
       style="fill:#f2f2f2;fill-opacity:1;fill-rule:evenodd;stroke:#000000;stroke-width:0.2;stroke-miterlimit:4.0625;stroke-dasharray:none"
       d="m 57.011047,110.76628 v 2.5111 h 2.592094 v -2.5111 z"
       id="path1082" />
    <path
       id="path1084"
       d="m 55.704315,110.77024 v 2.5111 h 2.592101 v -2.5111 z"
       style="fill:#b3b3b3;fill-opacity:1;fill-rule:evenodd;stroke:#000000;stroke-width:0.2;stroke-miterlimit:4.0625;stroke-dasharray:none" />
    <path
       style="fill:#f2f2f2;fill-opacity:1;fill-rule:evenodd;stroke:#000000;stroke-width:0.2;stroke-miterlimit:4.0625;stroke-dasharray:none"
       d="m 59.603141,110.76628 v 2.5111 h 2.592099 v -2.5111 z"
       id="path1086" />
    <path
       style="fill:#b3b3b3;fill-opacity:1;fill-rule:evenodd;stroke:#000000;stroke-width:0.2;stroke-miterlimit:4.0625;stroke-dasharray:none"
       d="m 61.132382,110.77125 v 2.5111 h 2.592099 v -2.5111 z"
       id="path1088" />
    <path
       id="path1090"
       d="m 58.304007,115.87593 v 2.51109 h 2.592099 v -2.51109 z"
       style="fill:#b3b3b3;fill-opacity:1;fill-rule:evenodd;stroke:#000000;stroke-width:0.2;stroke-miterlimit:4.0625;stroke-dasharray:none" />
    <path
       style="fill:#b3b3b3;fill-opacity:1;fill-rule:evenodd;stroke:#000000;stroke-width:0.2;stroke-miterlimit:4.0625;stroke-dasharray:none"
       d="m 58.440106,108.17788 v 2.51109 h 2.5921 v -2.51109 z"
       id="path1092" />
    <path
       id="path1094"
       d="m 58.304007,113.36483 v 2.5111 h 2.592099 v -2.5111 z"
       style="fill:#b3b3b3;fill-opacity:1;fill-rule:evenodd;stroke:#000000;stroke-width:0.2;stroke-miterlimit:4.0625;stroke-dasharray:none" />
    <path
       id="path111"
       d="m 81.545883,52.524789 v 3.472122 h 3.584107 v -3.472122 z"
       style="fill:#f2f2f2;fill-opacity:1;fill-rule:evenodd;stroke:#000000;stroke-width:0.0951849" />
    <path
       id="path71"
       d="m 19.153512,58.780071 v 6.04755 h 6.242633 v -6.04755 z"
       style="fill:#b3b3b3;fill-opacity:1;fill-rule:evenodd;stroke:#000000;stroke-width:0.257446;stroke-miterlimit:4.5;stroke-dasharray:none" />
    <path
       style="fill:#b3b3b3;fill-opacity:1;fill-rule:evenodd;stroke:#000000;stroke-width:0.257446;stroke-miterlimit:4.5;stroke-dasharray:none"
       d="m 25.396145,58.780071 v 6.04755 h 6.242633 v -6.04755 z"
       id="path71-0" />
    <path
       style="fill:#b3b3b3;fill-opacity:1;fill-rule:evenodd;stroke:#000000;stroke-width:0.257446;stroke-miterlimit:4.5;stroke-dasharray:none"
       d="m 37.881408,58.780071 v 6.04755 h 6.242634 v -6.04755 z"
       id="path71-07" />
    <path
       style="fill:#b3b3b3;fill-opacity:1;fill-rule:evenodd;stroke:#000000;stroke-width:0.257446;stroke-miterlimit:4.5;stroke-dasharray:none"
       d="m 44.124042,58.780071 v 6.04755 h 6.242635 v -6.04755 z"
       id="path71-05" />
    <path
       id="path100"
       d="m 31.638778,70.87516 v 6.047552 h 6.24263 V 70.87516 Z"
       style="fill:#b3b3b3;fill-opacity:1;fill-rule:evenodd;stroke:#000000;stroke-width:0.257446;stroke-miterlimit:4.5;stroke-dasharray:none" />
    <path
       style="fill:#b3b3b3;fill-opacity:1;fill-rule:evenodd;stroke:#000000;stroke-width:0.257446;stroke-miterlimit:4.5;stroke-dasharray:none"
       d="m 31.638778,52.732519 v 6.047552 h 6.24263 v -6.047552 z"
       id="path102" />
    <path
       id="path105"
       d="m 31.638778,64.827621 v 6.047539 h 6.24263 v -6.047539 z"
       style="fill:#b3b3b3;fill-opacity:1;fill-rule:evenodd;stroke:#000000;stroke-width:0.257446;stroke-miterlimit:4.5;stroke-dasharray:none" />
    <path
       style="fill:none;stroke:#000000;stroke-width:0.238916;stroke-linecap:butt;stroke-linejoin:miter;stroke-miterlimit:8;stroke-dasharray:none;stroke-opacity:1"
       d="m 77.111734,52.3822 8.140766,-8.91843 8.165391,8.91843 -3.12352,14.447211 H 80.210645 Z"
       id="path107" />
    <path
       style="fill:#b3b3b3;fill-opacity:1;fill-rule:evenodd;stroke:#000000;stroke-width:0.0951849"
       d="m 79.739044,52.53025 v 3.47212 h 3.584125 v -3.47212 z"
       id="path109" />
    <path
       id="path113"
       d="m 85.12999,52.524789 v 3.472122 h 3.584109 v -3.472122 z"
       style="fill:#f2f2f2;fill-opacity:1;fill-rule:evenodd;stroke:#000000;stroke-width:0.0951849" />
    <path
       id="path115"
       d="m 87.244479,52.531661 v 3.472119 h 3.58413 v -3.472119 z"
       style="fill:#b3b3b3;fill-opacity:1;fill-rule:evenodd;stroke:#000000;stroke-width:0.0951849" />
    <path
       style="fill:#b3b3b3;fill-opacity:1;fill-rule:evenodd;stroke:#000000;stroke-width:0.0951849"
       d="m 83.333649,59.589932 v 3.472119 h 3.58413 v -3.472119 z"
       id="path117" />
    <path
       id="path119"
       d="m 83.52185,48.945771 v 3.472108 h 3.58412 v -3.472108 z"
       style="fill:#b3b3b3;fill-opacity:1;fill-rule:evenodd;stroke:#000000;stroke-width:0.0951849" />
    <path
       style="fill:#b3b3b3;fill-opacity:1;fill-rule:evenodd;stroke:#000000;stroke-width:0.0951849"
       d="m 83.333649,56.11781 v 3.472122 h 3.58413 V 56.11781 Z"
       id="path121" />
    <path
       id="path168"
       d="m 31.638778,58.780071 v 6.04755 h 6.24263 v -6.04755 z"
       style="fill:#b3b3b3;fill-opacity:1;fill-rule:evenodd;stroke:#000000;stroke-width:0.257446;stroke-miterlimit:4.5;stroke-dasharray:none" />
    <path
       id="path170"
       d="m 59.726897,52.3822 8.67932,-8.76704 8.705517,8.76704 -3.330128,14.201971 H 63.030805 Z"
       style="fill:none;stroke:#000000;stroke-width:0.203824;stroke-linecap:butt;stroke-linejoin:miter;stroke-miterlimit:4.5;stroke-dasharray:none;stroke-opacity:1" />
    <path
       style="fill:#b3b3b3;fill-opacity:1;fill-rule:evenodd;stroke:#000000;stroke-width:0.257446;stroke-miterlimit:4.5;stroke-dasharray:none"
       d="M 62.020702,52.828222 V 56.78103 H 66.10103 V 52.828222 Z"
       id="path174" />
    <path
       style="fill:#b3b3b3;fill-opacity:1;fill-rule:evenodd;stroke:#000000;stroke-width:0.257446;stroke-miterlimit:4.5;stroke-dasharray:none"
       d="m 70.18136,52.828222 v 3.952808 h 4.080327 v -3.952808 z"
       id="path176" />
    <path
       id="path180"
       d="m 66.10103,60.73385 v 3.952811 h 4.08033 V 60.73385 Z"
       style="fill:#b3b3b3;fill-opacity:1;fill-rule:evenodd;stroke:#000000;stroke-width:0.257446;stroke-miterlimit:4.5;stroke-dasharray:none" />
    <path
       style="fill:#b3b3b3;fill-opacity:1;fill-rule:evenodd;stroke:#000000;stroke-width:0.257446;stroke-miterlimit:4.5;stroke-dasharray:none"
       d="m 66.10103,48.875399 v 3.952823 h 4.08033 v -3.952823 z"
       id="path182" />
    <path
       id="path184"
       d="m 66.10103,56.78103 v 3.95282 h 4.08033 v -3.95282 z"
       style="fill:#b3b3b3;fill-opacity:1;fill-rule:evenodd;stroke:#000000;stroke-width:0.257446;stroke-miterlimit:4.5;stroke-dasharray:none" />
    <path
       id="path186"
       d="m 66.10103,52.828222 v 3.952808 h 4.08033 v -3.952808 z"
       style="fill:#cccccc;fill-opacity:1;fill-rule:evenodd;stroke:#000000;stroke-width:0.257446;stroke-miterlimit:4.5;stroke-dasharray:none" />
    <path
       style="fill:#f9f9f9;stroke:#000000;stroke-width:0.243734;stroke-linecap:butt;stroke-linejoin:miter;stroke-miterlimit:8;stroke-dasharray:none;stroke-opacity:1"
       d="m 107.39225,55.264582 -0.94823,3.303918 3.01646,1.741551 0.9429,-3.307011 z"
       id="path190" />
    <path
       id="path192"
       d="m 111.34563,53.632301 -0.94823,3.30395 3.01645,1.741548 0.94291,-3.30703 z"
       style="fill:#f9f9f9;stroke:#000000;stroke-width:0.243734;stroke-linecap:butt;stroke-linejoin:miter;stroke-miterlimit:8;stroke-dasharray:none;stroke-opacity:1" />
    <path
       style="fill:#f9f9f9;stroke:#000000;stroke-width:0.243734;stroke-linecap:butt;stroke-linejoin:miter;stroke-miterlimit:8;stroke-dasharray:none;stroke-opacity:1"
       d="m 105.28102,50.167619 -0.94824,3.30395 3.01647,1.741541 0.9429,-3.30703 z"
       id="path194" />
    <path
       id="path196"
       d="m 109.2404,48.602162 -0.94825,3.303918 3.01646,1.741569 0.9429,-3.307029 z"
       style="fill:#f9f9f9;stroke:#000000;stroke-width:0.243734;stroke-linecap:butt;stroke-linejoin:miter;stroke-miterlimit:8;stroke-dasharray:none;stroke-opacity:1" />
    <path
       id="path198"
       d="m 105.25852,62.40558 -0.38345,3.415871 3.26483,1.213631 0.37768,-3.418023 z"
       style="fill:#cccccc;stroke:#000000;stroke-width:0.243734;stroke-linecap:butt;stroke-linejoin:miter;stroke-miterlimit:8;stroke-dasharray:none;stroke-opacity:1" />
    <path
       id="path200"
       d="m 106.44936,58.57158 -0.94824,3.303942 3.01646,1.741537 0.9429,-3.307008 z"
       style="fill:#f9f9f9;stroke:#000000;stroke-width:0.243734;stroke-linecap:butt;stroke-linejoin:miter;stroke-miterlimit:8;stroke-dasharray:none;stroke-opacity:1" />
    <text
       xml:space="preserve"
       style="font-size:4.66878px;line-height:1.25;font-family:sans-serif;stroke-width:0.145899"
       x="15.904752"
       y="21.131582"
       id="text206"><tspan
         sodipodi:role="line"
         id="tspan204"
         x="15.904752"
         y="21.131582"
         style="stroke-width:0.145899">Diamond(SideAttached,FustionFormed)</tspan><tspan
         sodipodi:role="line"
         x="15.904752"
         y="26.967558"
         style="stroke-width:0.145899"
         id="tspan208">UnderOpen Beautyless(Ruined Rulered Embed)</tspan><tspan
         sodipodi:role="line"
         x="15.904752"
         y="32.803532"
         style="stroke-width:0.145899"
         id="tspan1043">Me-Cha-Y-Nic du Do Ruassa //软傻 美铠腻扣 毒 </tspan><tspan
         sodipodi:role="line"
         x="15.904752"
         y="38.757092"
         style="stroke-width:0.145899"
         id="tspan1045">Mei-Kan-Ni-Kou</tspan></text>
    <path
       id="path1033"
       d="M 82.596723,93.219601 86.169879,81.603889 H 98.661321 L 102.2635,93.219601 Z"
       style="fill:#f9f9f9;stroke:#000000;stroke-width:0.141051;stroke-linecap:butt;stroke-linejoin:miter;stroke-miterlimit:8;stroke-dasharray:none;stroke-opacity:1" />
    <path
       style="fill:#f9f9f9;stroke:#000000;stroke-width:0.141051;stroke-linecap:butt;stroke-linejoin:miter;stroke-miterlimit:8;stroke-dasharray:none;stroke-opacity:1"
       d="m 82.596723,93.219601 3.573148,15.606119 h 12.49145 L 102.2635,93.219601 Z"
       id="path1035" />
    <text
       xml:space="preserve"
       style="font-size:3.76566px;line-height:1.25;font-family:sans-serif;stroke-width:0.117676"
       x="78.90863"
       y="96.373138"
       id="text1049"
       transform="scale(1.0951195,0.91314236)"><tspan
         sodipodi:role="line"
         id="tspan1047"
         x="78.90863"
         y="96.373138"
         style="stroke-width:0.117676">Venus</tspan></text>
    <text
       id="text1049-3"
       y="109.09182"
       x="78.435875"
       style="font-size:2.12571px;line-height:1.25;font-family:sans-serif;stroke-width:0.0664284"
       xml:space="preserve"
       transform="scale(1.0951195,0.91314236)"><tspan
         style="stroke-width:0.0664284"
         y="109.09182"
         x="78.435875"
         id="tspan1047-6"
         sodipodi:role="line">Airea/Shan\</tspan><tspan
         style="stroke-width:0.0664284"
         y="111.74895"
         x="78.435875"
         sodipodi:role="line"
         id="tspan1073">Gaetub</tspan></text>
    <text
       xml:space="preserve"
       style="font-size:4.42852px;line-height:1.25;font-family:sans-serif;stroke-width:0.138391"
       x="79.999481"
       y="103.50348"
       id="text1071"
       transform="scale(1.0951195,0.91314236)"><tspan
         sodipodi:role="line"
         id="tspan1069"
         x="79.999481"
         y="103.50348"
         style="stroke-width:0.138391">Oni</tspan></text>
    <path
       style="fill:none;stroke:#800000;stroke-width:0.264583px;stroke-linecap:butt;stroke-linejoin:miter;stroke-opacity:1"
       d="m 59.661838,82.360161 -0.0587,28.406109"
       id="path1096" />
    <path
       style="fill:#000000;stroke-width:0.0624896"
       d="m 58.235279,93.156841 c -2.724549,-0.342611 -5.30361,-1.724879 -7.00845,-3.75626 -1.37011,-1.632519 -2.16899,-3.398131 -2.503889,-5.533861 -0.14659,-0.93477 -0.0982,-2.837529 0.095,-3.73952 0.309269,-1.443541 0.989039,-3.012488 1.799688,-4.1538 0.513871,-0.723469 1.738691,-1.96683 2.434881,-2.47174 1.517549,-1.100601 3.341849,-1.819659 5.15316,-2.031148 0.993529,-0.116001 2.577369,-0.0484 3.486851,0.148849 2.147628,0.465749 3.970189,1.457471 5.519589,3.003389 1.43215,1.428922 2.49061,3.36156 2.911999,5.316982 0.379521,1.761159 0.31867,3.67366 -0.171,5.3741 -0.54215,1.882688 -1.520889,3.495098 -2.95865,4.874189 -1.602169,1.53679 -3.42764,2.461551 -5.68868,2.88182 -0.605869,0.11262 -2.45102,0.164899 -3.070499,0.087 z m 3.091752,-0.996619 c 2.68328,-0.531521 4.975958,-2.07074 6.514729,-4.37375 0.19362,-0.289772 0.330409,-0.547722 0.303991,-0.57322 -0.02641,-0.02551 -0.919771,-0.370202 -1.985222,-0.766001 -1.065451,-0.3958 -2.886049,-1.072851 -4.04577,-1.50455 -1.159719,-0.43171 -2.153208,-0.784921 -2.207739,-0.784921 -0.0836,0 -1.415579,0.50406 -4.24475,1.606381 -2.29462,0.894051 -4.223861,1.640311 -4.42114,1.710179 -0.128881,0.0456 -0.234331,0.099 -0.234331,0.118502 0,0.13385 1.106062,1.464868 1.644441,1.97889 1.582359,1.510768 3.53191,2.426438 5.77151,2.71077 0.64145,0.0814 2.209059,0.0154 2.904281,-0.12228 z m -8.71465,-5.990452 c 0.85258,-0.714979 2.435928,-2.039059 3.518558,-2.94241 1.082641,-0.903338 1.989389,-1.70329 2.01502,-1.777649 0.02561,-0.0744 0.201422,-1.0913 0.39067,-2.259861 0.189241,-1.168548 0.512749,-3.150129 0.718899,-4.403508 0.206161,-1.253371 0.37483,-2.328971 0.37483,-2.39023 0,-0.095 -0.0576,-0.111361 -0.392199,-0.111361 -1.425269,0 -3.268758,0.5079 -4.5881,1.26406 -2.837249,1.626111 -4.71773,4.426688 -5.08703,7.576029 -0.102029,0.870022 -0.0409,2.33466 0.131561,3.15408 0.172299,0.818501 0.49049,1.73823 0.854311,2.469401 0.294849,0.59259 0.377348,0.72141 0.462018,0.72141 0.0282,0 0.748882,-0.58498 1.601462,-1.299961 z m 1.589317,0.058 c 1.490703,-0.579962 3.350102,-1.302272 4.132001,-1.60514 l 1.421641,-0.550662 -0.007,-0.472649 c -0.004,-0.25995 -0.02511,-0.645109 -0.0469,-0.8559 l -0.0396,-0.38326 -1.84344,1.096389 c -1.013888,0.603022 -2.82766,1.68099 -4.03058,2.395489 -2.385798,1.417111 -2.39245,1.421173 -2.335429,1.426523 0.02151,0.0021 1.25885,-0.470832 2.74955,-1.05079 z m 13.859233,0.772199 c -0.0521,-0.0521 -1.59707,-1.300771 -3.433191,-2.774741 l -3.338399,-2.679948 -0.599752,0.322029 c -1.023261,0.54941 -1.09723,0.385231 0.609272,1.352259 0.817977,0.463521 2.682337,1.52418 4.143039,2.357012 1.46069,0.832829 2.66886,1.515128 2.684819,1.516208 0.01601,0.0011 -0.0136,-0.0407 -0.0658,-0.0928 z m 0.695338,-0.958511 c 1.274371,-3.176378 0.86157,-6.735429 -1.102728,-9.50744 -0.506262,-0.71443 -1.68185,-1.89779 -2.368772,-2.384419 -1.012248,-0.717111 -2.23333,-1.275829 -3.46315,-1.584611 -0.560059,-0.140618 -1.973159,-0.33196 -2.02983,-0.274849 -0.0141,0.01421 0.056,0.51794 0.155842,1.119399 0.0998,0.601472 0.434869,2.64019 0.744588,4.5305 0.510841,3.117871 0.576151,3.447891 0.703601,3.555061 0.122679,0.103161 4.784709,3.855849 6.323399,5.090009 l 0.55886,0.448252 0.109511,-0.17295 c 0.0602,-0.0951 0.226129,-0.463651 0.368679,-0.818952 z m -9.005859,-8.6482 c -0.003,-2.65503 -0.01619,-4.799208 -0.0299,-4.764839 -0.01371,0.0344 -0.347361,2.030698 -0.74136,4.43629 -0.658432,4.020151 -0.7078,4.37887 -0.610582,4.436639 0.587272,0.34897 1.245701,0.707581 1.308701,0.71278 0.0619,0.005 0.0771,-0.994828 0.0732,-4.82087 z"
       id="path1112" />
    <path
       style="fill:none;stroke:#000000;stroke-width:0.208008px;stroke-linecap:butt;stroke-linejoin:miter;stroke-opacity:1"
       d="m 108.29215,51.90608 -0.8999,3.358502"
       id="path1120" />
    <path
       style="fill:none;stroke:#ff0000;stroke-width:0.0846066px;stroke-linecap:butt;stroke-linejoin:miter;stroke-opacity:1"
       d="M 108.91935,52.327611 V 56.03517"
       id="path1122" />
    <path
       id="path1124"
       d="m 100.36378,53.268491 8.1709,-8.951431 8.19559,8.951431 -3.13508,14.500651 h -10.12103 z"
       style="fill:none;stroke:#000000;stroke-width:0.2398;stroke-linecap:butt;stroke-linejoin:miter;stroke-miterlimit:8;stroke-dasharray:none;stroke-opacity:1" />
    <path
       style="fill:none;stroke:#800000;stroke-width:0.0890146;stroke-linecap:butt;stroke-linejoin:miter;stroke-miterlimit:4;stroke-dasharray:none;stroke-opacity:1"
       d="M 108.53468,44.31706 108.1399,67.035082"
       id="path1126" />
    <path
       style="fill:#808080;stroke:#b3b3b3;stroke-width:0.264583px;stroke-linecap:butt;stroke-linejoin:miter;stroke-opacity:1"
       d="m 92.43022,81.60122 v 27.25804"
       id="path1128" />
    <path
       id="path1210"
       d="M 123.34044,52.767852 127.2358,37.12869 h 16.33166 l -3.92422,15.639162 z"
       style="fill:#b3b3b3;stroke:#000000;stroke-width:0.605946px;stroke-linecap:butt;stroke-linejoin:miter;stroke-miterlimit:8;stroke-dasharray:none;stroke-opacity:1" />
    <path
       style="fill:none;stroke:#000000;stroke-width:0.264583px;stroke-linecap:butt;stroke-linejoin:miter;stroke-opacity:1"
       d="m 125.57934,44.39413 h 15.85922"
       id="path1212" />
    <path
       style="fill:none;stroke:#000000;stroke-width:0.264583px;stroke-linecap:butt;stroke-linejoin:miter;stroke-opacity:1"
       d="m 133.55768,36.96832 v 15.859222 l -0.36045,0.180218"
       id="path1214" />
    <path
       style="fill:#b3b3b3;stroke:#000000;stroke-width:0.605946px;stroke-linecap:butt;stroke-linejoin:miter;stroke-miterlimit:8;stroke-dasharray:none;stroke-opacity:1"
       d="m 153.10642,56.21288 -6.09608,-14.91962 13.17712,-9.64813 6.0728,14.936671 z"
       id="path1216" />
    <path
       id="path1218"
       d="m 148.77227,43.37466 h 15.85922"
       style="fill:none;stroke:#000000;stroke-width:0.264583px;stroke-linecap:butt;stroke-linejoin:miter;stroke-opacity:1" />
    <path
       id="path1220"
       d="m 156.75061,35.94885 v 15.85922 l -0.36045,0.180221"
       style="fill:none;stroke:#000000;stroke-width:0.264583px;stroke-linecap:butt;stroke-linejoin:miter;stroke-opacity:1" />
  </g>
</svg>
