<?xml version="1.0" encoding="UTF-8" standalone="no"?>
<!-- Created with Inkscape (http://www.inkscape.org/) -->

<svg
   width="297mm"
   height="210mm"
   viewBox="0 0 297 210"
   version="1.1"
   id="svg1"
   inkscape:version="1.3 (0e150ed6c4, 2023-07-21)"
   sodipodi:docname="kls.svg"
   xmlns:inkscape="http://www.inkscape.org/namespaces/inkscape"
   xmlns:sodipodi="http://sodipodi.sourceforge.net/DTD/sodipodi-0.dtd"
   xmlns="http://www.w3.org/2000/svg"
   xmlns:svg="http://www.w3.org/2000/svg">
  <sodipodi:namedview
     id="namedview1"
     pagecolor="#ffffff"
     bordercolor="#666666"
     borderopacity="1.0"
     inkscape:showpageshadow="2"
     inkscape:pageopacity="0.0"
     inkscape:pagecheckerboard="0"
     inkscape:deskcolor="#d1d1d1"
     inkscape:document-units="mm"
     inkscape:zoom="1.0747123"
     inkscape:cx="962.11795"
     inkscape:cy="506.64722"
     inkscape:window-width="1858"
     inkscape:window-height="1057"
     inkscape:window-x="-8"
     inkscape:window-y="-8"
     inkscape:window-maximized="1"
     inkscape:current-layer="layer1" />
  <defs
     id="defs1" />
  <g
     inkscape:label="图层 1"
     inkscape:groupmode="layer"
     id="layer1">
    <text
       xml:space="preserve"
       style="font-size:5.64916px;line-height:1.25;font-family:sans-serif;letter-spacing:0px;fill:#000000;stroke:#000000;stroke-width:0.169848;stroke-dasharray:none"
       x="-29.390467"
       y="118.5847"
       id="text13"
       transform="scale(1.2099153,0.82650413)"><tspan
         sodipodi:role="line"
         id="tspan13"
         style="font-size:5.64916px;fill:#000000;stroke:#000000;stroke-width:0.169848;stroke-dasharray:none"
         x="-29.390467"
         y="118.5847">TBK</tspan><tspan
         sodipodi:role="line"
         style="font-size:5.64916px;fill:#000000;stroke:#000000;stroke-width:0.169848;stroke-dasharray:none"
         x="-29.390467"
         y="125.64615"
         id="tspan15">KSH^MR</tspan><tspan
         sodipodi:role="line"
         style="font-size:5.64916px;fill:#000000;stroke:#000000;stroke-width:0.169848;stroke-dasharray:none"
         x="-29.390467"
         y="132.7076"
         id="tspan18">XZN^AN</tspan><tspan
         sodipodi:role="line"
         style="font-size:5.64916px;fill:#000000;stroke:#000000;stroke-width:0.169848;stroke-dasharray:none"
         x="-29.390467"
         y="139.76906"
         id="tspan16">XZN.JSN</tspan><tspan
         sodipodi:role="line"
         style="font-size:5.64916px;fill:#000000;stroke:#000000;stroke-width:0.169848;stroke-dasharray:none"
         x="-29.390467"
         y="146.83051"
         id="tspan17">BDN^W</tspan></text>
    <text
       id="text1979-2"
       y="80.816864"
       x="-34.176659"
       style="font-style:normal;font-weight:normal;font-size:3.01714px;line-height:1.25;font-family:sans-serif;fill:#000000;fill-opacity:1;stroke:none;stroke-width:0.0754288"
       xml:space="preserve"><tspan
         style="stroke-width:0.0754288"
         y="80.816864"
         x="-34.176659"
         id="tspan1977-2"
         sodipodi:role="line" /><tspan
         id="tspan1981-0"
         style="stroke-width:0.0754288"
         y="84.588287"
         x="-34.176659"
         sodipodi:role="line" /><tspan
         style="stroke-width:0.0754288"
         y="88.359711"
         x="-34.176659"
         sodipodi:role="line"
         id="tspan1952">Attension:NationFlag</tspan></text>
    <path
       id="path3391-97-6"
       d="m 214.0866,23.495684 -9.03849,15.65507"
       style="fill:#f9f9f9;stroke:#000000;stroke-width:0.813995;stroke-linecap:butt;stroke-linejoin:miter;stroke-miterlimit:3.89655;stroke-dasharray:none;stroke-opacity:1" />
    <path
       style="fill:#f9f9f9;stroke:#000000;stroke-width:0.813995;stroke-linecap:butt;stroke-linejoin:miter;stroke-miterlimit:3.89655;stroke-dasharray:none;stroke-opacity:1"
       d="m 223.41015,23.495684 9.03844,15.65507"
       id="path3391-0-2-2" />
    <path
       id="path3421-9-5"
       d="m 211.64085,45.74351 h 14.23299 -0.12435"
       style="fill:#f9f9f9;stroke:#000000;stroke-width:0.813995;stroke-linecap:butt;stroke-linejoin:miter;stroke-miterlimit:3.89655;stroke-dasharray:none;stroke-opacity:1" />
    <g
       style="fill:#f9f9f9;stroke-width:0.515603;stroke-miterlimit:3.89655;stroke-dasharray:none"
       transform="matrix(1.5787223,0,0,1.5787223,197.80821,-71.817586)"
       id="g3541-31-44-0">
      <path
         style="fill:#f9f9f9;stroke:#000000;stroke-width:0.515603;stroke-linecap:butt;stroke-linejoin:miter;stroke-miterlimit:3.89655;stroke-dasharray:none;stroke-opacity:1"
         d="m 10.309813,60.476188 h 5.957775 -0.05203"
         id="path3421-9-7-0-4" />
      <path
         inkscape:connector-curvature="0"
         id="path8725-1-3-4-3-9-4-1"
         d="m 14.952753,60.476189 a 1.6640523,1.6640523 0 0 1 -1.664056,1.664059 1.6640523,1.6640523 0 0 1 -1.664049,-1.664059 1.6640523,1.6640523 0 0 1 1.664049,-1.66406 1.6640523,1.6640523 0 0 1 1.664056,1.66406 z"
         style="fill:#f9f9f9;fill-opacity:1;stroke:#000000;stroke-width:0.515603;stroke-linecap:round;stroke-miterlimit:3.89655;stroke-dasharray:none;stroke-dashoffset:0;stroke-opacity:1;paint-order:stroke fill markers" />
    </g>
    <g
       style="fill:#f9f9f9;stroke-width:0.515603;stroke-miterlimit:3.89655;stroke-dasharray:none"
       transform="matrix(1.1163252,1.1163252,-1.1163252,1.1163252,261.05013,-39.869426)"
       id="g3541-2-68-7">
      <path
         style="fill:#f9f9f9;stroke:#000000;stroke-width:0.515603;stroke-linecap:butt;stroke-linejoin:miter;stroke-miterlimit:3.89655;stroke-dasharray:none;stroke-opacity:1"
         d="m 10.309813,60.476188 h 5.957775 -0.05203"
         id="path3421-9-6-3-9" />
      <path
         inkscape:connector-curvature="0"
         id="path8725-1-3-4-3-6-40-2"
         d="m 14.952753,60.476189 a 1.6640523,1.6640523 0 0 1 -1.664056,1.664059 1.6640523,1.6640523 0 0 1 -1.664049,-1.664059 1.6640523,1.6640523 0 0 1 1.664049,-1.66406 1.6640523,1.6640523 0 0 1 1.664056,1.66406 z"
         style="fill:#f9f9f9;fill-opacity:1;stroke:#000000;stroke-width:0.515603;stroke-linecap:round;stroke-miterlimit:3.89655;stroke-dasharray:none;stroke-dashoffset:0;stroke-opacity:1;paint-order:stroke fill markers" />
    </g>
    <g
       style="fill:#f9f9f9;stroke-width:0.515603;stroke-miterlimit:3.89655;stroke-dasharray:none"
       id="g3541-2-9-6-3"
       transform="matrix(-1.1163252,1.1163252,1.1163252,1.1163252,176.44661,-39.869426)">
      <path
         id="path3421-9-6-7-5-4"
         d="m 10.309813,60.476188 h 5.957775 -0.05203"
         style="fill:#f9f9f9;stroke:#000000;stroke-width:0.515603;stroke-linecap:butt;stroke-linejoin:miter;stroke-miterlimit:3.89655;stroke-dasharray:none;stroke-opacity:1" />
      <path
         style="fill:#f9f9f9;fill-opacity:1;stroke:#000000;stroke-width:0.515603;stroke-linecap:round;stroke-miterlimit:3.89655;stroke-dasharray:none;stroke-dashoffset:0;stroke-opacity:1;paint-order:stroke fill markers"
         d="m 14.952753,60.476189 a 1.6640523,1.6640523 0 0 1 -1.664056,1.664059 1.6640523,1.6640523 0 0 1 -1.664049,-1.664059 1.6640523,1.6640523 0 0 1 1.664049,-1.66406 1.6640523,1.6640523 0 0 1 1.664056,1.66406 z"
         id="path8725-1-3-4-3-6-4-9-4"
         inkscape:connector-curvature="0" />
    </g>
    <path
       inkscape:export-ydpi="96"
       inkscape:export-xdpi="96"
       id="path1849-7-5-2"
       d="m 186.30816,70.303361 -2.04304,5e-4 v 4.05934 4.05947 l -1.81017,0.007 c -0.99558,0.001 -1.91488,-5e-4 -2.04294,-0.0251 -0.21231,-0.0289 -0.23318,-0.38831 -0.2344,-4.07381 v -4.04156 l -6.09579,4.9e-4 -6.09586,5.1e-4 v 2.02535 2.02542 l 3.84998,-2.9e-4 c 2.11729,0 3.94783,0.007 4.06759,0.0289 0.19205,0.0253 0.21766,0.26529 0.21356,2.02103 l -0.005,1.99409 -0.35494,0.0251 c -0.19502,0.007 -2.02368,0.0251 -4.06365,0.0251 l -3.70884,5.1e-4 v 6.11514 6.115113 h 2.03015 2.03017 l 0.005,-4.041173 c 0,-2.22252 0.0241,-4.06238 0.0536,-4.08853 0.0241,-0.0289 0.93065,-0.0476 2.0101,-0.0476 l 1.96273,5.1e-4 0.0119,0.29951 c 0.005,0.16467 0.0179,2.00373 0.0241,4.08649 l 0.005,3.787083 h 6.04515 c 3.32484,2.6e-4 6.07865,-0.0289 6.11949,-0.0738 0.0417,-0.042 0.0735,-0.96058 0.0722,-2.043813 v -1.96943 h -4.086 l -4.08583,-5e-4 v -2.04287 -2.043 l 4.08916,-5.1e-4 4.0892,-5.2e-4 v -6.09577 -6.09582 z"
       style="fill:#ffffff;fill-opacity:1;stroke:#333333;stroke-width:0.616;stroke-miterlimit:3.89655;stroke-dasharray:none" />
    <path
       style="fill:#ffffff;stroke:#000000;stroke-width:0.489;stroke-miterlimit:4;stroke-dasharray:none"
       d="m 178.71165,20.514536 c -0.25195,-0.25217 -0.46122,-0.38285 -0.82058,-0.51264 -0.3747,-0.1352 -0.60512,-0.16763 -0.97369,-0.13642 -0.92373,0.0783 -1.69994,0.69587 -1.96623,1.56448 -0.0833,0.27207 -0.10438,0.41118 -0.10221,0.67513 0.004,0.49233 0.18188,0.99556 0.47829,1.35338 0.0378,0.0447 0.0292,0.0449 -0.0746,0.002 -0.0637,-0.0267 -0.15328,-0.0659 -0.19864,-0.0874 -0.50037,-0.23282 -2.59366,-1.02232 -2.72861,-1.02922 -0.0325,-9.9e-4 -0.0696,0.0436 -0.14012,0.18254 -0.0529,0.10163 -0.19846,0.37759 -0.32389,0.6131 -0.12544,0.2356 -0.28278,0.53234 -0.34957,0.65962 -0.0668,0.12727 -0.20707,0.39067 -0.31137,0.58581 -0.10432,0.19517 -0.22502,0.42111 -0.26819,0.50234 l -0.0786,0.14756 0.24466,0.13446 c 0.13473,0.0742 0.27506,0.14968 0.31211,0.16848 0.45741,0.23202 1.98041,1.2013 2.4253,1.54332 0.49036,0.37691 0.91034,0.71093 1.08045,0.85924 1.51269,1.31861 2.56127,2.68195 3.25405,4.23087 0.59618,1.33358 0.90922,2.70859 0.97229,4.27395 0.0116,0.2862 0.003,1.12657 -0.0136,1.37226 -0.0231,0.33926 -0.0433,0.50602 -0.0611,0.50778 -0.0272,6.1e-4 -0.0753,-0.0202 -2.47676,-1.10053 -0.76174,-0.34289 -0.9315,-0.41899 -1.12336,-0.50341 -0.0744,-0.033 -0.23455,-0.1051 -0.35656,-0.16124 -0.12199,-0.0561 -0.40457,-0.18321 -0.62806,-0.28263 -0.22368,-0.0996 -0.61196,-0.27427 -0.8631,-0.38854 -0.25123,-0.1145 -0.5282,-0.23916 -0.61596,-0.27807 -0.0875,-0.0385 -0.31505,-0.13956 -0.50551,-0.22419 -0.19052,-0.0847 -0.35433,-0.15614 -0.36424,-0.15873 -0.0103,-0.005 -0.065,-0.0294 -0.12245,-0.0594 -0.0576,-0.0303 -0.21121,-0.10162 -0.34165,-0.15828 -0.13043,-0.0566 -0.48116,-0.2128 -0.77938,-0.34684 -0.29831,-0.13408 -0.77048,-0.34515 -1.04957,-0.46956 -0.279,-0.12426 -0.56903,-0.25499 -0.64434,-0.29005 -0.16451,-0.0769 -1.20371,-0.54377 -1.60826,-0.72268 -0.15879,-0.0701 -0.3237,-0.14327 -0.36617,-0.16282 l -0.0772,-0.0349 0.28408,-0.61877 c 0.15627,-0.34005 0.32251,-0.70166 0.36936,-0.80276 0.13799,-0.29878 0.60343,-1.31322 0.64657,-1.40961 0.0212,-0.0494 0.076,-0.16535 0.12022,-0.25933 l 0.0806,-0.17043 -0.20636,-0.0889 c -0.2554,-0.11027 -0.73417,-0.31127 -0.75725,-0.31819 -0.0111,-0.007 -0.33772,-0.13938 -0.7297,-0.30365 -0.39194,-0.16399 -0.72026,-0.30079 -0.72949,-0.30372 -0.0337,-0.0118 -0.81685,-0.34067 -0.95098,-0.40067 -0.18761,-0.0842 -1.21133,-0.51067 -1.29304,-0.53895 -0.0337,-0.0118 -0.19431,-0.0783 -0.35063,-0.14558 -0.15586,-0.067 -0.29164,-0.11819 -0.30112,-0.11366 -0.0193,0.009 -0.25626,0.51236 -0.69252,1.45714 -0.11447,0.2477 -0.24306,0.5212 -0.28591,0.60732 -0.0429,0.0861 -0.19247,0.40278 -0.33209,0.70232 -0.29875,0.64093 -0.86586,1.8529 -0.98106,2.09594 -0.0449,0.0933 -0.22534,0.47962 -0.40215,0.85774 -0.17664,0.37837 -0.45789,0.97899 -0.62468,1.33492 -0.1667,0.35568 -0.35043,0.74838 -0.40826,0.87206 -0.0576,0.12411 -0.11643,0.24864 -0.13071,0.27736 -0.0141,0.0292 -0.0405,0.0833 -0.0579,0.12202 l -0.0315,0.0712 0.14632,0.2353 c 0.21442,0.34306 0.54091,1.0381 0.6581,1.39848 0.30338,0.94448 0.31387,1.84019 0.0318,2.73343 l -0.051,0.16122 0.1713,0.0876 c 0.45233,0.23163 0.93717,0.48235 1.68162,0.87002 0.44735,0.23289 0.83123,0.43063 0.8532,0.43948 0.0337,0.0118 0.0643,-0.0307 0.16935,-0.24089 0.27475,-0.54419 1.78967,-3.586 1.90205,-3.8185 0.0725,-0.15025 0.0785,-0.15639 0.13253,-0.13742 0.0608,0.0215 1.35603,0.57464 1.54977,0.66214 0.0643,0.0287 0.19917,0.0855 0.29966,0.12559 0.16082,0.064 0.50296,0.21195 0.87411,0.37755 0.0647,0.0296 0.19356,0.0832 0.28542,0.11951 0.0916,0.037 0.44344,0.18594 0.78142,0.33222 0.33794,0.14603 0.642,0.27631 0.67528,0.28964 0.0337,0.0118 0.25926,0.10901 0.50138,0.21326 0.24196,0.10375 0.60044,0.25625 0.79632,0.3383 0.19573,0.0822 0.78482,0.33385 1.30895,0.55931 1.78821,0.76928 2.15567,0.92683 2.23212,0.9568 0.043,0.0187 0.20004,0.0834 0.35094,0.14822 0.15088,0.0648 0.70603,0.30294 1.23355,0.52873 0.52767,0.22595 0.95814,0.41394 0.95668,0.418 4e-4,0.0101 -0.13047,0.10155 -0.28445,0.22177 -0.62651,0.476 -1.37282,0.97783 -2.15493,1.44799 -0.5481,0.33037 -2.0972,1.07039 -2.66581,1.27349 -2.8826,1.03314 -5.52225,1.08347 -8.25302,0.15731 -2.07225,-0.70278 -4.12551,-1.952 -6.18155,-3.76078 l -0.31774,-0.27966 0.0265,0.0995 c 0.0413,0.15698 0.6368,1.39171 0.82554,1.71419 1.18604,2.00592 2.71396,3.52798 4.77743,4.75874 0.82928,0.49457 1.71056,0.89464 2.74351,1.2455 2.50934,0.85226 5.17572,1.03313 7.78123,0.52792 1.22817,-0.23829 2.26402,-0.58165 3.42401,-1.13524 0.63119,-0.30152 0.97564,-0.48857 1.47208,-0.8048 1.27622,-0.81053 2.42399,-1.84043 3.39356,-3.04426 0.14371,-0.17868 0.14957,-0.18314 0.20493,-0.16128 0.0317,0.0127 0.30601,0.11973 0.61015,0.23816 0.30428,0.1189 0.75935,0.29648 1.01144,0.39514 0.45025,0.17596 0.80035,0.31096 1.29378,0.49856 0.13687,0.0519 0.3135,0.12067 0.39234,0.15257 l 0.14319,0.0577 0.16697,-0.37486 c 0.0919,-0.20597 0.19593,-0.43864 0.23121,-0.51666 0.0352,-0.0779 0.0871,-0.19539 0.11502,-0.26076 0.0286,-0.0642 0.1037,-0.23347 0.16849,-0.37336 0.0649,-0.13981 0.13492,-0.29393 0.15579,-0.34261 0.0361,-0.0839 0.50417,-1.12815 0.65106,-1.4517 0.0382,-0.0839 0.11592,-0.25789 0.17316,-0.38569 0.19564,-0.43908 0.23315,-0.52206 0.26549,-0.59026 l 0.0333,-0.0665 -0.24915,-0.10541 c -0.29011,-0.12282 -0.91305,-0.393 -1.41266,-0.61266 -0.1926,-0.0847 -0.50836,-0.22171 -0.70146,-0.30423 -0.57337,-0.24506 -0.73764,-0.31819 -0.74353,-0.33053 -0.005,-0.0101 0.0142,-0.21662 0.0383,-0.46658 0.0452,-0.4693 0.0485,-0.51241 0.0864,-1.18078 0.10435,-1.83301 -0.0215,-3.71352 -0.35419,-5.2896 -0.34424,-1.63128 -0.9763,-3.19536 -1.83435,-4.53919 -1.09344,-1.71274 -2.69689,-3.2179 -4.69598,-4.40817 -0.17904,-0.10687 -0.33829,-0.20251 -0.3535,-0.21265 -0.0145,-0.01 0.064,-0.0182 0.17461,-0.0217 0.35225,-0.004 0.62718,-0.0707 0.96458,-0.23187 0.35805,-0.17105 0.58506,-0.35133 0.81519,-0.64977 0.19659,-0.25431 0.26433,-0.38436 0.36912,-0.70933 0.0921,-0.28527 0.11826,-0.50927 0.0982,-0.84404 l -0.0125,-0.2072 -0.23815,-0.49852 c -0.22291,-0.46662 -0.2461,-0.50587 -0.35732,-0.61735 z"
       id="path1695-02" />
    <path
       d="m 125.11954,19.167133 a 14.572678,15.448541 0 0 0 -14.50943,15.44839 14.572678,15.448541 0 0 0 14.57257,15.44857 14.572678,15.448541 0 0 0 8.4196,-2.83935 11.894384,12.609273 0 0 1 -11.89042,-12.60922 11.894384,12.609273 0 0 1 11.89025,-12.6092 14.572678,15.448541 0 0 0 -8.41943,-2.83919 14.572678,15.448541 0 0 0 -0.063,0 z"
       style="fill:#ffffff;stroke:#000000;stroke-width:0.585007;stroke-linecap:round;stroke-linejoin:round;stroke-miterlimit:3.89655;stroke-dasharray:none;paint-order:markers fill stroke"
       id="path1244-4-2"
       inkscape:transform-center-x="-14.445665"
       inkscape:transform-center-y="35.891822" />
    <path
       id="path1849-1-5-6"
       d="m 182.15027,79.551568 0.8067,-0.80827 -1.60403,-1.60471 -1.6039,-1.60474 0.71045,-0.7204 c 0.39048,-0.39649 0.75734,-0.75629 0.81537,-0.79947 0.0953,-0.0721 0.24559,0.0613 1.70248,1.51765 l 1.5977,1.5969 2.40891,-2.40938 2.40889,-2.40946 -0.80116,-0.7997 -0.8013,-0.79968 -1.52142,1.52159 c -0.83681,0.83693 -1.56524,1.55531 -1.61816,1.59709 -0.0846,0.067 -0.19047,-0.0192 -0.88297,-0.71446 l -0.78609,-0.79008 0.13314,-0.14688 c 0.0732,-0.0816 0.79181,-0.8078 1.59805,-1.61402 l 1.46481,-1.46687 -2.4165,-2.41709 -2.41652,-2.41703 -0.80241,0.80237 -0.80236,0.80239 1.59514,1.59908 c 0.87753,0.87932 1.59545,1.61562 1.59545,1.63634 0,0.022 -0.34949,0.38618 -0.77651,0.81229 l -0.77651,0.77493 -0.1243,-0.11246 c -0.068,-0.0621 -0.79888,-0.78488 -1.62301,-1.60706 l -1.4987,-1.49472 -2.38942,2.38891 c -1.31421,1.31393 -2.38953,2.41529 -2.38941,2.44769 0,0.0334 0.35062,0.40872 0.77925,0.83629 l 0.77909,0.77758 1.61523,-1.61446 1.6152,-1.61445 0.80817,0.8067 0.80819,0.80666 -1.61571,1.61644 -1.61578,1.61652 2.40939,2.40888 2.40952,2.40895 z"
       style="fill:#ffffff;fill-opacity:1;stroke:#333333;stroke-width:0.505703;stroke-miterlimit:3.89655;stroke-dasharray:none"
       inkscape:export-xdpi="96"
       inkscape:export-ydpi="96" />
    <path
       d="m 218.73409,65.980639 v 10.89487 h -10.89481 v 4.69673 h 10.89481 v 10.894815 h 4.69673 V 81.572239 h 10.89483 v -4.69673 h -10.89483 v -10.89487 z"
       style="fill:#ffffff;fill-opacity:1;stroke:#333333;stroke-width:0.659;stroke-linecap:round;stroke-linejoin:round;stroke-miterlimit:3.89655;stroke-dasharray:none;stroke-dashoffset:0;stroke-opacity:1;paint-order:markers fill stroke"
       id="rect8743-8-2-5-9-1-0"
       inkscape:export-xdpi="96"
       inkscape:export-ydpi="96" />
    <path
       id="path4870-2-7-3-30-4-1"
       style="fill:#ffffff;stroke:#000000;stroke-width:0.473356;stroke-miterlimit:3.89655;stroke-dasharray:none"
       d="m 112.06392,81.298621 a 11.691187,10.842473 0 0 1 11.69119,-10.84247 11.691187,10.842473 0 0 1 11.69118,10.84247 11.691187,10.842473 0 0 1 -11.69118,10.842473 11.691187,10.842473 0 0 1 -11.69119,-10.842473 z" />
    <path
       style="fill:#ffffff;stroke:#000000;stroke-width:0.479346;stroke-linecap:butt;stroke-linejoin:miter;stroke-miterlimit:3.89655;stroke-dasharray:none;stroke-opacity:1"
       d="m 120.66519,91.882674 c -2.17879,-0.98731 -3.69857,-2.8877 -3.93132,-4.915883 -0.23274,-2.02818 0.82816,-4.12664 2.74429,-5.42824 0.0709,-0.0481 0.14275,-0.0953 0.21354,-0.14337 1.81834,-1.23751 2.82455,-3.23042 2.60353,-5.15658 -0.22102,-1.92617 -1.66302,-3.73117 -3.73114,-4.6704"
       id="path4864-6-5-8-2-9-7"
       inkscape:connector-curvature="0" />
    <path
       id="path4870-2-7-5-4-8-5-2"
       style="fill:#ffffff;stroke:#000000;stroke-width:0.473356;stroke-miterlimit:3.89655;stroke-dasharray:none"
       inkscape:transform-center-x="-10.025081"
       inkscape:transform-center-y="5.5695712"
       d="m 126.54068,78.227361 a 2.3926979,2.3746868 0 0 1 2.39269,-2.37469 2.3926979,2.3746868 0 0 1 2.3927,2.37469 2.3926979,2.3746868 0 0 1 -2.3927,2.37468 2.3926979,2.3746868 0 0 1 -2.39269,-2.37468 z" />
    <path
       id="path4870-2-7-5-5-2-0"
       style="fill:#ffffff;stroke:#000000;stroke-width:0.473356;stroke-miterlimit:3.89655;stroke-dasharray:none"
       d="m 112.72733,84.346151 a 1.784145,1.654626 0 0 1 1.78414,-1.65462 1.784145,1.654626 0 0 1 1.78415,1.65462 1.784145,1.654626 0 0 1 -1.78415,1.65463 1.784145,1.654626 0 0 1 -1.78414,-1.65463 z" />
    <text
       xml:space="preserve"
       style="font-style:normal;font-weight:normal;font-size:1.62245px;line-height:1.25;font-family:sans-serif;fill:#000000;fill-opacity:1;stroke:#000000;stroke-width:0.102048;stroke-dasharray:none"
       x="15.358233"
       y="19.269634"
       id="text11"
       transform="scale(1.06504,0.93893188)"><tspan
         sodipodi:role="line"
         id="tspan9"
         x="15.358233"
         y="19.269634"
         style="stroke:#000000;stroke-width:0.102048;stroke-dasharray:none" /><tspan
         sodipodi:role="line"
         x="15.358233"
         y="24.843515"
         style="font-size:5.509px;stroke:#000000;stroke-width:0.102048;stroke-dasharray:none"
         id="tspan11">KLS^W:KRS</tspan><tspan
         sodipodi:role="line"
         x="15.358233"
         y="31.729765"
         style="font-size:5.509px;stroke:#000000;stroke-width:0.102048;stroke-dasharray:none"
         id="tspan12">TLK^RP</tspan><tspan
         sodipodi:role="line"
         x="15.358233"
         y="38.616016"
         style="font-size:5.509px;stroke:#000000;stroke-width:0.102048;stroke-dasharray:none"
         id="tspan26">GSK</tspan><tspan
         sodipodi:role="line"
         x="15.358233"
         y="45.502266"
         style="font-size:5.509px;stroke:#000000;stroke-width:0.102048;stroke-dasharray:none"
         id="tspan2">AUX^KS</tspan></text>
    <path
       id="path835-3-2-4"
       style="fill:#ffffff;stroke:#000000;stroke-width:0.763;stroke-linecap:round;stroke-linejoin:round;stroke-miterlimit:3.89655;stroke-dasharray:1.526, 1.526;stroke-dashoffset:0;paint-order:markers fill stroke"
       inkscape:transform-center-x="3.030419"
       inkscape:transform-center-y="-6.2550824"
       d="m 55.410588,65.442033 13.046677,-17.811895 13.046652,-17.81186 8.70804,20.46508 8.708045,20.465075 -21.754737,-2.65321 z" />
    <path
       style="fill:none;stroke:#000000;stroke-width:0.7;stroke-linecap:butt;stroke-linejoin:miter;stroke-miterlimit:5.5;stroke-dasharray:2.1, 0.7;stroke-dashoffset:0;stroke-opacity:1"
       d="m 66.600945,54.231338 8.16604,-11.27385 12.688282,4.5069 -0.35736,14.086345 -12.896332,4.18469 z"
       id="path75" />
    <text
       xml:space="preserve"
       style="font-size:13.0448px;fill:#000000;stroke:#000000;stroke-width:0.425752;stroke-dasharray:none;stroke-dashoffset:0"
       x="53.217339"
       y="80.09539"
       id="text83"
       transform="matrix(0.96882084,-0.29620545,0.28860041,0.94394644,0,0)"><tspan
         sodipodi:role="line"
         id="tspan83"
         style="font-style:normal;font-variant:normal;font-weight:normal;font-stretch:normal;font-family:'Yu Gothic UI';-inkscape-font-specification:'Yu Gothic UI';fill:#000000;stroke:#000000;stroke-width:0.425752;stroke-dasharray:none"
         x="53.217339"
         y="80.09539">C</tspan></text>
    <path
       sodipodi:type="star"
       style="fill:#ffffff;stroke:#000000;stroke-width:1.02034;stroke-dasharray:none;stroke-dashoffset:0;paint-order:fill markers stroke"
       id="path24-6"
       inkscape:flatsided="false"
       sodipodi:sides="5"
       sodipodi:cx="17.219604"
       sodipodi:cy="59.773796"
       sodipodi:r1="14.750503"
       sodipodi:r2="7.3752518"
       sodipodi:arg1="-0.26179939"
       sodipodi:arg2="0.36651914"
       inkscape:rounded="0"
       inkscape:randomized="0"
       d="m 31.467496,55.956085 -7.362501,6.460765 1.148309,9.727758 -8.41969,-5.005668 -8.8968015,4.09815 2.1588455,-9.554438 -6.646834,-7.194963 9.75393,-0.899299 4.788832,-8.544881 3.869415,8.99864 z"
       inkscape:transform-center-x="0.016185532"
       inkscape:transform-center-y="-0.8128721"
       transform="matrix(0.58703682,-0.03432116,0.03432116,0.58703682,123.05291,-0.32838845)" />
    <text
       xml:space="preserve"
       style="font-style:normal;font-weight:normal;font-size:2.04271px;line-height:1.25;font-family:sans-serif;fill:#000000;fill-opacity:1;stroke:#000000;stroke-width:0.128482;stroke-dasharray:none"
       x="194.72661"
       y="32.983971"
       id="text30"
       transform="scale(1.08703,0.91993781)"><tspan
         sodipodi:role="line"
         id="tspan27"
         x="194.72661"
         y="32.983971"
         style="stroke:#000000;stroke-width:0.128482;stroke-dasharray:none" /><tspan
         sodipodi:role="line"
         x="194.72661"
         y="40.001656"
         style="font-size:6.936px;stroke:#000000;stroke-width:0.128482;stroke-dasharray:none"
         id="tspan30">RBP</tspan></text>
    <path
       id="path4870-27-1-8-1"
       style="fill:#ffffff;stroke:#000000;stroke-width:0.4;stroke-dasharray:none"
       d="m 135.69013,83.002381 a 7.5035342,7.5035342 0 0 0 7.50354,7.503533 7.5035342,7.5035342 0 0 0 7.50354,-7.503533 7.5035342,7.5035342 0 0 0 -7.50354,-7.50354 7.5035342,7.5035342 0 0 0 -7.50354,7.50354 z" />
    <path
       id="path4870-2-0-6-2-7"
       style="fill:#ffffff;stroke:#000000;stroke-width:0.4;stroke-dasharray:none"
       d="m 140.56618,84.044061 a 4.8953375,4.8953375 0 0 0 4.89534,4.895343 4.8953375,4.8953375 0 0 0 4.89534,-4.895343 4.8953375,4.8953375 0 0 0 -4.89534,-4.89534 4.8953375,4.8953375 0 0 0 -4.89534,4.89534 z" />
    <path
       style="fill:#ffffff;stroke:#000000;stroke-width:0.4;stroke-linecap:butt;stroke-linejoin:miter;stroke-miterlimit:4;stroke-dasharray:none;stroke-opacity:1"
       d="m 147.35225,79.529621 c -0.42704,0.19539 -0.80183,0.50363 -1.07597,0.88493 -0.27414,0.38129 -0.44699,0.83473 -0.49621,1.30176 -0.0492,0.46703 0.0253,0.94654 0.21392,1.3766 0.18863,0.43007 0.49092,0.80968 0.86784,1.0898 0.0292,0.0218 0.0589,0.0429 0.0882,0.0647 0.35767,0.26638 0.64443,0.62707 0.82334,1.03557 0.17892,0.4085 0.24955,0.86385 0.2028,1.30735 -0.0468,0.44351 -0.21076,0.87412 -0.47091,1.23635 -0.26015,0.36222 -0.61581,0.65519 -1.02115,0.84115"
       id="path4864-4-0-2-9"
       inkscape:connector-curvature="0" />
    <path
       id="path4870-2-7-3-0-5-3"
       style="fill:#ffffff;stroke:#000000;stroke-width:0.4;stroke-dasharray:none"
       d="m 136.28964,81.070201 a 2.2834101,2.2834101 0 0 0 2.28341,2.28341 2.2834101,2.2834101 0 0 0 2.28342,-2.28341 2.2834101,2.2834101 0 0 0 -2.28342,-2.28341 2.2834101,2.2834101 0 0 0 -2.28341,2.28341 z" />
    <path
       style="fill:#ffffff;stroke:#000000;stroke-width:0.4;stroke-linecap:butt;stroke-linejoin:miter;stroke-miterlimit:4;stroke-dasharray:none;stroke-opacity:1"
       d="m 138.04841,78.886491 c -0.20301,0.0871 -0.38218,0.22905 -0.51343,0.40673 -0.13125,0.17768 -0.21426,0.39065 -0.23786,0.61029 -0.0236,0.21964 0.0123,0.44538 0.10279,0.64689 0.0905,0.20151 0.23545,0.37826 0.41532,0.5065 0.0139,0.01 0.0279,0.0195 0.0418,0.0294 0.17067,0.12196 0.30816,0.2899 0.39401,0.48129 0.0859,0.19139 0.11987,0.40575 0.0975,0.61432 -0.0224,0.20857 -0.10114,0.41081 -0.22568,0.57961 -0.12454,0.1688 -0.29454,0.30372 -0.48721,0.38666"
       id="path4864-6-5-0-1-2"
       inkscape:connector-curvature="0" />
    <path
       inkscape:connector-curvature="0"
       id="path8725-0-7-9-7-1"
       d="m 333.01554,69.587602 a 36.544599,36.544599 0 0 1 36.54458,-36.54458 36.544599,36.544599 0 0 1 36.54463,36.54458 36.544599,36.544599 0 0 1 -36.54463,36.544598 36.544599,36.544599 0 0 1 -36.54458,-36.544598 z"
       style="fill:none;fill-opacity:1;stroke:#000000;stroke-width:0.276996;stroke-linecap:round;stroke-miterlimit:4;stroke-dasharray:none;stroke-dashoffset:0;stroke-opacity:1;paint-order:stroke fill markers" />
    <path
       inkscape:connector-curvature="0"
       id="path8725-0-7-9-8-12-9"
       d="m 340.7657,72.080572 a 27.464883,27.464883 0 0 1 27.46484,-27.46488 27.464883,27.464883 0 0 1 27.46489,27.46488 27.464883,27.464883 0 0 1 -27.46489,27.46489 27.464883,27.464883 0 0 1 -27.46484,-27.46489 z"
       style="fill:none;fill-opacity:1;stroke:#000000;stroke-width:0.276996;stroke-linecap:round;stroke-miterlimit:4;stroke-dasharray:none;stroke-dashoffset:0;stroke-opacity:1;paint-order:stroke fill markers" />
    <path
       inkscape:connector-curvature="0"
       id="path8725-0-7-9-8-1-6-5"
       d="m 349.19652,69.587602 a 20.363608,20.363608 0 0 1 20.3636,-20.3636 20.363608,20.363608 0 0 1 20.36362,20.3636 20.363608,20.363608 0 0 1 -20.36362,20.36362 20.363608,20.363608 0 0 1 -20.3636,-20.36362 z"
       style="fill:none;fill-opacity:1;stroke:#000000;stroke-width:0.276996;stroke-linecap:round;stroke-miterlimit:4;stroke-dasharray:none;stroke-dashoffset:0;stroke-opacity:1;paint-order:stroke fill markers" />
    <path
       inkscape:connector-curvature="0"
       id="path8725-0-7-9-8-6-6-1"
       d="m 357.14755,69.587602 a 12.412606,12.412606 0 0 1 12.41257,-12.41259 12.412606,12.412606 0 0 1 12.41262,12.41259 12.412606,12.412606 0 0 1 -12.41262,12.41261 12.412606,12.412606 0 0 1 -12.41257,-12.41261 z"
       style="fill:none;fill-opacity:1;stroke:#000000;stroke-width:0.261811;stroke-linecap:round;stroke-miterlimit:4;stroke-dasharray:none;stroke-dashoffset:0;stroke-opacity:1;paint-order:stroke fill markers" />
    <text
       transform="scale(-1)"
       id="text9106-7-2"
       y="-53.48988"
       x="-369.76001"
       style="font-style:normal;font-variant:normal;font-weight:normal;font-stretch:normal;font-size:2.51375px;line-height:1.25;font-family:'Microsoft YaHei';-inkscape-font-specification:'Microsoft YaHei';letter-spacing:0px;word-spacing:0px;fill:#000000;fill-opacity:1;stroke:none;stroke-width:0.058916"
       xml:space="preserve"><tspan
         style="stroke-width:0.058916"
         y="-53.48988"
         x="-369.76001"
         id="tspan9104-3-6"
         sodipodi:role="line">TopEnergy</tspan></text>
    <text
       transform="scale(-1)"
       id="text9106-6-7-1"
       y="-47.945698"
       x="-365.59045"
       style="font-style:normal;font-variant:normal;font-weight:normal;font-stretch:normal;font-size:1.75849px;line-height:1.25;font-family:'Microsoft YaHei';-inkscape-font-specification:'Microsoft YaHei';letter-spacing:0px;word-spacing:0px;fill:#000000;fill-opacity:1;stroke:none;stroke-width:0.0412146"
       xml:space="preserve"><tspan
         style="stroke-width:0.0412146"
         y="-47.945698"
         x="-365.59045"
         id="tspan9104-6-3-7"
         sodipodi:role="line">Interaim</tspan><tspan
         id="tspan9224-5-6"
         style="stroke-width:0.0412146"
         y="-45.747585"
         x="-365.59045"
         sodipodi:role="line">Energy</tspan></text>
    <text
       transform="scale(-1)"
       id="text9106-6-3-6-5"
       y="-39.65572"
       x="-367.0502"
       style="font-style:normal;font-variant:normal;font-weight:normal;font-stretch:normal;font-size:1.97767px;line-height:1.25;font-family:'Microsoft YaHei';-inkscape-font-specification:'Microsoft YaHei';letter-spacing:0px;word-spacing:0px;fill:#000000;fill-opacity:1;stroke:none;stroke-width:0.0463519"
       xml:space="preserve"><tspan
         style="stroke-width:0.0463519"
         y="-39.65572"
         x="-367.0502"
         id="tspan9104-6-1-2-1"
         sodipodi:role="line">Underground</tspan><tspan
         id="tspan9222-0-3"
         style="stroke-width:0.0463519"
         y="-37.183636"
         x="-367.0502"
         sodipodi:role="line">Energy</tspan></text>
    <text
       id="text9228-1-2"
       y="85.69455"
       x="370.42679"
       style="font-style:normal;font-variant:normal;font-weight:normal;font-stretch:normal;font-size:4.07244px;line-height:1.25;font-family:'Microsoft YaHei';-inkscape-font-specification:'Microsoft YaHei';letter-spacing:0px;word-spacing:0px;fill:#000000;fill-opacity:1;stroke:none;stroke-width:0.0954478"
       xml:space="preserve"><tspan
         style="stroke-width:0.0954478"
         y="85.69455"
         x="370.42679"
         id="tspan9226-5-9"
         sodipodi:role="line">天</tspan></text>
    <text
       transform="matrix(0.70206979,0.70206979,-0.71217991,0.71217991,0,0)"
       id="text9228-6-2-7"
       y="-196.90938"
       x="329.37939"
       style="font-style:normal;font-variant:normal;font-weight:normal;font-stretch:normal;font-size:2.68738px;line-height:1.25;font-family:'Microsoft YaHei';-inkscape-font-specification:'Microsoft YaHei';letter-spacing:0px;word-spacing:0px;fill:#000000;fill-opacity:1;stroke:none;stroke-width:0.0629854"
       xml:space="preserve"><tspan
         id="tspan9341-0-9"
         style="stroke-width:0.0629854"
         y="-196.90938"
         x="329.37939"
         sodipodi:role="line">镁SOS</tspan></text>
    <text
       id="text9228-6-0-6-3"
       y="102.59409"
       x="371.39011"
       style="font-style:normal;font-variant:normal;font-weight:normal;font-stretch:normal;font-size:3.60542px;line-height:1.25;font-family:'Microsoft YaHei';-inkscape-font-specification:'Microsoft YaHei';letter-spacing:0px;word-spacing:0px;fill:#000000;fill-opacity:1;stroke:none;stroke-width:0.0845019"
       xml:space="preserve"><tspan
         style="stroke-width:0.0845019"
         y="102.59409"
         x="371.39011"
         id="tspan9226-8-1-1-9"
         sodipodi:role="line">闪光丹阳</tspan></text>
    <text
       id="text9106-6-3-9-5-1"
       y="84.042664"
       x="353.65979"
       style="font-style:normal;font-variant:normal;font-weight:normal;font-stretch:normal;font-size:1.59553px;line-height:1.25;font-family:'Microsoft YaHei';-inkscape-font-specification:'Microsoft YaHei';letter-spacing:0px;word-spacing:0px;fill:#000000;fill-opacity:1;stroke:none;stroke-width:0.0373951"
       xml:space="preserve"><tspan
         style="stroke-width:0.0373951"
         y="84.042664"
         x="353.65979"
         id="tspan9104-6-1-3-6-4"
         sodipodi:role="line">Opposite</tspan><tspan
         id="tspan9218-0-0"
         style="stroke-width:0.0373951"
         y="86.037079"
         x="353.65979"
         sodipodi:role="line">UndergroundEnergy</tspan></text>
    <text
       id="text9106-6-0-9-8"
       y="91.268951"
       x="354.40146"
       style="font-style:normal;font-variant:normal;font-weight:normal;font-stretch:normal;font-size:2.02801px;line-height:1.25;font-family:'Microsoft YaHei';-inkscape-font-specification:'Microsoft YaHei';letter-spacing:0px;word-spacing:0px;fill:#000000;fill-opacity:1;stroke:none;stroke-width:0.0475316"
       xml:space="preserve"><tspan
         style="stroke-width:0.0475316"
         y="91.268951"
         x="354.40146"
         id="tspan9104-6-9-0-2"
         sodipodi:role="line">Opposite</tspan><tspan
         id="tspan9220-6-6"
         style="stroke-width:0.0475316"
         y="93.80397"
         x="354.40146"
         sodipodi:role="line">InteraimEnergy</tspan></text>
    <text
       id="text9106-2-2-1"
       y="99.243469"
       x="355.86359"
       style="font-style:normal;font-variant:normal;font-weight:normal;font-stretch:normal;font-size:2.52571px;line-height:1.25;font-family:'Microsoft YaHei';-inkscape-font-specification:'Microsoft YaHei';letter-spacing:0px;word-spacing:0px;fill:#000000;fill-opacity:1;stroke:none;stroke-width:0.0591965"
       xml:space="preserve"><tspan
         style="stroke-width:0.0591965"
         y="99.243469"
         x="355.86359"
         id="tspan9104-7-4-2"
         sodipodi:role="line">Opposite</tspan><tspan
         id="tspan9320-2-9"
         style="stroke-width:0.0591965"
         y="102.4006"
         x="355.86359"
         sodipodi:role="line">TopEnergy</tspan></text>
    <text
       id="text9228-6-0-7-2-4"
       y="37.934742"
       x="370.93808"
       style="font-style:normal;font-variant:normal;font-weight:normal;font-stretch:normal;font-size:3.60542px;line-height:1.25;font-family:'Microsoft YaHei';-inkscape-font-specification:'Microsoft YaHei';letter-spacing:0px;word-spacing:0px;fill:#000000;fill-opacity:1;stroke:none;stroke-width:0.0845019"
       xml:space="preserve"><tspan
         style="stroke-width:0.0845019"
         y="37.934742"
         x="370.93808"
         id="tspan9226-8-1-9-1-2"
         sodipodi:role="line">下SOS</tspan><tspan
         id="tspan3882"
         style="stroke-width:0.0845019"
         y="42.441517"
         x="370.93808"
         sodipodi:role="line" /></text>
    <text
       id="text9228-6-4-2-6"
       y="44.086048"
       x="370.13559"
       style="font-style:normal;font-variant:normal;font-weight:normal;font-stretch:normal;font-size:2.72639px;line-height:1.25;font-family:'Microsoft YaHei';-inkscape-font-specification:'Microsoft YaHei';letter-spacing:0px;word-spacing:0px;fill:#000000;fill-opacity:1;stroke:none;stroke-width:0.0638995"
       xml:space="preserve"><tspan
         style="stroke-width:0.0638995"
         y="44.086048"
         x="370.13559"
         id="tspan9226-8-2-8-1"
         sodipodi:role="line">每 盎司</tspan></text>
    <text
       id="text9228-3-4-0"
       y="53.959042"
       x="371.79453"
       style="font-style:normal;font-variant:normal;font-weight:normal;font-stretch:normal;font-size:4.07244px;line-height:1.25;font-family:'Microsoft YaHei';-inkscape-font-specification:'Microsoft YaHei';letter-spacing:0px;word-spacing:0px;fill:#000000;fill-opacity:1;stroke:none;stroke-width:0.0954478"
       xml:space="preserve"><tspan
         id="tspan9337-1-0"
         style="stroke-width:0.0954478"
         y="53.959042"
         x="371.79453"
         sodipodi:role="line">中上美</tspan></text>
    <path
       inkscape:connector-curvature="0"
       id="path9584-5-3"
       d="m 370.37977,81.912532 10.37532,-17.97054 h -22.302 z"
       style="fill:none;stroke:#000000;stroke-width:0.110798px;stroke-linecap:butt;stroke-linejoin:miter;stroke-opacity:1" />
    <text
       id="text9106-6-7-1-1"
       y="71.660812"
       x="390.97226"
       style="font-style:normal;font-variant:normal;font-weight:normal;font-stretch:normal;font-size:2.04647px;line-height:1.25;font-family:'Microsoft YaHei';-inkscape-font-specification:'Microsoft YaHei';letter-spacing:0px;word-spacing:0px;fill:#000000;fill-opacity:1;stroke:none;stroke-width:0.0479642"
       xml:space="preserve"><tspan
         style="stroke-width:0.0479642"
         y="71.660812"
         x="390.97226"
         id="tspan9104-6-3-7-8"
         sodipodi:role="line">Interaim</tspan><tspan
         id="tspan9224-5-6-1"
         style="stroke-width:0.0479642"
         y="74.218903"
         x="390.97226"
         sodipodi:role="line">Energy</tspan></text>
    <text
       id="text9106-6-3-6-5-3"
       y="58.840801"
       x="375.10123"
       style="font-style:normal;font-variant:normal;font-weight:normal;font-stretch:normal;font-size:2.30155px;line-height:1.25;font-family:'Microsoft YaHei';-inkscape-font-specification:'Microsoft YaHei';letter-spacing:0px;word-spacing:0px;fill:#000000;fill-opacity:1;stroke:none;stroke-width:0.0539428"
       xml:space="preserve"><tspan
         style="stroke-width:0.0539428"
         y="58.840801"
         x="375.10123"
         id="tspan9104-6-1-2-1-1"
         sodipodi:role="line">Underground</tspan><tspan
         id="tspan9222-0-3-1"
         style="stroke-width:0.0539428"
         y="61.717739"
         x="375.10123"
         sodipodi:role="line">Energy</tspan></text>
    <text
       id="text9228-1-2-3"
       y="39.966938"
       x="381.97964"
       style="font-style:normal;font-variant:normal;font-weight:normal;font-stretch:normal;font-size:4.41366px;line-height:1.25;font-family:'Microsoft YaHei';-inkscape-font-specification:'Microsoft YaHei';letter-spacing:0px;word-spacing:0px;fill:#000000;fill-opacity:1;stroke:none;stroke-width:0.103445"
       xml:space="preserve"><tspan
         style="stroke-width:0.103445"
         y="39.966938"
         x="381.97964"
         id="tspan9226-5-9-9"
         sodipodi:role="line">天</tspan></text>
    <text
       transform="scale(0.9928766,1.0071745)"
       id="text9228-6-2-7-2"
       y="51.605038"
       x="354.44611"
       style="font-style:normal;font-variant:normal;font-weight:normal;font-stretch:normal;font-size:1.75339px;line-height:1.25;font-family:'Microsoft YaHei';-inkscape-font-specification:'Microsoft YaHei';letter-spacing:0px;word-spacing:0px;fill:#000000;fill-opacity:1;stroke:none;stroke-width:0.041095"
       xml:space="preserve"><tspan
         style="stroke-width:0.041095"
         y="51.605038"
         x="354.44611"
         id="tspan9226-8-4-7-4"
         sodipodi:role="line">阿修罗</tspan><tspan
         id="tspan9341-0-9-6"
         style="stroke-width:0.041095"
         y="53.796772"
         x="354.44611"
         sodipodi:role="line">感/神</tspan></text>
    <text
       id="text9228-6-0-6-3-1"
       y="63.877224"
       x="344.6655"
       style="font-style:normal;font-variant:normal;font-weight:normal;font-stretch:normal;font-size:3.90751px;line-height:1.25;font-family:'Microsoft YaHei';-inkscape-font-specification:'Microsoft YaHei';letter-spacing:0px;word-spacing:0px;fill:#000000;fill-opacity:1;stroke:none;stroke-width:0.0915823"
       xml:space="preserve"><tspan
         style="stroke-width:0.0915823"
         y="63.877224"
         x="344.6655"
         id="tspan9226-8-1-1-9-7"
         sodipodi:role="line">鬼</tspan></text>
    <text
       id="text9228-6-0-7-2-4-7"
       y="83.027512"
       x="349.57773"
       style="font-style:normal;font-variant:normal;font-weight:normal;font-stretch:normal;font-size:3.90751px;line-height:1.25;font-family:'Microsoft YaHei';-inkscape-font-specification:'Microsoft YaHei';letter-spacing:0px;word-spacing:0px;fill:#000000;fill-opacity:1;stroke:none;stroke-width:0.0915823"
       xml:space="preserve"><tspan
         style="stroke-width:0.0915823"
         y="83.027512"
         x="349.57773"
         id="tspan9226-8-1-9-1-2-7"
         sodipodi:role="line">元</tspan></text>
    <text
       id="text9228-6-4-2-6-7"
       y="89.208542"
       x="345.84607"
       style="font-style:normal;font-variant:normal;font-weight:normal;font-stretch:normal;font-size:1.76597px;line-height:1.25;font-family:'Microsoft YaHei';-inkscape-font-specification:'Microsoft YaHei';letter-spacing:0px;word-spacing:0px;fill:#000000;fill-opacity:1;stroke:none;stroke-width:0.0413899"
       xml:space="preserve"><tspan
         style="stroke-width:0.0413899"
         y="89.208542"
         x="345.84607"
         id="tspan9226-8-2-8-1-0"
         sodipodi:role="line">修罗/昏/混</tspan></text>
    <text
       xml:space="preserve"
       style="font-size:4.23333px;line-height:1.25;font-family:sans-serif;letter-spacing:0px;stroke-width:0.264583"
       x="366.3822"
       y="-68.387619"
       id="text1"
       transform="scale(1,-1)"><tspan
         sodipodi:role="line"
         id="tspan1"
         style="stroke-width:0.264583"
         x="366.3822"
         y="-68.387619">IRK</tspan></text>
  </g>
</svg>
